/* XPM */
static char *_0a8db2f22d24867e13a9a188f63ccf2_25[] = {
/* columns rows colors chars-per-pixel */
"64 52 64 1 ",
"  c #040204",
". c #D4820C",
"X c #ECC244",
"o c #B44204",
"O c #DCA21C",
"+ c #C46204",
"@ c #FCEEB4",
"# c #F4D66C",
"$ c #BC5204",
"% c #DC920C",
"& c #E4B22C",
"* c #CC7204",
"= c #ECCE54",
"- c #B44A04",
"; c #E4AA24",
": c #F4E28C",
"> c #BC5A04",
", c #DC9A14",
"< c #D48A0C",
"1 c #ECCA4C",
"2 c #CC6A04",
"3 c #FCFEF4",
"4 c #ECBA34",
"5 c #CC7A04",
"6 c #E4A21C",
"7 c #F4DE7C",
"8 c #DC9614",
"9 c #BC4A04",
"0 c #C45A04",
"q c #D4860C",
"w c #ECC64C",
"e c #B44604",
"r c #C46604",
"t c #FCF6D4",
"y c #F4DA74",
"u c #BC5604",
"i c #DC9214",
"p c #E4B62C",
"a c #CC7604",
"s c #F4D264",
"d c #E4AE24",
"f c #F4E694",
"g c #DC9E14",
"h c #D48E0C",
"j c #ECCA54",
"k c #CC6E04",
"l c #FCFEFC",
"z c #ECBE3C",
"x c #D47E04",
"c c #E4A61C",
"v c #BC4E04",
"b c #C45E04",
"n c None",
"m c black",
"M c black",
"N c black",
"B c black",
"V c black",
"C c black",
"Z c black",
"A c black",
"S c black",
"D c black",
"F c black",
/* pixels */
"                                        ooooe-e-oooo            ",
"                                        ooooe-9eoooo            ",
"                                        ooooee-9oeoo            ",
"                                        ooooo-9-ooeo            ",
"            ooooeeee            ----uuuu>>>>bb>buuuuoooo        ",
"            ooooeeee            -999uuuu++++b>+buu$ueeeo        ",
"            ooooee9e            -9--0u0ubbb+bbbbuuuuooeo        ",
"            oeoeeeee            -v-9uuuu++b+>+>bu$u$eeoe        ",
"            ----$vv-eooooooouuu>kkkk5..x....rrrr$$$$oooo        ",
"            -$vv-$-$oooooooou>0ukrkk.5.5..5.rr2r$$v$oeoo        ",
"            v-v-$-$-eooooooouu>0kkkk5..5....rrr2$$$$ooeo        ",
"            -vvv-$vveoeooooouu0ukkkk.5......rr2r$v$-eooo        ",
"        oooooeoeooooeeeeuu$ukkrk5555.5.5a*a*rr++$$u$>u>ueeee    ",
"        ooooooeoooooeoeouuuukkkk55x5..5.a*a*++r+u$$$uuu>---e    ",
"        ooooooeeooooeeeeu>uukkr*5x55.5.5aa*a++++$u$uu0u0e9e-    ",
"        oooooooeooooeoeeuu>ukkkk55.5....*a*a+r+r$$$$uuuuee-e    ",
"        eeoeeeee        eeeeuuu>+r++rrrr++++>++bkkkkrr2r$$v$    ",
"        ----eeee        e-e-u>uu++++rrrr+>++++b+kkkkrrrr$v$-    ",
"        --9-eeee        ee9euuu>++++r2rr++++b+>+krkkrr2r$-$$    ",
"        -9--eeee        eee9u0uu++++rrr2b++>++++kkr*rrrr$$$-    ",
"    -v-$>0>00>0uuuuuuuuueeeeeoeo9-99++++%h%%;;;;<<<<hhh%x...eeee",
"    v$$v>0>0>u>0uuuuuu0$-9eeeoee9-v-r+++%hihd;d;<<<<<h<<....eeee",
"    -$-$>0>0>0>>u0$0$uu0eeeeeoeo-v-9+r+r%ih%d;;;<<q<<h<%5q..eeee",
"    v$vv>0>0>>0u0$uu0$uueeeeeoee9-v-++++%hihd;;d<<<<<%<<....eeee",
"    rkkkrrrr0u0ubb0buu0u00b0kkkk,,,gg6,g=s======&&&p%%%%....    ",
"    kkrk+r+ru0>>0b>buuuu0>>>kkkk,g,,g,g6jj====j=pp&p%h8h...5    ",
"    rkkkrrrr0>0ubbbbu0uub>b>kkkk,,,,gg,,===sj===&&4&%8h8....    ",
"    krkrrr+ru0u>b>bbuu0u0>0>kkr*g,g,ggg6jsjjs1sj4&&p%h88.5..    ",
"    ----$vvve-e9$$$$uuuubbbbqqqqOOOcssss&&4&444466c6aaa*>>>>    ",
"    -vv-vvvve-9e$$$$u0uub>+>q.q.O;OO#ssspp&444p4O6OOa*a*>b>b    ",
"    -9-9v-v-9ee-$$$$uu0ub+bbq.qqOc;Os=#=pp&&4p4pcOcca*aa>b>>    ",
"    -9--$v$v--9e$$$$>uuubb>+.q.qOOOcs#=ypp4&4p4pcOcOa*a*0>0>    ",
"    oeee.q.qvvv$v$v$x5x5+++bkkkk====ffffllllllllyyyy,,,gOcO6    ",
"    oeoe.q.q-$$v$v$v5x5xbbb+kkr*1111f:f:llllllllyy#y,g,,6OcO    ",
"    oeoe.q.q$$v$v$v$5555b++>*k*kjj=1f:ffllllllllyyyy,,,g6O6O    ",
"    oeoe.q.q-$v$-$$v5x5xbb++kkkk1jjjf:f:llllllllyy#y,,,,cOcO    ",
"    e-e-8,%,llll####aaaa++++rkrka5aazzzzl3ll@@@@1w1wj1j18%8%qqqq",
"    e-9e,,,,llll##s#aaaab+b+kkkr5axaz4zz333l@@@@jw111j1j8%8h<qqq",
"    eee-88,8llll###=aaaa++++rkkkaaaazzzpll33@@@@jw1w1j118%88q<q<",
"    -9e98,8,llll####aaaa+b++kkrka5aazzzz33ll@@@@w1w11jj18%8h<qqq",
"    eeee%8h8777ytttt.q.q$u$$....O6c6ggOg%<<<dd&dwwwwllllss#=    ",
"    eeee%888yy7ytttt.q.q$u$u....OOOcOg6g<<%<dd;dw1w1llll#=##    ",
"    eeee8h8h77y7ttttq.q.u$u$.5..OcO6g6g6<%q%;dddwwwwllll#ss=    ",
"    eeee88887y7yttttq.q.u$u$....OO6O6gOg%<<<dddd1w1wlllls#s#    ",
"::::@@@@,,g,=j=jllllllll&&&pdddd****rr2r+r2+$$$$aaaawwwwllll8888",
"::::@@@@g,g,=j==llllllll4&&&dddd*k**rrrrr++r$$$$a*aawwwwllll,888",
"::::@@@@,g,gj=jjllllllll&&&pdddd****rr2r2+r2$$$$aaa*wX1Xllll8,8,",
"::::@@@@,g,gj=j=llllllll&p&&dddd*k**rrrrrr+r$$$$aaaawwX1llll8888",
"22225555hhhillllllllllllllllXXXz++++bbbbooeox.5.llllllllllllpppp",
"krkr55a5hhi<llllllllllllllllXXXX++++>bb0eeoe....llllllllllll4&&&",
"rkkk5555i<i<llllllllllllllllXzXz++++b>b>eoeo5.5.llllllllllll&&4&",
"krkr5xaahi<illllllllllllllllXXzX++++>bbbeoee....llllllllllll4&&p"
};
