/* XPM */
static char *_0a8db2f22d24867e13a9a188f63ccf2_11[] = {
/* columns rows colors chars-per-pixel */
"64 52 64 1 ",
"  c #040204",
". c #D4820C",
"X c #ECC23C",
"o c #B44204",
"O c #C46204",
"+ c #DCA21C",
"@ c #FCF6D4",
"# c #BC5204",
"$ c #DC920C",
"% c #F4DA74",
"& c #CC7204",
"* c #E4B62C",
"= c #B44A04",
"- c #FCFAEC",
"; c #DC9A14",
": c #D48A0C",
"> c #ECCE5C",
", c #CC6A04",
"< c #E4AA24",
"1 c #C45A04",
"2 c #F4E28C",
"3 c #D47E04",
"4 c #ECBE3C",
"5 c #BC4A04",
"6 c #ECC244",
"7 c #B44604",
"8 c #C46604",
"9 c #FCF6DC",
"0 c #BC5604",
"q c #DC9614",
"w c #F4DE7C",
"e c #CC7604",
"r c #E4B634",
"t c #FCFEFC",
"y c #DC9E1C",
"u c #D48E0C",
"i c #E4AE24",
"p c #BC4E04",
"a c None",
"s c black",
"d c black",
"f c black",
"g c black",
"h c black",
"j c black",
"k c black",
"l c black",
"z c black",
"x c black",
"c c black",
"v c black",
"b c black",
"n c black",
"m c black",
"M c black",
"N c black",
"B c black",
"V c black",
"C c black",
"Z c black",
"A c black",
"S c black",
"D c black",
"F c black",
/* pixels */
"                        oooooooo        oooo                    ",
"                        oooooo77        oooo                    ",
"                        oooooo7o        oooo                    ",
"                        ooooooo7        oooo                    ",
"                        ooooo777oooo                            ",
"                        77777777oooo                            ",
"                        77=77777oooo                            ",
"                        777=7777oooo                            ",
"                    7777====777o                                ",
"                    7777=5=57o77                                ",
"                    77775===777o                                ",
"                    7777=5=57o77                                ",
"        ====7777ooooooo7oooo                                    ",
"        =ppp===7ooooo77ooooo                                    ",
"        =p==5757oooo7o7ooooo                                    ",
"        =p=p77=7ooooo7o7oooo                                    ",
"    oooo==5=55=p=##=O00Oo7o7                                    ",
"    oooo===5=p=5##=#0O007o7o                                    ",
"    oooo7=5=5=5=####00O07o7o                                    ",
"    oooo===5=p=pp#=#O01077o7                                    ",
"                77777==5oooo                                    ",
"                7777577=o7oo                                    ",
"                7777=57=oo7o                                    ",
"                77777=57oooo                                    ",
"        oooo==p=pppp7577                                        ",
"        oooopp=pp=#p7777                                        ",
"        oo7o=p=#ppp=5757                                        ",
"        ooo7=#p=p=#p7777                                        ",
"    3.3.8888,88&eeee#p#p####::::&&&&==p=                        ",
"    ....88888&,8eeeepp=#####::::&8&&=#=#                        ",
"    3.3.O8O8,8,8eeee#p#p0#0#::::&&&&=pp=                        ",
"    ....8888,8&,eeeepp=####0::::&&8&=#=#                        ",
"    ++++uuu$OOOO001#O0O0::::tttt%wwwttttuuuupp=#oooo7777        ",
"    ++++u$u$OOOO####0O0O::::ttttwwwwtttt$$$u####o77o7777        ",
"    ++++$u$uOOOO00#010O0::::ttttww2wtttt$u$u#p#p7o7o7777        ",
"    ++++$$u$OOOO#0#10O0O.$.$ttttwwwwtttt$uqup#p#o7o77777        ",
"oooo....33.3===5    &&&&tttttttttttttttt>>>>6X6X----yyyyoooo    ",
"oooo......3.==57    &&&&tttttttttttttttt>>>>66X6-9-9+;+;7ooo    ",
"7o7o.....3.3=7==    &&&&tttttttttttttttt>>>>X66X----++;+7o7o    ",
"ooo7.....e..==57    &&&&tttttttttttttttt>>>>X6X6----;++;5ooo    ",
"    ::::@@@@OO8O    &8&&ii*itttttttttttttttt4***;q;;.333##007777",
"    .:.:@@@@O8O8    &&&8iiiitttttttttttttttt*rr*qqq$.3.300##7777",
"    ::::@@@@O8O8    &&&&i*iittttttttttttttttr**4qq;;33330#007777",
"    .:.:@@@@O8O8    &8&&iiiittttttttttttttttr*4iqqqq.3.30#0#7777",
"    ....tttttttt.3.3####OO884X4Xr**rr4*ri<i<.3338O8O++++8888####",
"    ...3tttttttt....####8O8O4444*******r<<<<.3.3OOOO++++8O8O#p#p",
"    3...tttttttt..3.####O8O,44X4**ir*4**i<i<.3..O8O8++++,O88####",
"    .3.3tttttttt....####O8OO4444r*r***4*<<<<.3.3OOOO++++O8,Op#p#",
"    %%%%tttt----3e3e@@9@ttttuuuuttttqq$q2222X4XXtttttttt33e3    ",
"    %%%%tttt----33e.@999tttt$:$:ttttqq;q2222X4X4tttttttt3333    ",
"    %%%%tttt----e33e99@9tttt$:u$tttt;;q;2222X46Xtttttttt33e3    ",
"    %%%%tttt--9-33e.9@9@ttttu:$:tttt;q;q2222X4X4tttttttt33e.    "
};
