/* XPM */
static char *_0a8db2f22d24867e13a9a188f63ccf2_22[] = {
/* columns rows colors chars-per-pixel */
"64 56 64 1 ",
"  c #040204",
". c #D4820C",
"X c #ECC23C",
"o c #B44204",
"O c #C46204",
"+ c #DCA21C",
"@ c #FCEAA4",
"# c #DC920C",
"$ c #F4D66C",
"% c #BC5204",
"& c #CC7204",
"* c #FCFAE4",
"= c #F4D25C",
"- c #E4B22C",
"; c #DC9A14",
": c #D48A0C",
"> c #C46A04",
", c #BC5A04",
"< c #ECCA4C",
"1 c #B44A04",
"2 c #CC7A04",
"3 c #FCFEF4",
"4 c #ECBE3C",
"5 c #ECC64C",
"6 c #FCF2C4",
"7 c #DC9614",
"8 c #F4DE7C",
"9 c #E4B62C",
"0 c #DC9E14",
"q c #DC8E0C",
"w c #CC6A04",
"e c #C45A04",
"r c #D4860C",
"t c #ECC244",
"y c #B44604",
"u c #C46604",
"i c #E4AA24",
"p c #DC9214",
"a c #BC5604",
"s c #CC7604",
"d c #FCFAEC",
"f c #F4D264",
"g c #D48E0C",
"h c #BC4E04",
"j c #D47E04",
"k c #FCFEFC",
"l c #FCF2CC",
"z c #F4E28C",
"x c #E4B634",
"c c #DC9E1C",
"v c #CC6E04",
"b c #C45E04",
"n c None",
"m c black",
"M c black",
"N c black",
"B c black",
"V c black",
"C c black",
"Z c black",
"A c black",
"S c black",
"D c black",
"F c black",
/* pixels */
"                            ooooyyyyoooo                        ",
"                            oooooyyyoooo                        ",
"                            ooooyyyyoooo                        ",
"                            oooooyyyoooo                        ",
"                            ooooyy1yyooy                        ",
"                            ooooo1y1yyyy                        ",
"                            ooooo1y1yyyy                        ",
"                            ooooo1y1yyyy                        ",
"                                oooo                            ",
"                                oooo                            ",
"                                oooo                            ",
"                                oooo                            ",
"            oooooooooooo                    oooo11h11h11        ",
"            oooooyyyyyyo                    oooo1hhhh1hh        ",
"            ooooyoooooyo                    oooo1h1h1h1h        ",
"            oooooyyyyoyo                    oooo1hh1hhh1        ",
"        yyyy%%%%%1%11yyy        y1y1,,,,>>>>.r.rv>vv,e,boyoy    ",
"        y11y%%%%%%%%yy1y        1hyheeeewww>rrrr>&vvb,b,yyyo    ",
"        y1yh%%%%1%1%yyyy        yyhy,,,,>>v>r.rr&v&>bb,Oyoyy    ",
"        yhyy%%%%%%%h1y1y        1yyheebev>wwrr.rv>&&,bb,yyyo    ",
"        %h%%>>&>2222aaaaoooo1%1%...jgg#g0000#7g7rr..uuuu%h%%    ",
"        %%%%&>&>2j2ja%e%oooo1%%h..2.##g70c0c#77#..r.uuuO%%%h    ",
"        %%%%>&>&2j22a%%aoooo1%h%....g7gp0;c0p7g7r...uuuu%h%%    ",
"        %%%%&>&v22j2e%a%oooo1%%h.2..g##gc000#77#..r.uOuO%%%h    ",
"    ooooOOOOssss2sssOOOO,,,,77779999==f=$$$$7777>&>>Obbb1111    ",
"    oooo,uOOssssssssOOOObb,b77779949====$$$$77g;>&>&bO,Oh1hy    ",
"    ooooOOOOsssssjssOOOObbbb77#79999=<f<$8$$7777>&>&,OOb1yhy    ",
"    oooo,uOOssssssssOOOObb,O77;79999ff<$$$$$g;77>&>&Ob,O1hy1    ",
"    oooyOOOO,bbee%eeeeberrrriiii999x----ccc+:rrr&>&vg7#gq:qg    ",
"    yyyyOOOOb,bea%%%e,,,.r..i+ii99x9--x-cc0crr:r>&&vg7g7ggq:    ",
"    oyoyOOOO,b,baaaae,ber.rriiii9999----0c0crrr:&>&v7g7#gq:g    ",
"    yyyyOOOObeb,ae%ae,b,r.r.ii+i9994--9-0c00:rrr>&v>7#gpg:qg    ",
"    &s&sssss>>>wyyyy11y1,,,,>>&>jjjj.rrrj.jj...r----++++rrr.    ",
"    sssss2s2w>w>yyhyyhyyea,,v&>&2jjj.rrrjj.2r...----00+0r.rr    ",
"    &s&sssssw>>wyyyyyyhye,eavvvv2j22rrrr.2.2r...-i--0+0+rrr.    ",
"    sssssjssw>w>yhyyhyyyeae,v>&v2j2.rrrrj.j.....----0+0+.rrr    ",
"g:g:rrrr::q:#gqqqgqq7;;;OOOOaeaab,bb:q:qkkkk3k3k<<X<zzzz****-9-9",
"qgqgrrrrq:g:qggg#gqg;;7;OuOue%aabb,b::::kkkkkkkk<<<<zzzz****9999",
"gq:qrrrr::qggp#gqgpg;;;;OOOOaaeae,be:q:qkkkkkkkk<<<<zzzz*d*d9-x-",
"g:qgrrrrgq::qgqgpgqp;7;7wOOOe%aabe,b::::kkkkkkkk<<5<zzzz**d*9x99",
"bbbeXXXX#777ssssrrrrssssrrrr9999kkkkl66lkkkkkkkkkkkk5555ttttbbbO",
"bb,bttXt7g77&&&sr:r:sjssrqrr9xxxkkkklll6kkkkkkkkkkkk<5<55X5XOObO",
"bbb,XttX7777&ss&rrrrssssrrrr9994kkkkl6llkkkkkkkkkkkk5555XtXtObOb",
"b,bbXtXt77g7s&ssr:rqsssjrrrq-4--kkkkll6lkkkkkkkkkkkk<5<5X5ttObOb",
"    >>>>,OOO%a%%&&&&jsjssjss444X@@@@kkkk@zz@*ddd@@@@...r&ss&ssss",
"    >>w>ObO,a%aa&s&&sjsjsssj44X4@@@@kkkkzzzz*d*d@@@@r...s&&sssss",
"    uwu>bOOOa%a%&&&sss2ssjssX4t4@@z@kkkkzzzzdddd@@@@.r..s&s&ssss",
"    >>w>bObba%aa&s&&2jsjsssj44t4@@@@kkkk@zz@**d*@@@@2rr.s&s&ssss",
"    OOOOkkkkuOuOuu>w6666sjss2222kkkkkkkkkkkkkkkkkkkkz8$8kkkkbbeb",
"    OOOOkkkkuOuuwuuu6666sss2j2j2kkkkkkkkkkkkkkkkkkkk8888kkkkbeb,",
"    OOOOkkkkwOOOuwuu6@66ssjs2j22kkkkkkkkkkkkkkkkkkkk8888kkkkb,be",
"    OOOOkkkkOuuuuuwu6666sss2jsj2kkkkkkkkkkkkkkkkkkkk88$8kkkkbe,b",
"    OOuOllllkkkkkkkk000022jspgppsjsjff$fkkkkkkkk333dkkkk4444kkkk",
"    OuOu6l6lkkkkkkkkc0c02js2pggqssssfff$kkkkkkkk3dkdkkkk4444kkkk",
"    OuOu6l6lkkkkkkkkc00cjsj2pqgps2js$fffkkkkkkkk3dkdkkkk44x4kkkk",
"    OuOu6ll6kkkkkkkk0c0cjs2spgqgssssf$f$kkkkkkkkkdkdkkkk4444kkkk"
};
