/* XPM */
static char *_0a8db2f22d24867e13a9a188f63ccf2_14[] = {
/* columns rows colors chars-per-pixel */
"64 36 64 1 ",
"  c #040204",
". c #D4820C",
"X c #ECC244",
"o c #B43E04",
"O c #C46204",
"+ c #E4A21C",
"@ c #FCEAA4",
"# c #BC5204",
"$ c #E4B22C",
"% c #DC920C",
"& c #CC7204",
"* c #FCF6DC",
"= c #F4E284",
"- c #B44A04",
"; c #FCEEBC",
": c #BC5A04",
"> c #ECBA34",
", c #ECCA54",
"< c #E4AA24",
"1 c #DC9A14",
"2 c #CC7A04",
"3 c #D48A0C",
"4 c #B44604",
"5 c #CC6E04",
"6 c #E4B62C",
"7 c #FCF2CC",
"8 c #C45A04",
"9 c #ECC644",
"0 c #B44204",
"q c #C46604",
"w c #E4A61C",
"e c #FCEEB4",
"r c #BC5604",
"t c #DC9614",
"y c #CC7604",
"u c #FCFEFC",
"i c #F4E28C",
"p c #BC4E04",
"a c #FCF2BC",
"s c #ECBE3C",
"d c #ECCE5C",
"f c #E4AE24",
"g c #DC9E14",
"h c #D47E04",
"j c #D48E0C",
"k c #E4B634",
"l c #C45E04",
"z c None",
"x c black",
"c c black",
"v c black",
"b c black",
"n c black",
"m c black",
"M c black",
"N c black",
"B c black",
"V c black",
"C c black",
"Z c black",
"A c black",
"S c black",
"D c black",
"F c black",
/* pixels */
"        oooo00000404        4444oooo                            ",
"        o00o00004440        4444000o                            ",
"        o0o000004044        44-4oo0o                            ",
"        o0o000004440        444-0o0o                            ",
"    ###r:::r-4-4oooo0000r:r:....2.22.22h####                    ",
"    #rr#:r::4-4-oo0o0000::8:......2.2.2.####                    ",
"    #r#r::::4-4-oooo0000:r8:.....2...2.2####                    ",
"    #r##8r8:4-4-o0o00000::r8......2.2.2.####                    ",
"    p##prrr8        #r#r<<<<,,,,eaaa<<<<....&5&5yyyy####        ",
"    -#p#r8#r        #r#r<<f<9,,,aaea<wfw....&&&&yyyy####        ",
"    #p#prrrr        #r#r<<<f,,,,eaae<fwf....&&&5yyyy####        ",
"    p#-#r8rr        #r#r<f<<,,,,eaaa<<<w....y&&&yyyy#r##        ",
"    #rrry2yh4444    rrrrj3jj====uuuu777799993333&&&&::::        ",
"    #r#rhyhy4--4    r:rrj3j3iii@uuuu7777999933335&5&r8:8        ",
"    #r##y2y244p4    rr8rj3%3iii=uuuu777799XX3333&&&&::8r        ",
"    #rrrhyhyp444    rrr8333%ii@=uuuu777799X93333&5&5:8r:        ",
"    :88rssssk>6>:::84444lOllttttwwwwwg<gjjjj555q::r:llOl0000    ",
"    ::8:ssss66>68:8:4444llllttttwwwwgwg<jjjj5q55:8r8lOlO4440    ",
"    :8:8XsXsk66k8:l84444OlOlttttwwgwwwggjjjj5555rr8rO:Ol0040    ",
"    :8:8ssss6>6>:l:84444lllOtt%1gwwwgwwwjjjj55q5::r:OOOO4040    ",
"    ....eeea$$$$55&53333>666h2.2$$f$2.2.jj%3jjtjuuuu@i@i::::    ",
"    ....eeee$$$$&55&3333>>6>2.2.fff$....jjj%%j%juuuu@@@@:88:    ",
"    ....eeee$$$$555533336>66hh2.f$ff2...jj3jt%jtuuuu@i@@::8:    ",
"    ....eae;$$$$5&5&3333>$>6h.2hff$$..2.jj%3%jt%uuuu@@@i:8:8    ",
"-4-46>>6kkkk====uuuuuuuu++gwttttdddd1ggg<ww<<<w<uuuuuuuuuuuu$$$$",
"p4p-s6sssssk====uuuuuuuuwgwg1tttddddg111<<<<<<<<uuuuuuuuuuuu>$$$",
"-4p4ks6>6kss====uuuuuuuuwwwg1tttdddd1111<<w<<<<<uuuuuuuuuuuu$$$>",
"p44pks6sss66==i=uuuuuuuugwgwttttddddg111w<<gf<<<uuuuuuuuuuuu$>$$",
"1g1gf$$$eeaauuuuX999%%%%qqqqqqqq@@@@uuuuuuuuuuuuuuuu9999@@@@3333",
"g1g1$f$feeeeuuuu99,X%jjjqqqqqqqq@@i@uuuuuuuuuuuuuuuu99,X@@@@3333",
"g1+1f$f$eeeeuuuu9XX9%jt%q5q5qqqq@@@@uuuuuuuuuuuuuuuu9X99@@@@3j3%",
"g11gf$f$eeeeuuuu9,X9%j%jqqqqqqqq@i@iuuuuuuuuuuuuuuuu9,XX@i@@3333",
"pppp666$X9X9uuuuuuuu****8:88X99Xuuuuuuuuuuuuuuuuuuuu>>>kuuuuaeae",
"p-p-6$>$XXXXuuuuuuuu****:8r:9X99uuuuuuuuuuuuuuuuuuuu>kk>uuuu;ee;",
"p-pp6$66X9X9uuuuuuuu****8r8:X9XXuuuuuuuuuuuuuuuuuuuu>k>kuuuuaeae",
"pp-p6>$6XXXXuuuuuuuu***7::8:X9X9uuuuuuuuuuuuuuuuuuuu>ks>uuuu;e;a"
};
