/* XPM */
static char *_0a8db2f22d24867e13a9a188f63ccf2_31[] = {
/* columns rows colors chars-per-pixel */
"64 48 64 1 ",
"  c #040204",
". c #D4860C",
"X c #ECCA4C",
"o c #B44204",
"O c #FCEEB4",
"+ c #C45E04",
"@ c #F4DE7C",
"# c #E4A61C",
"$ c #BC5604",
"% c #CC6E04",
"& c #F4E294",
"* c #DC9614",
"= c #F4D66C",
"- c #C46604",
"; c #E4B62C",
": c #BC4A04",
"> c #F4EAA4",
", c #DC9E14",
"< c #F4D264",
"1 c #F4E284",
"2 c #C45A04",
"3 c #CC6A04",
"4 c #ECBE3C",
"5 c #D48A0C",
"6 c #ECCE54",
"7 c #B44604",
"8 c #FCFEFC",
"9 c #C46204",
"0 c #F4DE84",
"q c #E4AA24",
"w c #BC5A04",
"e c #CC7604",
"r c #F4E694",
"t c #DC9A14",
"y c #F4DA74",
"u c #C46A04",
"i c #E4B634",
"p c #BC4E04",
"a c #FCEAA4",
"s c #DCA21C",
"d c None",
"f c black",
"g c black",
"h c black",
"j c black",
"k c black",
"l c black",
"z c black",
"x c black",
"c c black",
"v c black",
"b c black",
"n c black",
"m c black",
"M c black",
"N c black",
"B c black",
"V c black",
"C c black",
"Z c black",
"A c black",
"S c black",
"D c black",
"F c black",
/* pixels */
"                                oooo                            ",
"                                oooo                            ",
"                                oooo                            ",
"                                o7oo                            ",
"                                77777777        $w$w7777        ",
"                                77777777        w2w27777        ",
"                                77777777        $w2$7777        ",
"                                77777777        w2$w7777        ",
"                                7pp79+++7777777799992$$$        ",
"                                pp7pw+w+777777779-99$p$$        ",
"                                7pppw99+77:7:7:799-9$$$p        ",
"                                p7ppw9+w:777777:9999$$p2        ",
"        oooo                w+w+eeeew$$w++++--9-u3u3333u7p77    ",
"        oooo                +++weeeew$2$++w99-93-u3-u%u%p7pp    ",
"        oooo                w9+9eeee2$$$+9++-9-93-u3%u%3p7p7    ",
"        oooo                +w++ee.e$$2$+w++-939u3u-%3uupp7p    ",
"        7777uuuu5555    w+w+;;;;,,tt5.5.555.77772$$2uu3uuu%u    ",
"        ppppu%335555    ++9+;4;4tt,t5.5.5.55:7:7$$2$3u33%%u%    ",
"        ppppuuu%5555    w+w9;;;;,t,t5.5.5...77772$$$3uuu%u%u    ",
"        7p7pu%u35555    ++++;iii,t,t5.5.5555:7:7$$2$u33u%3u%    ",
"    oooowwww555533335555****,,,t4;i4aaaa@000...5qqqq.5.53u3u    ",
"    ooooww+w5555%u%u5555**5ttt,t;4;;aara011155.5qqqq5.5.3u3u    ",
"    oooow2w255553u3u5555****,t,ti;;;aa>a0100.5.5qqqq5.5.3u3u    ",
"    oooo$w2w5555%3u%5555*5t*t,t,4;4;aara00&1.5.5qqqq55.53u3u    ",
"    ,,,,pppp,,,,55553333,,,t,t,taa&a8888aaaatttt.555,,#,5.5.    ",
"    ,s,,p7ppt,t,555533u3,t,t,t,taaaa8888a>aa*t*t5.55s#,#..5.    ",
"    ,s,spppp,,,,5555%u%u,t,t,t,taara8888arartttt.5..#,s,5.5.    ",
"    ,#,,pp7p,t,t555533u3,t,t,t,ta>a>8888a>aat*tt.5.5,#,#..5.    ",
"7777****,sss5555;;;4t,,t,t,tii4iaa>aaaa>88880100;;;;##s#u33u    ",
"7777****,s,,55554;;;t,t,t,t,4;;;a>ar>>aa8888&011;;;;#s#s3uu3    ",
"7777****,,#,5555;;4;t,t,t,tti;4;aa>aa>ar888810104;;4##s#u3uu    ",
"7777**5*s,,#.555;4;;t#*,t,st4;;;aa&a>a>a8888&010;;;;#s#suu3u    ",
"666X888844444444yyyyXXXX4ii4*ttt0y008888888810&0....99--2$$$    ",
"6X<X888844444444@y0yXXX44;;;tt#*000088888888&010....9399$$2$    ",
"<X<X888844444444@y@yXXXXii;itttt00@088888888101&.5..3+-92$$$    ",
"X<X<888844444444@y0yXXXXq4;4*#t#y00@88888888&010..5.9399$$2$    ",
"ttt*rrrry@@@6666XXXX8888aa&aa&aa<<<<aaaaaaaa***t++++....2$$$    ",
"tttt&&&ryyyy66X6XX4X8888aaaaaaa><6<6>>>>>>>a*t**9+9+..5.2$$$    ",
"ttttrr&ryyyy6666XXXX8888a>a>a>&a6<6<aaaaaara****+++9....2$2$    ",
"tttt&r1ryyyy6X66XXXX8888a>&a>aa><6<<>r>r>a>>**t*9+++5.5.2$$$    ",
"5.5.88884444-u3-....aaa>aa>a8888a>>><6<<>rar;;;;OO>OOaOO;;;;    ",
"5.5588884444---3....a>a>a>a>8888aaa><6<6a>a>i;;;OOOOOOOa;4;i    ",
"5.5.88884444uu--5.5.aa>a&a>&8888a>>a6<<<>&ari4;4aO>O>O>Oi;;;    ",
"5.55888844i4u-u3.5.5aa>a>aaa8888a>a><6<6>a>a;;;;OOOOO>OO;i4;    ",
"&&&&@@@@@@@@ttttXXXXa>&a8888aaa>=<=<55558888OOOO0001iii;OOaO....",
"r&r&yy0yy0y@ttttXX4Xaaa>8888a>a>====55558888OaOa&101i;4;OO>O....",
"&&1r@y0y0y0yttttXXXXa>aa8888a>a>==y=55558888O>OO00104;;;OOOO..5.",
"r&&&@y0y0y0yttttX4XX&a>a8888a>a>===y55558888OOO>&101;;i;O>O>5..5"
};
