/* XPM */
static char *_0a8db2f22d24867e13a9a188f63ccf2_2[] = {
/* columns rows colors chars-per-pixel */
"64 48 64 1 ",
"  c #040204",
". c #D4820C",
"X c #ECC23C",
"o c #B44204",
"O c #C46204",
"+ c #DCA21C",
"@ c #FCEEB4",
"# c #CC7204",
"$ c #DC920C",
"% c #F4DE7C",
"& c #BC5204",
"* c #E4B22C",
"= c #ECCE54",
"- c #CC7A04",
"; c #D48A0C",
": c #C46A04",
"> c #E4AA1C",
", c #BC5A04",
"< c #ECCA4C",
"1 c #B44A04",
"2 c #FCF6DC",
"3 c #DC9A14",
"4 c #ECBA34",
"5 c #D47A04",
"6 c #ECC64C",
"7 c #F4E69C",
"8 c #DC8E0C",
"9 c #CC6A04",
"0 c #E4AE24",
"q c #C45A04",
"w c #BC4A04",
"e c #D47E04",
"r c #D4860C",
"t c #ECC244",
"y c #C46604",
"u c #E4A61C",
"i c #FCF2C4",
"p c #CC7604",
"a c #DC9214",
"s c #F4DE84",
"d c #BC5604",
"f c #E4B62C",
"g c #F4D264",
"h c #D48E0C",
"j c #E4AA24",
"k c #FCFEFC",
"l c #DC9E14",
"z c #ECBE3C",
"x c #CC6E04",
"c c #C45E04",
"v c #BC4E04",
"b c #D47E0C",
"n c None",
"m c black",
"M c black",
"N c black",
"B c black",
"V c black",
"C c black",
"Z c black",
"A c black",
"S c black",
"D c black",
"F c black",
/* pixels */
"                        &&&&dddd&&&&11111111v1v11111            ",
"                        &dddddd,ddddvvvvvvv1vvvv1w1w            ",
"                        &d&&,qdd&&&&111111v1vv1&1w11            ",
"                        &d&dddqddq&dvvvvv1v1&vvv11w1            ",
"        ooooooooo1o1cO,Opppprrrrppp5yyyyq,ccd,,dvv1v            ",
"        oooooooo111oOOOO-p-5rrrr5pppyyyycc,cdqdq1vv1            ",
"        ooooooooo1o1OOOOpppprrrrpp5p9y9yq,cq,dqdv1vv            ",
"        ooooooooo11wOO,O-ppprrrrp5ppyyyycc,cdqd,vv1v            ",
"    1&&1,,,,&&1ddd&dccOc-55-8h8h;;;8pp5p:9:9:xxxppppv1v1        ",
"    &&&&OOOcdd,d&d&dcccO--5ph8;8;8r;pppp9:9:x:x:ppppvvvv        ",
"    &&&&cccOdd&d&d&dcO,O5p-5;h8;;;;8pp-p9:9:xx:xppppv1&1        ",
"    1&&vcO,O&ddd&d&dccOc-5-5h8hh8r;;p5pp9:9:x:#xpp5pvvvv        ",
"    -pp-----OOOOdddd&d&&:9:9....3333ulu+e-.e----xxxx,c,,oooo    ",
"    pppp5p5-OOOOd&dd&d&d9:9:rrrr3l33ul++ee-e--5pxx:#c,Ocoooo    ",
"    p5pp---pOOOOdd&q&d&d9:x:r..r33l3u+ulb.-.-p--x##:Oc,coooo    ",
"    ppp5-5p5OOOOdd&d&q&&x:9:r.r.l333ul+u-e.-5-5-x:#x,cc,oooo    ",
"1o11$a$aztzt-.-.y9y9y9:9....hhh$fz4fzzzz****r..rppppx:xx1111    ",
"w1w1$3h3ztzt.-.eyOyy9:9:....h$$hzfzzzXzz***0r.r.ppppxx:#1v1v    ",
"1wowha$azXzX-.-.yy9O9:9:....h$h$fzzfXzzX*0**.r.rppppx:#:v1w1    ",
"11w1$3h3ztzt.-.-9yyy9:9:....hh$hzfzzzzzz****.r.rppppxx:x1v1w    ",
"vw1v++ul+j+>h$h$ppppx#x#----u+u+u+++*0*0hh8hppp#OyOy,c,c&dd&    ",
"v1&v+llu>>j>h3hh-pppx#:#-e-e+u+u+uu+*000hh$8p#ppOOOOq,q,d&&d    ",
"vv1v+ull+j+jhh3hp5#p####-5-e+u+u+u+u00*0h$hhppppOyOyq,c,&dd&    ",
"1vv1ulu+j>j>h3happppx#:#-e-5+u+u+u++*00*h8hap#ppOOOO,c,qd&d&    ",
"    ;;8;rrr;-p-5cOOO:9:x+u+u+ju>j>j>..-.yyy9OyOOOOOOddddv1v1    ",
"    ;8;8rrrr-5--OOcO:x:9+u+ju+>+j+j+....yy9OyO9OOOOOqdqdw1v1    ",
"    ;;8;r;r;-p5pOOOO:9:x+>++j+j+j>j>-.-.yyyyOyOyOOOOdd&dv1v1    ",
"    h8;hrrrr5-5-cOcO:9:x+uj+>u+>j+j>...ey9O9OO9OOOOOq&qdv1v1    ",
"oooo;h8hgggghah8#x#xX6X6kkkkj0jj....ffffkkkk6666zzz4kkkk#x#x    ",
"ooooh;8;gggghaha:###tXtXkkkkjjj>..-.f*f*kkkk<6664fzfkkkk#x#:    ",
"oooohh8hgggghhah##x:66X6kkkkjj>j....ff4*kkkk6<6<zzzzkkkk#:##    ",
"ooooh;h8gg=%h$ha#x##Xtttkkkkjjj>.-..f**4kkkk6666zfzzkkkk###:    ",
"::::f*4*3333pppp####h3h$sssskkkkzz4z***0=g=gX6XXzzzzf444=<==e--e",
"x:x:4***333$pppp#:##ah3$s%s%kkkkzfXf****====tX6Xzzzzf44f==g<b.e-",
":9:9**f*3333pp#p####h3$ass%skkkkzXzz*0**====ttX6zfzzf444==<=b-.e",
"x:x:f*4*33h3#pp###x#38h3%ssskkkkzzfX**0*=g<gXttXzzzzf4f4====be-.",
"oooox99:9:x:,,q,b-.-kkkkiiiijjjjllll,cccqqqq5-e-yyyy.-.b3333oooo",
"oooo:x:xx:xx,qd,eb-.kkkki@ii>jjjllllc,Oc,q,q---byyyy-..-3333oooo",
"oooo:#x:xx:9,dq,e-.ekkkkiii@jj>jll3lcccc,q,c-b--yyyy.-..3333oooo",
"oooo::xx:xx:q,qde.-bkkkkiiiij>jjll+3c,Oc,c,c--e-9y9ye.-.3333oooo",
":::#kkkkkkkk;;;;$h$akkkk%%%%iiii:yy:9::92222kkkku+u+***0@@@@kkkk",
"x#:xkkkkkkkk8;8;$hahkkkks%%%iiii::9:9:x:2222kkkku+u+00*0@@@@kkkk",
"x:#:kkkkkkkk;;r;$ah3kkkk%%s%ii2iy:y9:x:x2222kkkku+uu0*0*@7i7kkkk",
"xx:xkkkkkkkk8;8rh$a8kkkks%%siiiiy:9:9:9:2222kkkku+u+0*00@@@@kkkk",
"kkkk7777kkkkkkkkllll<<<68;r;d,,,111w1v1vh$$$;rrrxxx#OOOO+j+j&&&&",
"kkkk7777kkkkkkkklll366<6;;;;q,,q1w11v1v1$$h3.rrr##:#cOOOjj+j&&&&",
"kkkk7777kkkkkkkkllll<6<68;8;,c,c11w1v1v1h3hhrrrr#:##OO,O>+0>&&&&",
"kkkk7777kkkkkkkkll3+66<68;;8,q,q1w11v1vvhhah;rrr###:OOOO>>+j&&&&"
};
