/* XPM */
static char *_0a8db2f22d24867e13a9a188f63ccf2_26[] = {
/* columns rows colors chars-per-pixel */
"64 52 64 1 ",
"  c #040204",
". c #D4820C",
"X c #ECC23C",
"o c #B43E04",
"O c #C46204",
"+ c #DCA21C",
"@ c #BC5204",
"# c #CC7204",
"$ c #E4B22C",
"% c #DC920C",
"& c #FCFAE4",
"* c #F4D66C",
"= c #B44A04",
"- c #C46A04",
"; c #E4AA24",
": c #BC5A04",
"> c #D48A0C",
", c #ECD25C",
"< c #CC7A04",
"1 c #ECBA34",
"2 c #DC9A14",
"3 c #ECCA4C",
"4 c #B44604",
"5 c #E4A21C",
"6 c #E4B62C",
"7 c #BC4A04",
"8 c #CC6A04",
"9 c #C45A04",
"0 c #D4860C",
"q c #ECC644",
"w c #B44204",
"e c #C46604",
"r c #BC5604",
"t c #CC7604",
"y c #DC9214",
"u c #FCFEFC",
"i c #F4E28C",
"p c #E4AE24",
"a c #D48E0C",
"s c #D47E04",
"d c #DC9E14",
"f c #E4A61C",
"g c #E4B634",
"h c #BC4E04",
"j c #CC6E04",
"k c #C45E04",
"l c None",
"z c black",
"x c black",
"c c black",
"v c black",
"b c black",
"n c black",
"m c black",
"M c black",
"N c black",
"B c black",
"V c black",
"C c black",
"Z c black",
"A c black",
"S c black",
"D c black",
"F c black",
/* pixels */
"                                    4=4=h@=@h=@h=4=4            ",
"                                    =7=7@@@@@@@h=7=7            ",
"                                    4=74@@@@=@h@=474            ",
"                                    =74=@=@@@@h@=7==            ",
"            wwwwwwww        ====9::9-8-8jj-j:::9=474            ",
"            wwwwwwww        =77=kkk:j-j--j-j:k9:7==7            ",
"            wwwwwwww        =7=h:9:k-8-jjj-#9::k=74=            ",
"            wwwww4ww        =h=7:kk:j-8-j-#-k:k:747=            ",
"                        ===hkkkkj-j8###j--8e:9r9==7=====        ",
"                        =h=h:k:O-j-j-#-#e8e8r9rr7=h=7=7=        ",
"                        =h=hkOkkj-j-####e-8er:9rh=7=7==7        ",
"                        =h=h:k:k-jjjj#-#e8e8r9r:7=h==7==        ",
"                        wwww@h@@::r::kk:9r:9rrr9kkkk:9r9wwww    ",
"                        owwo=@=@r99:k:kkr9rrr9@rk:kkrr9rwwww    ",
"                        wwww@=@h::9rk9:kr:9r9@rrkk:O:9r:wwww    ",
"                        owow=@@h:9r:9:kkr9rrrr9@kkOkrr9r4w4w    ",
"    wwww==h==7======4=4=ooow    44449:::sts<%>>%tttt<ttt----    ",
"    wwww=hhhh=hh=7=7=7==owoo    4444:9r9<<<t>%>>t<tttstt8-8e    ",
"    wwww=h=h=h7=7=7=7474oooo    4447r9:rstss>%>%tttstttt-8e-    ",
"    wwww=@h=h=hh===7==7=owoo    4444:r9:st<ty>>%tttttttse-8-    ",
"    r:r::r9:@@h@@@@@h7=h=@==O:k:ssss0000;p;ppppp2522....jj-j    ",
"    :::9r9r9h=@=r@@@=hh=@@@@:Okk<s<s>0>0p;p;ppp$2252....-j-#    ",
"    r9r9:r9r@@@@@@@@h=hh=@=@:k:Os.<.0000p;p;$p$p222d....-#j-    ",
"    ::9:9r:r@=@h@@@@hh=@h@=@:Okk<.<s>0>0p;p;ppp$2dd2....#-#-    ",
"    wwww4=7444w4==7=h=@=rrrrt#t#a%ay6$6$5+++f+f+yyyy----@@@r    ",
"    wwww44=4wwww=7==h@=@@r@r###taya%$6$1+5f+f+f+2ayaj8-j@@@@    ",
"    wwww=747w4w4==7=h=@h@r@r#t##%a%a6$1$5+5+f+;+yya2-8-8@@@@    ",
"    wwww44=4wwww=7==h@=hr@9@###ta%ay6$$$f+f+f+;+2a2%-8--r@@@    ",
"        -88-======7=eeee9rr9ee8epppp3333uuuuiiii1g1g>>>>....    ",
"        -8-844474747e8ee9r9re8Oepppp33q3uuuuiiii1g11>>>>....    ",
"        -8-8=74=7===ee8O:9r9eee8;ppp3333uuuuiiii11gg>0>0....    ",
"        -8-84=4=4747eOe8rr:r8Oeepppp3333uuuuiiii1g11>>>>....    ",
"        s.s.,***;p;p8-8e9:9rOOOO####p;$;iiii****1$6$pppp...<eOOO",
"        <..<**,*;p;pe-8e:9:9OeOe####ppppiiii****g$1$p$pp....OOOO",
"        ..<0,**,p;p;-8e8:9r:OOOO####p$;piiii****g$$1ppp$.<..OeOe",
"        <...*,**p;p;----9r:9OeOe####ppppii*i****61$$pppp....OOOO",
"        .0..XXXX,,,,tttt@h@h#j#jaaaayayy.0005d++1$16uuuu6$$$    ",
"        ....XXXX,,3,tstshh@h#-##a%>%ayay00005d5dg616uuuu$$$$    ",
"        ..0.XXXX3,*,tttt@h@=###-%>>>yaya00005d+d1661uuuu1$$$    ",
"        ....XgqX,,3*#stshh@@#-##>%>%ayay00>05d+561g1uuuu$$$$    ",
"2222ggggaaaaXXXXuuuuuuuu5++5%%%a8-8-kOkOkkkk@@@@t##t1111uuuutttt",
"2222g111aaaaXXgquuuuuuuuf+f+%2a2-8-8OOOOkOkO@r@@tttt1gXguuuusttt",
"22221111a%>%XXXXuuuuuuuu5+5+%2a2e8-8OkOkkkk:r@@rtt#t1gg1uuuuttts",
"2222g11gaa>>Xgqguuuuuuuuf+f+a2ay-8--OOOOkO:O@r@@tttt1Xg1uuuutstt",
":9r:tttt>>>>uuuuuuuuuuuuuuuup;;pkkk9@@r@ww4wt#t#uuuuuuuuuuuu522d",
"r:9rt#tt>>0>uuuuuuuuuuuuuuuu;;;;:k:krr@rwwww#t#tuuuuuuuuuuuudddd",
"9r9rt#t#>>>>uuuuuuuuuuuuuuuup;p;kkkk@r@rwwww#t#tuuuuuuuuuuuud252",
"r9r9#t#t0>0>uuuuuuuuuuuuuuuu;;;p:k:kr@9@wwww#t#tuuuuuuuuuuuu522d",
"9:9:=7==OOOO%yy%uuuuuuuu****uuuuuuuuuuuu3333uuuuqqqq&&&&uuuuOOeO",
":9:9==7=OOOO%%ayuuuuuuuu****uuuuuuuuuuuu3q33uuuuqqqq&&&&uuuueOOO",
"9:9:7==7OOOO%ay%uuuuuuuu****uuuuuuuuuuuu3333uuuuqqqq&&&&uuuuOOeO",
":9:9=7==OOOO%yayuuuuuuuu****uuuuuuuuuuuu3333uuuuqqqq&&&&uuuueOOO"
};
