/* XPM */
static char *_0a8db2f22d24867e13a9a188f63ccf2_23[] = {
/* columns rows colors chars-per-pixel */
"64 56 64 1 ",
"  c #040204",
". c #D4820C",
"X c #ECC23C",
"o c #B43E04",
"O c #C46204",
"+ c #DCA21C",
"@ c #FCEEB4",
"# c #F4D66C",
"$ c #BC5204",
"% c #CC7204",
"& c #DC920C",
"* c #ECCE5C",
"= c #E4B22C",
"- c #BC4A04",
"; c #BC5A04",
": c #D48A0C",
"> c #ECCA4C",
", c #CC6A04",
"< c #F4E284",
"1 c #CC7A04",
"2 c #B44604",
"3 c #E4AA24",
"4 c #FCFEFC",
"5 c #DC9A14",
"6 c #ECBE34",
"7 c #C45A04",
"8 c #D4860C",
"9 c #ECC64C",
"0 c #B44204",
"q c #C46604",
"w c #FCF2CC",
"e c #F4DE84",
"r c #BC5604",
"t c #CC7604",
"y c #DC9614",
"u c #F4D264",
"i c #E4B62C",
"p c #BC4E04",
"a c #D48E0C",
"s c #ECCA54",
"d c #CC6E04",
"f c #F4E694",
"g c #D47E04",
"h c #E4AE24",
"j c #C45E04",
"k c None",
"l c black",
"z c black",
"x c black",
"c c black",
"v c black",
"b c black",
"n c black",
"m c black",
"M c black",
"N c black",
"B c black",
"V c black",
"C c black",
"Z c black",
"A c black",
"S c black",
"D c black",
"F c black",
/* pixels */
"                                oooo                            ",
"                                oooo                            ",
"                                oooo                            ",
"                                o0oo                            ",
"                                                                ",
"                                                                ",
"                                                                ",
"                                                                ",
"                                                oooo            ",
"                                                o00o            ",
"                                                o0o0            ",
"                                                o0o0            ",
"            22220202            oooop2pp;;;;,qdqO;;;$ppp        ",
"            22222220            o00o2$pp;77;dddd;OO;$ppp        ",
"            22220222            o0o0$2pp;;7;,qdd;O;Opppp        ",
"            22222020            o0o02$2p;;7;dddqOjjj$p$p        ",
"        2222;j7;qqqq2p22    2222qqqq111188.81...%%%%;;;;0000    ",
"        2222j;jjq,q,2ppp    2222dd%q.1118888.1.1t%%%;r;r2220    ",
"        2222jj;jqqqq-2p2    2222dqq%111g8.8.....%%%%;;;70020    ",
"        2222j;Ojq,Oqp2p2    2222ddqd111188881.1.%%%%;r7;2020    ",
"        rrrrqqqqqq,qr;;rr$$r1g1.5555=====i=i8888OqOqrr$ro0o0    ",
"        $rrr,q,O,qqq7rr7$r$rg1.15555==h=iiii.8.8OqOq$rrro0o0    ",
"        rrr$qqqqqq,qr7rr$r$rg1g15555h====i=i.8.8OqOqrr$ro0o0    ",
"        $rrr,O,q,qqqrrr7$r$rg1g155y5==h=iiii.8.8OqOq$r7$0o0o    ",
"        r$r$$r$$pppp$$$$%%%%&ay&++++5+++&&&&gt11qqqqgt11ddq%    ",
"        rrrr$r$rpp$pr$r$t%t%&yay++5++++5&&:&tg1gqq,q1gtgd%%d    ",
"        $r$7$r$rpppp$$$$%%%ta&&a++++++++&&&&tgt1,Oqqtgt1ddq%    ",
"        rr$r$7$$$p$pr$r$t%%%&ay&++++5++5&&:&t1gtqq,Ogtg1d%%%    ",
"    ;;j;qqqq7;7700000000$r$rqqqqt%t%gggg%%%%t%t%y&&y::::%%%d    ",
"    jj;jqO,O77;j02020202$$$$q,q,t%t%gtgt%t%tttttyyyy::::%%%%    ",
"    ;j;jqqOq7;j;00000000r$r$qqqqt%t%gttg%%t%tt%t&yay:&::%%d%    ",
"    ;jj;qqqq77;j02020200$$$rq,q,%t%%gtgtt%t%ttttyyyy::::%%%d    ",
"OOOO%%t%gtgt11g1t1t11111;;;7p$$pr77$gggguuuu4444====XXXX99>9....",
"OOqO%%%%tgtg1gtgt1t11g1g;7;;p$p$r$rrg1g1u*u*4444====XXXX9s9>....",
"qOOq%%%%1tttgt11tgttg1g17;7r$p$prrr71g1guu*#4444====XXXX9>9>....",
"OOOO%%%%1gtgtg1gtttg1g1g;7r;p$p$rrrrg1g1uu#*4444====XXXX99>9....",
"-p2p+5++....,qd,tgttd,ddtttt5555wwwwuu#u44444444@@@@i=i==33h$$$$",
"2pp2+++58888ddqdtttgqdqdtttt5y5ywwww*#uu44444444@@@@iiii3h3hp$p$",
"p2pp5+++....qdddt1ttdddqtttt5555wwww#*#*44444444@@@@=iii3h3h$$$$",
"p2p2++5+8888ddqd1tgt,qddtttt5y55wwww##*#44444444@@@@iii633h3$p$p",
"    jOOj7;;;$$$$qqqqdddq%%d%3333uu#u4444####ffff****g..g,ddd;;;;",
"    ;Ojj;77;$p$$qq,Odqdd%d%dh3h3u*#*4444####ffffu***g...qddq;;;7",
"    jj;O7;j;$$$pqqqqddqd%d%d333hu*#u4444####ff<fsu**.g1gdddd;7;7",
"    ;OOj;j;7$$$$qq,Oqdddd%d%3h33u#*#4444####fffeu***.g..ddq%;;7;",
"    ;;r;ee<ej;;jOjjO66i6%%%%11114444444444444444444499994444pppp",
"    r7r7eeeejOjjOjOj6iXi%%qtt1t14444444444444444444499994444pppp",
"    r;7re<e<j;O;OO;O666Xd%%%11gt4444444444444444444499994444pp2p",
"    r7r7eeeejjjjOjOOiXi6d%%%t1tg4444444444444444444499X>4444pppp",
"    ;7;7*uuu44444444&aay%%%%....1gg1uuuu44444444@@@@4444iiii4444",
"    ;7;j*uu*44444444&yaat%%%....111g*#*#44444444@@@@4444iiii4444",
"    ;j;7uuuu44444444&ayy%%%%18..1g1gu*#*44444444@@@@4444ii=i4444",
"    ;7;;uu*u44444444&yayd%%%818.1111u*#*44444444@@@@4444ii6=4444",
"    $rrriiii4444444455+5rrrriii=ffffs*>>&&a&u*u*eeee44444444-2-2",
"    $r$$i=ii44444444+555$r$r==i=ffffs>>s&:&:*s**<<<<44444444222-",
"    $r$r=i=i444444445555rrrr=i=iffffsss>&:a&su*><ee<44444444-222",
"    $r$7==i=4444444455+57$$r=i=iffffss>s:&:&s***<e<e444444442-2-"
};
