/* XPM */
static char *_0a8db2f22d24867e13a9a188f63ccf2_3[] = {
/* columns rows colors chars-per-pixel */
"64 52 64 1 ",
"  c #040204",
". c #D4820C",
"X c #ECC244",
"o c #B43E04",
"O c #C46204",
"+ c #DCA21C",
"@ c #FCEEB4",
"# c #DC920C",
"$ c #BC5204",
"% c #F4D664",
"& c #CC7204",
"* c #E4B22C",
"= c #B44A04",
"- c #DC9A14",
"; c #D48A0C",
": c #F4D25C",
"> c #C46A04",
", c #E4AA24",
"< c #BC5A04",
"1 c #F4E694",
"2 c #ECCA4C",
"3 c #FCFEFC",
"4 c #CC7A04",
"5 c #B44604",
"6 c #E4A21C",
"7 c #FCF6CC",
"8 c #DC9614",
"9 c #F4DE7C",
"0 c #ECBA34",
"q c #BC4A04",
"w c #DC9E14",
"e c #DC8E0C",
"r c #CC6A04",
"t c #C45A04",
"y c #D4860C",
"u c #ECC644",
"i c #B44204",
"p c #C46604",
"a c #FCF2CC",
"s c #DC9214",
"d c #BC5604",
"f c #F4DA7C",
"g c #CC7604",
"h c #E4B634",
"j c #D48E0C",
"k c #E4AE24",
"l c #F4E69C",
"z c #ECCA54",
"x c #D47E04",
"c c #E4A61C",
"v c #BC4E04",
"b c #DC9E1C",
"n c #CC6E04",
"m c #C45E04",
"M c None",
"N c black",
"B c black",
"V c black",
"C c black",
"Z c black",
"A c black",
"S c black",
"D c black",
"F c black",
/* pixels */
"                        i5i555555555iiiiiiiiiiiioooo            ",
"                        55555===5555iiiiiiiiiiiioooo            ",
"                        i5i5=q5q5q5=iiiiiiiiiiiioooo            ",
"                        555555=55555iiiiiiiii5i5oioo            ",
"                    =$$=pOOrn&n&pprO<<<d=$=$====5iii            ",
"                    $$$$pOpOn&>&pOpptd<<$$$=$=$=5i5i            ",
"                    $$$$OpOpn&&nppOp<t<t=$$$=v=$iiii            ",
"                    =$$$OpOr>&>&pppOtd<t$v=$v=$=5i5i            ",
"    iiii=$=$========ddddrr>r4x44xggxprppmmOm<OmmOOOOiiii        ",
"    iiii$$$=q=q=q=q=t$d$>n>n44x4ggx&pprpm<mmmm<OOOOOiiii        ",
"    iiii=$$$===q==q=$dddr>r>x4x4xgg4rpr>mO<O<Om<OOOOi5ii        ",
"    iiii$=$=v=q=q==qd$ddr>n>x44xggxgrp>r<mmmmmmOOOOOii5i        ",
"    <O<Op>ppddddvqv=vvvvOmOm&g&&yyyy;;ey&&&&>>>rOOOO$$$$        ",
"    OOOOpppptdt$v=v=v=v=OmOmggggyyyy;ey;n>&>nr>>O<OO$=$$        ",
"    <O<Opppr$dddv=vv=v=vOmOmggggy;y;;;;;&&&&>rr>OOOO$$$$        ",
"    OOOmppppdt$dvv=$v=$v<OOmgg&gyyyyeye;n&>&>>r>OO<O$$=$        ",
"    4444ww-6rnnn<t<t<O<m&&n&4..x6+6w6+6+-8-8ggg&rpr><<O<iooo    ",
"    4xgx-ww-n>&n<t<t<mm<&n&&..4.bw6+c+c+-88-g&ggprp>mOm<iiio    ",
"    g4xgbw6-&&n>m<t<m<mm&n&>....+w+6+c+c8888ggg&rprpmm<Oiooi    ",
"    4xg46--wn>&&<t<tmm<m&>&&4.4.w6wwc+c+-8-8ggggrp>rmmm<iioi    ",
"    yy;ysjsj..4.>>r>pppO&&n&jj#j##8#----....>rr>t<t<$$$d5555    ",
"    y;y;#s8#...4r>>rOOpOn>&nj#je8j8#w-w-....>>r>t<t<$$$$5=55    ",
"    y;y;#jsj.4..>rp>OpOp&&>&jej#j8#jb--w....>n>n<t<t$$$$55=5    ",
"    y;y;s#8j...4>>r>OrOOnn&njsje8s88----....>>r>t<t<$$$$=q55    ",
"    g4gxg444n>&>mt<tOOOOjjjj#sj8j8j8ggggOO<O<m<mdddtq=vviiii    ",
"    gxggx4x4n>&>m<t<OOOOe;e;sj8s8888ggggO<pO<t<t<dtd=vv=iiii    ",
"    ggg4xg4x>&n>m<m<OOOOjejej8j8j8j8ggggOOmm<m<tddddvv=viiii    ",
"    g4xggxg4n>&n<m<tOOOOj;ejs#sj-88#ggggmOmO<t<mdtdt=vv=5iii    ",
"    4ggx,*,kxx4.pp>pc+6+::z:----g444w6bw3333,,,,wwww1111m<O<    ",
"    4xg4,kk*4.x4rprp6+c+::%z-88-44gx-bw63333,,c,ww6b1111mOmm    ",
"    gg44*,,kx4.xppppc+6+:z%%8-8-g4xgb6-w3333,,c,wbw61l11mmm<    ",
"    44xg,kk,4.4x>prp+6+c:::z-8-84gg4bww63333,,c,+wwb111lmmOO    ",
"$=$$8s88y;y;nnn>r>>r;;y;uXzz3333,,,,6+6b000h****kkkkcccc,c,+<m<t",
"$$$$8888y;y;>n>&>r>>y;y;uXXX3333,,,,++6+h0h0****kkkkcccc,+,,<m<m",
"$$v$8888y;y;n>&n>>r>eyy;uuuu3333,,,,+++6h0h0****kk,k+,+,,,,,<mm<",
"$$$$8888y;y;nn>n>r>>y;y;Xuuz3333,,,,+6+6h00h***kkkkk,+,+,+,+m<mt",
"    OOOOpOpOdddd&&&&ffff%%%%b6+6j8j#<Omm<O<Og&ggpppO4444y;y;    ",
"    OOpOpOpOd$dd&g&gf9%9:%:%++6+8j8jOm<Om<m<&&&&ppppgxggyyyy    ",
"    OOOOpOpOt$dt&&&&f9ff%%%z+++6j8j8m<Om<mmm&g&gpOppggxgyyyy    ",
"    OpOOpOpOdd$$&&g&f%9f:%%f+6++8##jOmm<m<t<g&&&ppOrgggx.yyy    ",
"ddd<33333333....yyy;3333zzzzz2z2ppppOpOpuuuX1ll1##ej--88uuuXaaa7",
"t<td33333333....;yyy3333zzuz2z2zrOppOOOOXXuXlllls#js-8-8uuuu77a7",
"dtdt33333333....y;ye33332zz2zzz2OpppOpOpuXuullll#s#j-8-8uuXua7a7",
"<dtd33333333....yyyy3333z22z2z2zrOrOOOOOuXuXllll##js-8-8uuuua7a7",
"aaaa9999@@@@11118##8****ey;ytttt5q5qvvvv.y.y....nnn>OOOO8888====",
"aa7a9999@@@@1111888#***kyy;;t<m<q===v=v=y.y....xn>nnOOOO8888=q=q",
"7aaa9999@@@llll1#888k***eyy;t<t<=q5q=vvvy.y..x..nn>nOOOO-8-8=q=q",
"aa7a9f9f@@@@ll1l#88#*k**yyey<m<m==q=v=v=y.y....4n>n>pOOO888-==q=",
"XXXX2zzz;;;;**k*0h003333****vvvv888-3333m<O<>pp>mmOmhhhh<<<<    ",
"XX0X22z2;;;;****000h3333**k*vv=v--8-3333OOmOp>pr<m<Oh0h0<m<m    ",
"XXXX22z2ey;ek***00X03333****vvvv-8-83333mm<OprppmOmmh0*hm<m<    ",
"X0XX22z2ey;;****00h03333****vv=$8-8-3333OmOmppprm<mm*h0hm<t<    "
};
