/* XPM */
static char *_0a8db2f22d24867e13a9a188f63ccf2_7[] = {
/* columns rows colors chars-per-pixel */
"64 60 64 1 ",
"  c #040204",
". c #D4820C",
"X c #B43E04",
"o c #C46204",
"O c #ECC244",
"+ c #BC5204",
"@ c #CC7204",
"# c #DC9614",
"$ c #B44A04",
"% c #FCFAE4",
"& c #C46A04",
"* c #BC5A04",
"= c #DC920C",
"- c #CC7A04",
"; c #D48A0C",
": c #B44604",
"> c #ECCA54",
", c #E4A61C",
"< c #BC4A04",
"1 c #FCFEFC",
"2 c #CC6A04",
"3 c #C45A04",
"4 c #D4860C",
"5 c #B44204",
"6 c #C46604",
"7 c #BC5604",
"8 c #CC7604",
"9 c #DC9A14",
"0 c #FCFAEC",
"q c #D47E04",
"w c #ECCE54",
"e c #BC4E04",
"r c #CC6E04",
"t c #C45E04",
"y c None",
"u c black",
"i c black",
"p c black",
"a c black",
"s c black",
"d c black",
"f c black",
"g c black",
"h c black",
"j c black",
"k c black",
"l c black",
"z c black",
"x c black",
"c c black",
"v c black",
"b c black",
"n c black",
"m c black",
"M c black",
"N c black",
"B c black",
"V c black",
"C c black",
"Z c black",
"A c black",
"S c black",
"D c black",
"F c black",
/* pixels */
"                            55555555                            ",
"                            5:::5555                            ",
"                            5:55:5:5                            ",
"                            5:5:5555                            ",
"                            ::::$$+$$$$$5555                    ",
"                            :$:$ee$e$e<$5555                    ",
"                            ::<:e$+e$<$e5555                    ",
"                            ::::ee$e$e$<5555                    ",
"        :$:$XXXX        5555eeee**3*3*3*++++::::                ",
"        $<$:XXXX        5555$$e$3*3*3*3*++++::::                ",
"        :$<$X5XX        5555$ee$3*73*3*3+7+7::::                ",
"        $<:$XX5X        5555$e$+*3**3*3*++++::::                ",
"    5555+e++$$$$5X5X    ::::777+3*3*tttt+7+7::::                ",
"    5::5+++e$$$$5555    ::::+7+73*3*t3*t++++::::                ",
"    5:5:+$++e<$e55X5    ::::+7+73*t*ttt*7+7+::::                ",
"    5:5:++++$$e$555X    ::::+3++t*3*t*tt+++7::<5                ",
"    X5X5$e$e::::XXXX5X5X$+ee77773*3*++e+::::                    ",
"    X5X5$e$e:<:$XX5X5555+$+e73773*3*+e+e::::                    ",
"    X5X5$e$e::<:XXXX55X5$+$+7773*3*3+e+e::::                    ",
"    X5X5$$e<$:::5X5X5555+$+e7*373*3*+e+e::::                    ",
"    X5X57777<e$e::::77776666t3*t777+t*t*rr2r7*7*++++7777        ",
"    X5X57777e$e$:5:577776666t*t*7++73*tt&r&r*3*3++++7777        ",
"    X5X57777e$e$::::77776666tttt7+7+tt*t&r&r7*37++++773+        ",
"    X5X57777e$e$::5:77776626t**t7+3+3*t3&r2&3*73+7+777+7        ",
"    $$$:++++<$<$<$$$****@@@@.44.&26&&26&rr@r&rr&&&&6ttot$$$$    ",
"    :$$$++++$e$e$<$<*373@@@@....&&262626@r&@@&@r&2&2tttt<<<$    ",
"    $:$:++++$<$<$$<$*3**@@@@..4.&26&626&r@@&@r&@&26&toto$$e$    ",
"    $$<$++++$e$e$<$<*737@@@@....&62&2626r&@r&@rr6&2&tttt$e$<    ",
"        5:5:555X$e$errr@----@@@@o6o6e++++e+e7777++++7777$<$$    ",
"        5:5:X555$+e$@r&@qq-q@@@@o6o6++e+$+$+7+7+++++++++<:$<    ",
"        5:5:5X55$e$e@&@r-q-q@&@@o6o6e++++e+e7777++++777+$<:$    ",
"        5:5:5555$ee$@@r@-q--@@@@o6o6+++$+$+$77+7++++++3+<$<:    ",
"    8888;;;;7777**t*....-q-q@@@@$+ee$$$<oooo2&22*3*3*37*3*t*    ",
"    888-;;;;*77*3*t*..-.-.-q@@&@+eee$<$$tttt&26&37*37*3*3t*t    ",
"    8888=;=;7777t*3*....-q-.@@@@$+$+$$<$ooot&626*37*3*37t*t*    ",
"    8q88;;;;37373*t*....-.--@@@@+e+e$<$<ttot&2&2*3*37*73*t3*    ",
"$$$<....====q...6&26r&&@6666e$$e    X5X57777***7++++eeee7777    ",
"<<$<..4.;=;;..-.&266r@rr6666<ee$    X5X57+7+373*++++e+$+7737    ",
"$e$$4..4=;#=....662&rr&r6o66<$e$    X5X57777*3*3++++e$++7777    ",
"<$e<....==;=....6&26rrrr66o6e$e<    X5X5+7+77*37++++e+ee73+7    ",
"::::----&@@@88884.4.>>>>@r@r5555+$+$&666$$$$<:::::::*77*        ",
"::::q8-q@@@@88884444>>>>@r@@5:55++++66&6$:$<::::$:$:7377        ",
"::::8q88@@&@8888.4.4>>>>@&@&:55:$+$+6666$$<:::$::::<7777        ",
":<::q8q8@@@@88884444>>>>@@@@555:+++$&&6&<:$<::<:$<::7377        ",
"::<:oooo7777$$$$oooo622o2666o6oo$e$+<e<e            55:5++++**t*",
"::::6o663+73:<<$oooo66o6666&ooo6e$ee$e$$            5555++++tt*t",
"<:<:o2oo73+7<$$<o6o666262626oooo$+e$e$ee            5:5:++++*tt*",
":::<ooo67777$<$$oooo66666662oo6oe$ee$e<$            5555++++t*tt",
"####r@rr8@88###9####-qqq<<$<555:&r&r44;4++++    :::$8888oooo    ",
"9#9#&@&@888@9####=##-q--$e$$:555rrr&;444++++    :$$:888@o*oo    ",
"###9@r@r@888##9=##=#--.q$<e$5:5:&&r244;47+7+    :$<:8@88oooo    ",
"9#9#&@&@8@8@9##9=###.--q$e$<5555&r&r4444++++    :::$888@oo*o    ",
"&&&r1111,,,,OOOO1111@@@@44;411110000;4;4***7-88-oooo3+377777    ",
"r2&21111,,,,OOOO1111@&@@444;11110000;4443737q8-8oooo77+73737    ",
"&r&r1111,,9,OOOO1111@@@&;;4411110000;4;4373788q8oooo3+3+7+77    ",
"2&2&1111,,9,OOOO1111@&@@44;411111000;44437738-88oooo7777373+    ",
"*3*31111%%0%8888662o-q--wwww1111111111111111qqq.rrr2##9#<$<$    ",
"3*3*1111%%%%8888ooooq8q-w>ww1111111111111111.-.-r&r&99#9<$ee    ",
"*3*31111%%%%@88866o6--q8wwww1111111111111111.q.-@r&r9#9#$e$<    ",
"3*3*1111%%%%8888o6o6q8-q>>ww1111111111111111q-..&rr&9#99$ee$    "
};
