/* XPM */
static char *_0a8db2f22d24867e13a9a188f63ccf2_20[] = {
/* columns rows colors chars-per-pixel */
"64 52 64 1 ",
"  c #040204",
". c #D4820C",
"X c #ECC244",
"o c #B44204",
"O c #C46204",
"+ c #E4A21C",
"@ c #FCEAA4",
"# c #CC7204",
"$ c #F4D66C",
"% c #BC5204",
"& c #E4B22C",
"* c #DC920C",
"= c #FCFAE4",
"- c #CC7A04",
"; c #ECCA4C",
": c #B44A04",
"> c #C46A04",
", c #ECBA34",
"< c #DC9A14",
"1 c #E4AA24",
"2 c #FCF2CC",
"3 c #F4DE84",
"4 c #C45A04",
"5 c #D47A04",
"6 c #D48E0C",
"7 c #FCEEAC",
"8 c #E4B62C",
"9 c #ECCE5C",
"0 c #BC4A04",
"q c #CC6A04",
"w c #DC9E14",
"e c #D47E04",
"r c #D4860C",
"t c #ECC644",
"y c #B44604",
"u c #C46604",
"i c #E4A61C",
"p c #FCEAAC",
"a c #CC7604",
"s c #F4DA74",
"d c #BC5604",
"f c #DC9614",
"g c #FCFEFC",
"h c #ECCE54",
"j c #ECBE3C",
"k c #E4AE24",
"l c #F4E28C",
"z c #C45E04",
"x c #E4B634",
"c c #BC4E04",
"v c #CC6E04",
"b c #DC9E1C",
"n c #D47E0C",
"m c None",
"M c black",
"N c black",
"B c black",
"V c black",
"C c black",
"Z c black",
"A c black",
"S c black",
"D c black",
"F c black",
/* pixels */
"                            ooooyyyy                            ",
"                            oooo:::y                            ",
"                            ooyoyy0y                            ",
"                            oooy:y:y                            ",
"                        oooodzdduOOOdzdd::::                    ",
"                        oooodzdzOOuOzdzz:0:0                    ",
"                        oooodzdzOOOOzzdz::0:                    ",
"                        oooodzdduOuOdzzd:0::                    ",
"                            %%d%zzzzdzdz:cc:                    ",
"                            %%%%zzdOdzdz:c:c                    ",
"                            %%%%zzzzdzdz:cc:                    ",
"                            %%%%zdzzdzdz:c:%                    ",
"        y:y:yyyy        ooooy:y:%%%%:%:c:::yyyyy:c::            ",
"        :0:0yyyy        oooyy:y:c%%%:c:c:0y0yyyyc:cc            ",
"        y:0yyyyy        oooo:y0y%%%%:%c::y:yyyyycc:c            ",
"        :0y:y:yy        oyoo:y:y%%:%c:cc:0y0yyyyc:c:            ",
"        %%%%44zdzzzzzzzO:%%:%ccc%%d%:%:cc:c:d4ddvvv>a###%%%%    ",
"        %%%%zdzzzzzzOOzO%%:%:c:%%%%%:%c:%c%cdd4dq>vqa#aa%%%%    ",
"        %%%%dzdzzzzdOzOz%:d%c%::d%%%:%:%:%:%ddddv>v>a#a#%%%%    ",
"        %%%%zzzdzdOOOzOz%%c%:%c%%%%%:%cc:%:%d4ddvv>v#a#a%%%%    ",
"    yyyyOOOO>>#>>>>>ddzd::c:0:::OOOO.-..<<<<h9h$f<<<5-n-OOOO    ",
"    yyyyOOOO#v>#>>>>dzdz:c:c:00:OzOO-.-.<<<<$hhh<f<<-n-eOuOO    ",
"    yyyyOOOOvvvv>q>qdzdz:cc:0:0:OOOO-..-<<<<hh99<<f<e-n-uOOO    ",
"    yyyyOOOO>v>#uquqdzdz:c:c:0:0OzOO.-..<<<<h$h9<<<<5-n-OuOO    ",
"    :0:0>q>q<<<<,x,x####:0:0uuuutXtXhh;hssssXXXX1111..-.a#aa    ",
"    :0:0>q>v<<<<8,xj#>#>c:c:>quutXtX;h;h$s$sXXtXk111.-r.#a##    ",
"    :0:c>v>q<<f<,x,8####:0:0uuqutXtt;99;ssssXXXX1kik..-.a#aa    ",
"    :c:0>q>q<<<<x,xj>#>#:c:cuuuutXtX9;9;s$s$tXtXikk1-..-aa##    ",
"    d4d4rrrrfff<wwwwe-e-aaaa3333gggggggggggg8888..-.a#aaOOuO    ",
"    d4d4rrrr<<f<<<w<5-5eaaaa3333gggggggggggg,8,8e...####uOOO    ",
"    d4dzr.r.f<f<<w<b5--5aaaa3333gggggggggggg,&x,-.-.#a##OOuO    ",
"    dzd4rrrr<*<<<+<<e-n-aa5al333ggggggggggggx,&8....##a#uOOO    ",
"    zdzz....>v>vzzOz>quq&kk&llllllll$$$$,,,,b++br...ssss@@@@:%%:",
"    dOdz....>vv>OzOzuuquk&&klllllll@$$$$xjxjiwii....ss$slp@@%%%%",
"    zzzd....>v>vzOzO>qu>k&k&lll@llll$9$$8j8xiibi.r.rssssp@@l%%%%",
"    dzzz....>vq>OzOzuuqu&k&kl@llllll$$$$8,j8ibiwr...$sss@lpp:d:%",
"    XXjXwiwi66f*%%%%ccccOOOO555e***6+www<ff<wwwwgggghh9hxxxx:yyy",
"    jXXXiiiif6*6%%:%%:%:uOOO---56r66<wwwffffwwbwgggg9999x8x8yyyy",
"    XXjjiw1wf6*6%%%%:%%%OOOO5-5-666r++wbff*6wb<bgggg$h$h8x8xyyoy",
"    jXjtwkw16f6f%%%%%c:%OOOO-5-566r*<b+wff<<wwwbggggh9h9,,8,oyyy",
"gggg&&&88888;;;;9hh9====eeeeuuuuOqOqkkk&gggggggg2222gggggggggggg",
"gggg&&&&&88&;;;;999h====5-.->quqOqOqkkkkgggggggg2222gggggggggggg",
"gggg&&&&8&8&;;;;9h$h==2=ee-.uOuuuqOukk&kgggggggg2222gggggggggggg",
"gggg&&&&8&8&;;;;99hh====5-.euquqOuuqkkk&gggggggg2222gggggggggggg",
"*6*6ggggjjjj-n5niiiir.rrkkkkggggggggggggggggggggggggllll7777....",
"6666ggggjjxj---ni1iirrrrkkkkggggggggggggggggggggggggllllpppp-.ee",
"6666ggggjjjj-.n-1ii1r6rrkkkkggggggggggggggggggggggggl3l37777..-.",
"66*rggggjjjj--.-1iiirrrrkkkkggggggggggggggggggggggggll3l7pp7n...",
"ccccnen-uuuuddddf<<<<<<<.r.rp7p7gggggggg@@@@ggggggggeeee-.-.3333",
"%cc%5-e->uu>d%%df<ff<f<<....ppppgggggggg@lplggggggggnee..-.-l333",
"c%%c-e-nuquu%dd%<f<<<<<fr.r.7@7pgggggggg@@@pggggggggn-.-....33l3",
"%c%%-n-euuqu4%%df<ff<f<<....@pp7gggggggg@@lpgggggggg.e-.--.-l33l"
};
