/* XPM */
static char *_0a8db2f22d24867e13a9a188f63ccf2_9[] = {
/* columns rows colors chars-per-pixel */
"64 60 64 1 ",
"  c #040204",
". c #D4820C",
"X c #B43E04",
"o c #C45E04",
"O c #ECC244",
"+ c #BC4E04",
"@ c #DCA21C",
"# c #CC6E04",
"$ c #B44604",
"% c #C46604",
"& c #FCEAAC",
"* c #BC5604",
"= c #E4B22C",
"- c #DC920C",
"; c #F4D66C",
": c #CC7A04",
"> c #BC4A04",
", c #CC6A04",
"< c #C45A04",
"1 c #ECBE3C",
"2 c #D4860C",
"3 c #B44204",
"4 c #C46204",
"5 c #BC5204",
"6 c #E4A61C",
"7 c #CC7204",
"8 c #B44A04",
"9 c #C46A04",
"0 c #FCFEFC",
"q c #BC5A04",
"w c #E4B62C",
"e c #F4DA7C",
"r c None",
"t c black",
"y c black",
"u c black",
"i c black",
"p c black",
"a c black",
"s c black",
"d c black",
"f c black",
"g c black",
"h c black",
"j c black",
"k c black",
"l c black",
"z c black",
"x c black",
"c c black",
"v c black",
"b c black",
"n c black",
"m c black",
"M c black",
"N c black",
"B c black",
"V c black",
"C c black",
"Z c black",
"A c black",
"S c black",
"D c black",
"F c black",
/* pixels */
"                                33333333                        ",
"                                33333333                        ",
"                                33333333                        ",
"                                3$3$3$33                        ",
"                            X3X3$$$$$88$3X3X                    ",
"                            3333$$$$$8$83333                    ",
"                            X3X3$$$$$8$8X3X3                    ",
"                            3333$$$$$8>$333X                    ",
"                            333$$$$$3X33                        ",
"                            3$$3$$$$33X3                        ",
"                            3$3$$$$$333X                        ",
"                            3$3$$$$$3X33                        ",
"                    X3X38888$8$83$3$$$$$88>83333                ",
"                    333X88>8$8$83$3$$8$8++8+3333                ",
"                    X333888>$>$83$3$$$$$>8+83333                ",
"                    3X3X88>8$8$>3$3$$8>$+8++3333                ",
"                    $$$$****oooo55555+555*5*555588+8$3$3        ",
"                    $$$$*5*5ooqo585555+5*5*5555*85++$$$$        ",
"                    $$$$****oooq*555+5555*5*5*555+85$3$3        ",
"                    $$$$*5*5oq4o55+55585*5*555*585++$$$$        ",
"                    5555ooooq<qq55553$$$$3$$$$$8$3$33333        ",
"                    5555q4qoqq<*5+55$$$$3$338$$$$3$33333        ",
"                    5*5*ooooq<q<5585$3$$3$3$>$8$$3$33333        ",
"                    5555oq4oq*<*5555$$3$3$33$$$>3$3$3333        ",
"    8888qqqq3333$$$8oq4o4444*<*q33$3    8>88+++8$$$$$$$3XXXX    ",
"    8>>><<<q3$$$88$8oooq4444*q<*$3$3    $88>8+8+$$$$$$$$333X    ",
"    8>88qq<q$333$8>$oq4o44q4<*<*$3$3    88>$+++8$$$$$3$$XX3X    ",
"    8+8+<q<<3$$$$$$8oooq4444*q<*$3$3    $8$8+8++$$>$$$$333X3    ",
"    qo<q9,99o4oo*555q*qq55553333        33$3$8$$$333X333        ",
"    <qoo9%,9o4o455*5*<*<55553333        333$$>$$333333X3        ",
"    qoq<9,%9o4o4555*****55553333        3$33$$$>3$3$333X        ",
"    qoo<99,9o4o45*55<*<*55553333        3333$8>$33333X33        ",
"    q<qqoooooq4q9%,%....****        $$$8            3333        ",
"    q<q<ooqo44o4%,%9.2..q<**        $88$            3333        ",
"    q<q<q4ooq4q4%,%,....****        $8>$            3333        ",
"    q<q<oq4o4o4o9%,%.2.2**<*        $$$8            3333        ",
"    8+888>88$$$$****q*q***5*8888                                ",
"    8+8+8>8>3$3$5*5*<*<**5*5>>>8                                ",
"    8+8+8$>$$$$$**<5*<*<5*5<88>8                                ",
"    8+8+8>88$3$3*55*<*q**5*5>8+8                                ",
"8>8+5*5*<*<*,99,9,9,qooo3333    8585*q*qXXXX        8+85$$$$    ",
"+8+8*5*5*<**9,%9,%9,qoqo3333    5558<<<*XXXX        +5588$$$    ",
"++8+5*5<**<*,%,%9,%9ooqo3333    8555qq<qX3XX        85+5$>$$    ",
"8+>+5*55<*<*9,9,9,9,qooq3333    585+q<*<XX3X        +85+$$$$    ",
"8$8$eeee2222----====4444#99#&&&&@6669%,%888855558888$8$$3X33    ",
"8>$8eeee22.2--2-====o444,##9&&&&66669%99888855558>8>$$$$X3XX    ",
"$$>$eeee222.-2--====o4o49#9#&&&&@=@69,%,8>88*5*588>8$$$$X33X    ",
"88$8eeee2222---2====o444#9#9&&&&@@=@9%,%>88>555*>88>$$>$X3X3    ",
">8>80000111O9777qooo,9,9====000000000000;;;;%%%%*<*q%44%        ",
"8>$>0000OO1O77774q4o9#9,====000000000000;;;;%%%,*<*<%%%%        ",
"8>880000O1O1:977q4oo,9#9=6==000000000000;;;;%%%%<*q<4%4%        ",
"8$>80000OOO177774o4o9#9,===6000000000000;;;;4%,4*<**%%,4        ",
",%,%====6@668888    ....00000000000000000000000000000000*qqq    ",
"9,%,====6@6@58++    :..:00000000000000000000000000000000<<<q    ",
"%%,%====6@668+8+    ....00000000000000000000000000000000<q<q    ",
",9%,====6@668+8+    ....00000000000000000000000000000000<*<q    ",
"    =www0000::::XXXX:.:.=w=w0000000000000000O1O16@66----4%%%----",
"    =w==0000::::XXXX...:w===00000000000000001111@6@@----%%,4----",
"    =w=w0000::7:XXX3:...==w=0000000000000000O1O1@@@@----4%%%--2-",
"    =w=w0000:::7XXX3:.:.===w00000000000000001111@6@@---29%,4----"
};
