/* XPM */
static char *_0a8db2f22d24867e13a9a188f63ccf2_17[] = {
/* columns rows colors chars-per-pixel */
"64 44 64 1 ",
"  c #040204",
". c #D4820C",
"X c #ECC644",
"o c #B44204",
"O c #C46204",
"+ c #DC9E14",
"@ c #FCEAA4",
"# c #F4D664",
"$ c #CC7204",
"% c #DC920C",
"& c #BC5204",
"* c #E4AE24",
"= c #ECCE5C",
"- c #E4A61C",
"; c #FCFEF4",
": c #CC7A04",
"> c #D48A0C",
", c #BC4A04",
"< c #C46A04",
"1 c #F4DE7C",
"2 c #DC9A14",
"3 c #BC5A04",
"4 c #E4A21C",
"5 c #FCF2C4",
"6 c #DC9614",
"7 c #F4D25C",
"8 c #D47A04",
"9 c #F4E28C",
"0 c #D4860C",
"q c #ECCA54",
"w c #B44604",
"e c #C46604",
"r c #DCA21C",
"t c #CC7604",
"y c #DC9214",
"u c #BC5604",
"i c #E4B62C",
"p c #E4AA24",
"a c #FCFEFC",
"s c #D48E0C",
"d c #BC4E04",
"f c #CC6E04",
"g c #F4DE84",
"h c #C45E04",
"j c #FCF2CC",
"k c #F4D264",
"l c #D47E04",
"z c None",
"x c black",
"c c black",
"v c black",
"b c black",
"n c black",
"m c black",
"M c black",
"N c black",
"B c black",
"V c black",
"C c black",
"Z c black",
"A c black",
"S c black",
"D c black",
"F c black",
/* pixels */
"                            wwwwwwwwoooo                        ",
"                            wwwwwwwwoooo                        ",
"                            wwwwwwwwoooo                        ",
"                            wwwwwwwwoooo                        ",
"                        3hh3tttt.0..eeeeddddoooo                ",
"                        hOhOtttt....<eee&&&doooo                ",
"                        hhhhtttt....eeeedd&doooo                ",
"                        3OhOt$8$....e<e<&d&doooo                ",
"        oooo        ooooOOOO%sysrrrr6666::::3333wdww            ",
"        owwo        ooooOOeOs6%%-r-r%266:t::h3hhdwdd            ",
"        owow        oooo3eOe%s6s-r-r26%6::8thh3hwdwd            ",
"        owow        oooo3eOOs6s6r4r-%626:t::h3h3dddw            ",
"        OOOO3Oh3        dd&dt$$$....:.:lffff&uuuooww            ",
"        OeOeOOOO        dddd$$$$.....:.:f<f<&u&uwowo            ",
"        OOOOOhhO        d&d&$$$$....:.:.<f<fuuuuowow            ",
"        OeOOOhO3        ddw&$$$$....:.l:ffff&u&uowow            ",
"    wddw0...$$$$&&&&uuuue<<<OOOO$$t$eeeeOOOOeeee>>>>$$$$        ",
"    dddd.0.0$$$$&&&&uuuu<e<eOOOOt$$teeeeeeOeeeee%>>%$tt$        ",
"    ddw&....$$$$&&&&uuuuefefhOOO$$$$eOeOOeOeeeee>>>>$t$t        ",
"    w&dd.0.0$$$$&&&&uuuueeeeOOOO$t$$eeeeeOeOeefO%>>>8$$t        ",
"    eeee.:.:ssssr+++****88$8f<$<::::fffff$f$lllliiiiggggppppooow",
"    e<ee....s6s%++++****$tttf$$$:l:.<fff$f$flllli*iiggggppppowwo",
"    ee<e.:..ss%s+424****8tttf<$<l:l:$ff<$f$$:.:.iii*gg91ppppwowo",
"    eeee...:s%s%++++****$ttt$f$f:l:lf<$f$<$$.:.lii*iggg9ppppowow",
"oooo$$$$222+****66668:8:OhOhh3hh66669999aaaaaaaa@@@@*i**4r+rdwdd",
"oooo$$$$2222p*pp2222:8:8hOhOhh3Os6s69919aaaaaaaa@@@@****4rrrddwd",
"oooo<t$$2222*p**6662::::hOhO3Ohh666s9999aaaaaaaa@@@@****r4rrdw&d",
"oooo$$$$2222*p*p2262:8:8hO3Ohh3Os6669199aaaaaaaa@@9@***i4r4rddwd",
"    tttt2222;;;;aaaa-prpuu3u6666aaaaaaaaaaaaaaaajjjjrpp4====<<<<",
"    tttt2262;;;aaaaa-rpr3uuh%s66aaaaaaaaaaaaaaaajjjjprr-=7=7<<<<",
"    tttt2226;;;;aaaapp-puhuu%66saaaaaaaaaaaaaaaajjjjrp-r7=7=f<f<",
"    tttt2622;a;aaaaa-rprh&uu6%66aaaaaaaaaaaaaaaajjjjprpr=7==<efe",
"$$$$sss>k=#=7q7q9999-r-r2222aaaaaaaaaaaaaaaa9g9g2222s6s66666,,wd",
"ttt$s%>%k#=#=7=7gggg-r-r2626aaaaaaaaaaaaaaaaggg96222s6s66666wddw",
"$$t$s>%>=##k==7q9g994r--2222aaaaaaaaaaaaaaaa9ggg2662s6ys2666dwdd",
"tt$t%>>yk=#k=7=kg9g9-r-r2622aaaaaaaaaaaaaaaag9gg2262s6s66666dwdw",
"    ..0.=#==:t:teeeet$t$aaaaaaaaaaaajj5j77=7k##k6666aaaaaaaa****",
"    .0.0=7=#8:88efee8$$taaaaaaaaaaaa5j55==7=k#k#6s66aaaaaaaa****",
"    .0.0=7=k:8t:eeee$t$taaaaaaaaaaaaj5j57==7=#k#6666aaaaaaaai*i*",
"    .0.0=#=7:t8:eeee8$$taaaaaaaaaaaaj55j=7==##k#s666aaaaaaaa****",
"dwdda;aaaaaaaaaahhhhuuhueeee8l8l22221111XXXXqqq=aaaaaaaaaaaaOOOO",
"ddddaaaaaaaaaaaahhhhuuuuOOOe8:::22221111XXXXqqqqaaaaaaaaaaaaOOOO",
"ddwdaaaaaaaaaaaah3h3huhueeOe8l8l222211#1XXiXqq7qaaaaaaaaaaaaOOOO",
"ddddaaaaaaaaaaaahh3huuuhOOeO8:::2222111#XXXXqqqqaaaaaaaaaaaaOOOO"
};
