/* XPM */
static char *_0a8db2f22d24867e13a9a188f63ccf2_15[] = {
/* columns rows colors chars-per-pixel */
"64 36 64 1 ",
"  c #040204",
". c #D4820C",
"X c #ECC244",
"o c #B44204",
"O c #C46204",
"+ c #DCA21C",
"@ c #FCEAA4",
"# c #F4DA74",
"$ c #CC7204",
"% c #E4B22C",
"& c #DC920C",
"* c #BC5204",
"= c #ECCE5C",
"- c #C46A04",
"; c #BC4A04",
": c #E4AA24",
"> c #CC7A04",
", c #E4BA34",
"< c #DC9A14",
"1 c #D48A0C",
"2 c #ECC644",
"3 c #FCFAE4",
"4 c #F4E28C",
"5 c #E4B62C",
"6 c #C45A04",
"7 c #F4D264",
"8 c #CC6A04",
"9 c #B44604",
"0 c #C46604",
"q c #E4A61C",
"w c #F4DE7C",
"e c #CC7604",
"r c #DC9614",
"t c #ECD25C",
"y c #BC4E04",
"u c #E4AE24",
"i c #D47E04",
"p c #DC9E14",
"a c #D48E0C",
"s c #ECC64C",
"d c #FCFEFC",
"f c #E4B634",
"g c #C45E04",
"h c #CC6E04",
"j c None",
"k c black",
"l c black",
"z c black",
"x c black",
"c c black",
"v c black",
"b c black",
"n c black",
"m c black",
"M c black",
"N c black",
"B c black",
"V c black",
"C c black",
"Z c black",
"A c black",
"S c black",
"D c black",
"F c black",
/* pixels */
"    oooo9y99oooo        9y9y----0-0-OOOOoooo                    ",
"    o9999yyyoooo        yyy9-888-8-8O000999o                    ",
"    o9o99y99oooo        9y9*---8-08-O0OOoo9o                    ",
"    o9o9y9yyoooo        yy9y-88-8-08O0O09o9o                    ",
"    o9o99y9y        99y9aaaa:::+2XXXa&&a$h$-Ogggggggoooo        ",
"    o9o9y9y9        yy9y1a11:+::X2X2&a&a$h$$ggggggggoooo        ",
"    o9o99yy9        9y9y1&1&q:::XXXXara&$$-$ggggggggoooo        ",
"    o9o9y9yy        9yy9a111::q:2X2Xa&aa$$$$gOgOggggo9oo        ",
"    9999OOOOoooo    *yy*>iii22224w44tt7tq+:+>>>eOOOO9*9*        ",
"    9999OOOOoooo    yyyy>.>.222X4444=7=t:+::>>>>O0O09*9*        ",
"    99;90OOOoooo    yy*y.>.>2X224444=7=7+:+:e>e>OOO09**9        ",
"    9999OOOOoooo    yy9*>.>.22sX4w44=t=7q::+ieie0O00y9*y        ",
"    yyyy<<<raaaayyy*o99og6g6.111<<<<r<&<....00O0********        ",
"    yyyy<<<<a&aa***yoooo*g*g111.p<<<r<<<....0000********        ",
"    yyyy<<r<&rar*yy*oooogggg1111<<<<<r<r....000O********        ",
"    y9*9p<<<ar&a**y*oooo*g*g1.11<<<<r<r<....-000********        ",
"    -$-$XXXXp<p<0000eeee<apa>eeerrrre>e>>.>..>..wwww5,,5yyyy    ",
"    --$-2XXX<<<p0000e$eerra<ee$errrre>e>i>.>....#w#wf555yyyy    ",
"    h-$-2X2Xp<<<0800eee$rr<reeeerrrre>ei>>>...>.wwwwf555yyyy    ",
"    -$h-2XXX<p<p0008$$eerarre$e$rrrreieeii>>....w#wwf5f5yyyy    ",
"    <r<<+qqqXXX,4444ddddrrra1111:u:u1.11&arrppp<3333dddddddd>.>.",
"    r<r<qqq+2XXX4444ddddrarr11.1u:u:1a11&ra&p<pp3333dddddddd....",
"    r<r<+:q+2X,X4444ddddrrra1111u:u:1111&&arppp<3333dddddddd.i.>",
"    r<r<qq+uXXXX4444ddddrarr1111:u:u1111&&rap<pp3333dddddddd.>..",
"$$$$<<<<=tt=@4@@,5,f&1118--0000022s2dddddddddddddd3dXXs2777t$$$$",
"$$$$<<<<====@@@@5,f,111&080808O8ssssddddddddddddddddXXX27t7t$$$$",
"e$e$<<<<====@4@@,5,5&11180800000ssssdddddddddddddddds2X27t7t$$$$",
"$$$e<<<<====@@@@5,ff&.&.800808O82sssddddddddddddddddX2X27t7t$$$$",
"oooopppp5555dddddddd####6666%%5%ddddddddddddddddddddffffddddf%5%",
"oooo<p<p5,5,dddddddd####6666555fdddddddddddddddddddd,5,5dddd%%%5",
"oooo<pppf555dddddddd####*g*g5%55ddddddddddddddddddddf55,dddd5%%%",
"oooo<pppf,f,dddddddd####66g*,5%fdddddddddddddddddddd,5f5dddd%5%5",
"@4@4ffffdddd4444ddddff5f+:+:dddddddddddddddd4444qqqqqqqqX2228888",
"@@@@ff5fdddd4444dddd,f,,q+q+dddddddddddddddd4w4wqq+qppppX2XX88-8",
"@4@@%f55dddd4444dddd,f,5q:+qdddddddddddddddd4444q+:q+qpqXX22-8-8",
"@@@@%ff5dddd4444dddd,5,fqqq:dddddddddddddddd4w44qq+:pqpqXsX2-8-8"
};
