/* XPM */
static char *_0a8db2f22d24867e13a9a188f63ccf2_0[] = {
/* columns rows colors chars-per-pixel */
"64 52 64 1 ",
"  c #040204",
". c #D4820C",
"X c #ECC23C",
"o c #B43E04",
"O c #C46204",
"+ c #FCEAAC",
"@ c #DCA21C",
"# c #F4D664",
"$ c #CC7204",
"% c #BC5204",
"& c #E4B22C",
"* c #DC920C",
"= c #ECCE54",
"- c #F4E694",
"; c #B44A04",
": c #C46A04",
"> c #F4DE7C",
", c #CC7A04",
"< c #ECBA34",
"1 c #ECCA4C",
"2 c #FCFEFC",
"3 c #E4AA24",
"4 c #F4DA74",
"5 c #BC5A04",
"6 c #DC9A14",
"7 c #D48A0C",
"8 c #ECC64C",
"9 c #B44604",
"0 c #FCF2CC",
"q c #E4A21C",
"w c #F4DA6C",
"e c #E4B62C",
"r c #F4D264",
"t c #CC6A04",
"y c #D47A04",
"u c #ECC644",
"i c #B44204",
"p c #C46604",
"a c #F4D66C",
"s c #CC7604",
"d c #BC5604",
"f c #DC9614",
"g c #ECCE5C",
"h c #F4E69C",
"j c #BC4E04",
"k c #ECBE3C",
"l c #C45E04",
"z c #DC9E1C",
"x c #D48E0C",
"c c #FCF6D4",
"v c #E4A61C",
"b c #E4B634",
"n c #CC6E04",
"m c #D47E04",
"M c None",
"N c black",
"B c black",
"V c black",
"C c black",
"Z c black",
"A c black",
"S c black",
"D c black",
"F c black",
/* pixels */
"                                oooo                            ",
"                                oiio                            ",
"                                oioi                            ",
"                                oioi                            ",
"                            ooooiiio            iiiiiiii        ",
"                            ooooiiii            iiiiiiii        ",
"                            ooioioio            iiiiiiii        ",
"                            ooooiiii            iiiiiiii        ",
"                            i99i;;;;;;j;%j%;5ddd;;;;oooo        ",
"                            i9i9;;;;;%jj%%%%ddddjjj;iiio        ",
"                            i9i9;;;;%jj;%%%%dlddj;j;iooi        ",
"                            i9i9;;;;j;%j%%;%ddddjj;joiio        ",
"    ;;j;;9;9        %%%%....,,,,,sssppppppppttttpppp;;;;        ",
"    jj;j;j9j        %%%%....,.,.sssspppOpOpp:::tpptp;;;;        ",
"    ;j;j;9j9        %%%%....,.,,,s,stOpppppttt:t:ppt;j9;        ",
"    ;jj;j99;        %%%%..,.,,.,,sysOpOtOOpO:t:tptppj9;j        ",
"    ;j;jdlddddddO5OO.7.7@@vvXXkXq@q@7777ysyss$s$pOOOjjj;        ",
"    ;j;jddldddddOOOO777.vv@@Xkkk@q@q7777ys,ss$s$pOppj;jj        ",
"    ;j;j5ddlddldOOOO.777@v3vXbuk@@v@7777ys,y$s$sOpOpjjj;        ",
"    ;j;jdlddddddOlOO7.77@v@@XXkX@v@q7777yssss$s$pOtOjjj%        ",
"    ,.m,7777$n$ntp:pss$s6666bbbbeee<f66f.777*x*x&&3&::::        ",
"    m,.m7777n$n$ptpt$$s$6f66ekkebe&e666677.7*xf*&&&&ttt:        ",
"    ,.,.777*nn$ntp:pss$sf6f6bebke<&<f6f6.77.*fxx&&&&t:t:        ",
"    ,.mm777.$n$n:tpt$s$sf6f6eke<e&e&66667777*xf*&3&&t:t:        ",
"ooookkkk@vvvmmm,t:t:lOlO....@3@@r==r-h-hqq6q6666***7y,,y5O5l    ",
"ooiokkbk@v3v,m,m:t:tlOlO....v@3@==r1hhhhq6qz6666x7x*,m,,OlO5    ",
"iooobXkkvv@v,.,m:t:tO5O5....vv@vr==r-h+-qz6@6z66x*7x,,m,OllO    ",
"ooiibXeX@vv3,m,m:t::OOOO..7.@vv@==r1hh--q6qz66z6*7*xy,y,lO5O    ",
",,,,g#g#2222@v@v....7777e&&eeeee22222222ccccvvv@6fffffffpppp    ",
",,,,#g#g2222v@v@....7777&&&&eeee22222222cc0cv@3v6f66ffffppOp    ",
"mym,#g##2222v@v@....7777&&&&eeb<22222222ccccv@3@66fffxffOppO    ",
",y,,gagg2222v@v@....7777&&&&e<ee22222222cc0cv@3v6f66ffffpppp    ",
",,m,>4>4wawab<b<f*6*7777****>w4>8888>>>433337777$$$$::::s$$$;j;j",
"y,y,4444aaaabe<&ff*f7777*6ffw>448u8u>44>3v3@777.s$s$:$n:ssssj;%;",
",y,y4444awawb<&effx67.77f*ff444488u84>>433337777$$$sn:$ns$$sjj;%",
",,y,>444aaaaeeb<x6f*7777*f*f>4>48u88>4>43@337.77$s$$:n:n$ss$;%j;",
"ddddkkXk@@@zf**f::::.,mm++++waw4>>>4ffff$$$$,yy,mm,.t:n:pOpp    ",
"dd%dXk8kzz@zfxffnnn:m,m,++h+wwaa44>4ff*f$$:$,,y,m,.,n:t:OpOO    ",
"ddddkXkk@@zqfffxn:nn,.,.+h0hw4a4>>>>xfff:$$$y,,y,.mm:t:tOtOp    ",
"d%ddkXk8zzq6fxff:n:n,m,,++h+ww4a4>>>ffff$$$$,y,,.m,.:t:tOOOO    ",
"tttpkkkb2222XXXk....22222222g==gx777+h+h2222222222222222ffff    ",
"ppptkkkX2222XkXk....22222222==1gxxxx++++2222222222222222ffff    ",
"t:tpkkbX2222XkXk..,.22222222r1g=7x7*h+h+2222222222222222ffff    ",
"ptp:kkXk2222XkXk,...22222222=r1r7*7*++h+2222222222222222ffff    ",
"XkkX2222b<e<,...,.,,@vvv22222222--hhX818c00cw444r#r#a#a#22222222",
"kXXk2222ebeb....,,,.@v@v22222222----8X8u0000aaa4gagagaga22222222",
"XkXX2222<e<&..,.,.,,v@v@22222222----k8uX0000ww4a#gara#ag22222222",
"XkXk2222be&e....,,m,v@v@22222222-->h88X80000wa4aa#g#ga#a22222222",
"5O5O,mmmmm.m5O5Offff222222223333&&&&j%ddddddxfxxOOpOx7771111%%%%",
"O5OO,,,,.,.,OlO5ffff222222223333&&&&%d%%%%%%xfxfOOOO77x711g1%%%%",
"lO5O,.m,..,.O5OOff*f222222223333e&&<%%dd%%d%fxfxpOOO777*1111%j%j",
"lOlO,m,.,..,OOl5f*ff222222223333&&&3d%d%%%%%xfxfOOOO7*771g81%%%%"
};
