/* XPM */
static char *_0a8db2f22d24867e13a9a188f63ccf2_18[] = {
/* columns rows colors chars-per-pixel */
"64 44 64 1 ",
"  c #040204",
". c #D4820C",
"X c #ECC244",
"o c #B44204",
"O c #C46204",
"+ c #DCA21C",
"@ c #FCEEB4",
"# c #BC5204",
"$ c #CC7204",
"% c #F4D664",
"& c #DC920C",
"* c #E4B22C",
"= c #B44A04",
"- c #C46A04",
"; c #BC5A04",
": c #CC7A04",
"> c #F4DE84",
", c #E4BA34",
"< c #D48A0C",
"1 c #ECCE54",
"2 c #FCF6DC",
"3 c #DC9A14",
"4 c #F4DA74",
"5 c #BC4A04",
"6 c #CC6A04",
"7 c #C45A04",
"8 c #D47E04",
"9 c #ECBE34",
"0 c #FCFEFC",
"q c #D4860C",
"w c #ECCA4C",
"e c #B44604",
"r c #C46604",
"t c #E4AA24",
"y c #BC5604",
"u c #CC7604",
"i c #F4D66C",
"p c #DC9614",
"a c #E4B62C",
"s c #F4E28C",
"d c #D48E0C",
"f c #F4D264",
"g c #FCFAE4",
"h c #DC9E1C",
"j c #BC4E04",
"k c #CC6E04",
"l c #C45E04",
"z c #D47E0C",
"x c #ECBE3C",
"c c None",
"v c black",
"b c black",
"n c black",
"m c black",
"M c black",
"N c black",
"B c black",
"V c black",
"C c black",
"Z c black",
"A c black",
"S c black",
"D c black",
"F c black",
/* pixels */
"                        =j=#lOlO----yyyyoooo                    ",
"                        j##=OOOl-666yyyyoeeo                    ",
"                        =#j#OOOO6--6y7#7ooeo                    ",
"                        j=#=OOlO-6-6#yyyoeoe                    ",
"                        y;y7:8:8<<<<8888rrrrj=#=oooo            ",
"                        yy7y8:z:d<&<8.:.r-6r####oooo            ",
"                        yyyy8:.:&<<<z.:.rrrr#=#=oooo            ",
"                        y7y;8:z:<<<<8.:.r6rr####oooo            ",
"        =##=#=j=        ==5e-r-6uuuu$$$$OOOOj=j=                ",
"        ####j#j#        e5==6rrru$uu$$$$OOlO=j=j                ",
"        ####=#=#        =e5er6r6$uu$$$$$OOOO=jj=                ",
"        =###j#j=        =5=5rrrruuuu$$$$OO;Oj=jj                ",
"    oooo----OOOO==e====5y;7y;77y6O6Ol;l;;;7;;l;;$k$-l;l;        ",
"    oooo-kk-OOOOe5=555=5;7y;7y;7rr6Oll;O7;7;7;7;$$$$llll        ",
"    oooor-k-OOOO=5e==5=jy;7;;7;y6Orrl;l;7y7y7;7;$k$$;O;O        ",
"    oooo--k-OOlO5e=5=j=5;7y7y7;7Or6Oll;O;7;7;7;7$$$$lll;        ",
"    #=##-$k$8:8:qqq.d&<d6r-rOOOO-6-6OOOOOOOOk$k$pp3p*a*aq.q.    ",
"    yyyy-$-$:8:8.qqq<d&<r6r6OrOOk-k-OOOOOOOrk$k$p3p3****qqqq    ",
"    #yyyk$kk:8:8q.qqd<<&r-6rOOrO-6-kOOOOrOOO$k$-33p3*a*aq.q.    ",
"    yy#y-$-$:z:8qq.q<&<&r6r-OOOr6-k-OOOOOrOO$k$$3p3p****qqqq    ",
"    lOOOqqqqp&pd<qqqkkkk;7;7;7y;.8.8,,9a>>>>00001111h+h+<<<<    ",
"    OOOl.q..pdppqq<q$k-$7;7;7y7y8.:.aaa9>>>>000011w1h3+3&<<<    ",
"    lOOOq.qqpppd<qqqk$$k;7;7yy;7:...,9a,>>>>000011fw++3+<<<<    ",
"    OlOO.q..&pdp<q<qk-$-7;7;7y7y..:.aa,,>>>>0000fww1h3+3&<&<    ",
"    rrrr<<<<%%%%0000p&dpy#y#q.q.000000000000g2g244443333tttt####",
"    rrr6q<<<%iii0000&dp&#y#y.q.q000000000000222244443h33tttt####",
"    rr6O<q<q%iii0000&pd&y#y#q.q.000000000000g22244443333tttt####",
"    rrOr<<<<%i%i0000&dp&y#y#q.qq000000000000222244443333tttt####",
"###y:8:8***a9,X,wwwwp3ppd&d&0000000000000000%%%%&d&&<q<q....    ",
"yy#yu8u8*a*ax,X,wwwwpp3pdd<&0000000000000000i%%%d&&d<q<<.q..    ",
"#y#y8u::*a*axxxxwwwwppp3d&<&0000000000000000i%iid&dpq<qq..q.    ",
"y#7#uz:z**a*xxxxwwXwppppd&<d0000000000000000i%f%dpd&q<q<....    ",
"    uuuut*t*uuuu6O6O$$$$@@@@00000000@@@@1fw1XXXXpdp&00000000qqqq",
"    uuu8****u8uurO6O$$$$@@@@00000000@@@@1w11XXXXdpd&00000000<qqq",
"    u:uu*t*t8$uu6Orr$$$$@s@@00000000@@@@1111XXXXpdpd00000000q<q<",
"    uuuu*t**uuuu6r6r$$$$@@@@00000000@@@@11wfxXXXpdp&00000000qqqq",
"oooo0000ssss%f%f7yy7yyyyrrrr:.8z3p3pXXXX****x,,,0000gggg@@@@7;7;",
"oooo0000ssss%f%f;7;;y7yyrrrr8:.:3pp3XXXX****x,9,0000gg0g@@@@;7;7",
"oooo0000ssss%f%f;;7y7#yyrrrr8z:.ppppXXXX****9x9x0000gggg@@@@;;7y",
"oooo0000ssss%f%f;7y;yy7#6rrr8.:.p3p3XXXX****,x,x0000gggg@@@@;y7;",
"0000ffff4444000000000000hh+h8:8:k-$-444i000000000000000000000000",
"0000f1%1>444000000000000++h+88:.kk-$ii44000000000000000000000000",
"0000%ff14444000000000000+h+38z::$kk-44ii000000000000000000000000",
"0000f1%%4444000000000000+h++88z:k-$k4i44000000000000000000000000"
};
