/* XPM */
static char *_0a8db2f22d24867e13a9a188f63ccf2_10[] = {
/* columns rows colors chars-per-pixel */
"64 52 64 1 ",
"  c #040204",
". c #D4820C",
"X c #B43E04",
"o c #ECCA4C",
"O c #C46204",
"+ c #E4A61C",
"@ c #BC5204",
"# c #DC920C",
"$ c #B44A04",
"% c #FCEEB4",
"& c #CC7604",
"* c #E4B62C",
"= c #BC5A04",
"- c #F4EAA4",
"; c #E4AE24",
": c #DC9A14",
"> c #B44604",
", c #ECCE5C",
"< c #CC6A04",
"1 c #BC4A04",
"2 c #D47E04",
"3 c #C45A04",
"4 c #DC9E14",
"5 c #D48A0C",
"6 c #B44204",
"7 c #ECCE54",
"8 c #E4AA1C",
"9 c #BC5604",
"0 c #FCFEFC",
"q c #CC7A04",
"w c #ECBE3C",
"e c #E4B22C",
"r c #CC6E04",
"t c #BC4E04",
"y c #C45E04",
"u c #DC9E1C",
"i c None",
"p c black",
"a c black",
"s c black",
"d c black",
"f c black",
"g c black",
"h c black",
"j c black",
"k c black",
"l c black",
"z c black",
"x c black",
"c c black",
"v c black",
"b c black",
"n c black",
"m c black",
"M c black",
"N c black",
"B c black",
"V c black",
"C c black",
"Z c black",
"A c black",
"S c black",
"D c black",
"F c black",
/* pixels */
"                        XXXXXXXX        X6X6                    ",
"                        X666XXXX        666X                    ",
"                        X6XX6X6X        X666                    ",
"                        X6X6XXXX        6X6X                    ",
"                        $$$$$$9$$>>>>>>>$$$$>>>>6666            ",
"                        $$$$9$9@>>>>>>>>$>$>$$$$>>>6            ",
"                        $$$$@@@$$>>1>>>>$1$$1>1>66>6            ",
"                        $1$$$@@@>>>>>$>$1>1>>$>$>6>6            ",
"                    >>>$@@@@@$@$$$1$XXXX    X6XX                ",
"                    >$$>@t@@t@$@>>>1X6XX    X66X                ",
"                    >$1>@@@$@t@t$1>$XX6X    X6X6                ",
"                    >>>$@t@@t$@$$>$>6XXX    X6X6                ",
"        $$$$    XXX6@@@@9999t$@t        XXX66666                ",
"        $1$1    X66X@@t@@9@9tt$@        X66X>6>6                ",
"        $$1$    X6X6$@@@9999$@$@        X6X66666                ",
"        $1$$    X6X6@@@$99@9tt@$        X6X66>66                ",
"    $$$1=393@@@@$$$$$$$@1$1$                                    ",
"    $t$t93=3@@@@$$$$t@t$$1$1                                    ",
"    $t$t=39=@@9@$$1$$t$t$1$$                                    ",
"    $t$t=3=3@@@9$1$1$@tt$$1$                                    ",
"    $tt$9@@999993=y=r<r<$tt$                                    ",
"    t$tt@99@99@93=3=r<rr$t$t                                    ",
"    $t$t9@9@99993=y=r<r<$@t$                                    ",
"    $tt$9@9@9@993=3=r<rr$$t$                                    ",
"    6666>66666X6$@$@$@$@$$t$6666                                ",
"    666666>66666t$@t@@@@$t$t6666                                ",
"    666666666X66$@$@$@$@$$1$6666                                ",
"    6666>6>66666$@t$9@@@$t$t6666                                ",
"    >$>$$$$$==9===3=@@$@        6>6>$$$$            6666        ",
"    >$>$tt@t====3=3=@@@@        >>>6$11$            6666        ",
"    >$>$t$t$3=393=3=@@@t        6>>>1$1$            6666        ",
"    >$1>t$tt=93=3=3=@@@@        >6>6$1$1            6666        ",
"    ++++&&&&2q2q#5##9999y=O=eeee.55.=3=36666>>>>X6X6            ",
"    ++8+&&&&q2q2###5=3=3=OyOeeee55.5y=3=6666>>>>666X            ",
"    ++u8&&r&q2qq#5##=939Oy=Oeee;55553=3=6666>>>>X666            ",
"    +88u&&&&q22q##5#=9=3=OOyee;*.5.53=3=6666>>>>6X6X            ",
"    7,,,8+++<O<<====OOOO4444000000000000;;;;=3=3$$$$9@@@        ",
"    o,7,++;+<r<<==3=OOOO4u:u000000000000e;e;=3=y$@$@9@99        ",
"    77o,8+u;OrOr==33OOOO44u4000000000000;;;e=y=3t$@t@9@@        ",
"    o,,7+;8;OrrO=3==OOOO4u44000000000000e;;;3=y=tt$t@99@        ",
"@@@@::::#5#5$$$$    q2q20000000000000000%%%%----0000oooo1$$t    ",
"@@@@::::###:$$$$    qq2q0000000000000000%%-%----0000oooott@$    ",
"9@9@::::#5#5$t$t    q2&20000000000000000%%%-----0000oowot$t$    ",
"@@@@::::####$$t$    qqq&0000000000000000%-%%----0000oooott$@    ",
"    4:u:0000&rrr    &&2&****0000000000000000ww*w:4+u.55.yyOyOOOO",
"    44u40000rrrr    &q&&*ee*0000000000000000wwww4u44#.#5yy=yOOOO",
"    4u4u0000rrrr    &2&&*ew;0000000000000000wwww+4uu5555yyOyOOOO",
"    44u40000rrrr    &&2&eee*0000000000000000wwww44+45555yyy=OOOO",
"    5555000000005#5#99@3OOOO,,,,eeeee*e*eeee....O<yOoooorrr&rr&r",
"    555500000000###5993@OOOO,,,,e;;eeeeeeeee....OOOOoooorrrrr<<r",
"    555500000000#5##9993OOOO,,,,ee;ee*e*eeee..5.OOO<oooorrrrrrrr",
"    555500000000##5#999@OOOO,,,,ee;eeeeeeeee....OOOOoooo<rrrrrO&"
};
