/* XPM */
static char *_0a8db2f22d24867e13a9a188f63ccf2_24[] = {
/* columns rows colors chars-per-pixel */
"64 48 64 1 ",
"  c #040204",
". c #D4820C",
"X c #ECC23C",
"o c #B44204",
"O c #C46204",
"+ c #DCA21C",
"@ c #FCEAA4",
"# c #CC7204",
"$ c #BC5204",
"% c #DC920C",
"& c #F4D25C",
"* c #E4B22C",
"= c #FCF6D4",
"- c #C46A04",
"; c #CC7A04",
": c #BC5A04",
"> c #D48E0C",
", c #ECCA4C",
"< c #B44A04",
"1 c #E4AA24",
"2 c #DC9A14",
"3 c #F4DA7C",
"4 c #ECBA34",
"5 c #FCF2BC",
"6 c #F4D66C",
"7 c #FCFEFC",
"8 c #CC6A04",
"9 c #D47E04",
"0 c #C45A04",
"q c #D4860C",
"w c #ECC64C",
"e c #B44604",
"r c #C46604",
"t c #E4A61C",
"y c #FCEEBC",
"u c #CC7604",
"i c #BC5604",
"p c #DC9614",
"a c #F4D264",
"s c #E4B634",
"d c #FCF6DC",
"f c #DC8E0C",
"g c #ECCE5C",
"h c #BC4E04",
"j c #E4AE24",
"k c #DC9E14",
"l c #ECBE3C",
"z c #CC6E04",
"x c #D47E0C",
"c c #C45E04",
"v c None",
"b c black",
"n c black",
"m c black",
"M c black",
"N c black",
"B c black",
"V c black",
"C c black",
"Z c black",
"A c black",
"S c black",
"D c black",
"F c black",
/* pixels */
"                                    oooo<<<<:i:ihh<$oooo        ",
"                                    oooo<hhhi0:0$$$hoooo        ",
"                                    oooo<<h<:0i:h$h$oeoo        ",
"                                    oooo<h<h::0:h$<$ooeo        ",
"            <h<$$i$ioooo        i:i:rrrr####zz-zOOOO<$<<        ",
"            h$$<iii$oooo        :0:0rrr-##z#-zz-rOOO$<$<        ",
"            <$h$iiiioooo        i:0ir-8rz###-#-#OOOOh<$h        ",
"            h<$hi$i$oooo        :0i:8rrr##z#-#zzOOOOh$<h        ",
"        e<e<:0::0:0:<<<<<<<<rrrr....ppppp2p2uuuu:0:c<<h<        ",
"        <hehi:0i0:00hh<h<hehr8-8....ppppp2p2#u#u0:c:h<h<        ",
"        eehe0::0:0::h<hh<<he-8rr....%p%p2p2puuuu0:0:h<h<        ",
"        <eehi0i:0:0:hh<h<hehrr8r....pp2%2p2puu#u0:c:h<h<        ",
"        <h<eh<h<<e<eh<h<OOOO99;9>>>>>>>>....zzzz:c:cr-rr:i:i    ",
"        <eh<h<hheheeh<hhrOrO9;.9>>>>>>%>....-z-#ccc:8r8r0:0:    ",
"        <heh<h<<eeheh<h<OrOr9x;.>f>f%>%>....#-#z:0:crrrr0:i0    ",
"        <<heh<hh<eeeh<h<rO8O9;.9>>f>>f>%....-#zz:cc:8r8r:0:i    ",
"    <<<<0$iihhhh        hh<hcOc:z8-z##z#-------8.;.9u;uucccc    ",
"    <heh$i0$$$$<        <h<h:OcO-8-8-##--8-8-88-9.;.;u9uccO:    ",
"    e<heiiiih<$$        <hh<Oc:O-z-z##-u8-8-8-8-;..;;uu;c:OO    ",
"    <he<0$0i$$$<        h<hhcOOc-8--#-##-8-8-8-z.;..u9u9cOc:    ",
"eeeeccccrrr8rr--rOrOrrrrh$<$<<<<$$$$z#zzjjjjg&g&kkkkt+t+k++t:c:O",
"eeeec:Oc-8r-8r8rrrrrrrrrhh$<h<h<$$$$z-#-*jjjag6gkkk2t+t+tktkOcOc",
"<eheOOc:8r8rr8r8OrOr8O8O$<$$<<ehh$h$-###jjjjg6g&kkkkt+t+ktk+cc:O",
"eeeeccOOr-r8-r8rrrrOrrrrh$h<h<he$$$$#z-#jjjjag&gkk2kt+t+tk+kOcOc",
"    .q..u#u#OOOO888-OOcOr--89.9.llXlss4s====y55yga&gt+t+%p%poeoe",
"    .q.q#u#uOrOr--8-OOOO8r8r....lXlXsss45===yyy5ggg&+t+t%pppoeoe",
"    .q.q#u#uOOOO8-88OcOcr8r-9.;.XlXlss4*==y=yyyyg&ggt+t+ppppoeoe",
"    .q.q#u#uOrOr8-8-OOOO-r8r....lXswsss45===yy5ygg&gt+t+p>ppoeoe",
"    iiiiiiiih<hh:c:ccO:Orrrrpp%2slsl====,wwwg,ggs4s4u9;;rrrOeeee",
"    $i$i$i$ihh<h0:c0OOOO-8r8p22p4sXl====,wwwgg,g4s4s;;x;OrOreeee",
"    iiiiiii$<hh<cc:cOOOOrrrrpp%2sXsl=ddd,www,g&g4s4s9;9;O8OOeeee",
"    $i$i$iiih<hh:c:c:OOcr8r-p222lsls==d=,w,w&,&,4s4s9;;xOOrOeeee",
"    <h<h11t1i:i:0i:0pppp--8-uu#uy5557777777777777777jjjj&g&&oooo",
"    <$h<1111i0iii0i:pppp-8r8#uuuy5y57777777777777777***jgaggoooo",
"    h<$h1t11iii0i0i0pppp-r--uu#uy5y57777777777777777*jj*ag&&oooo",
"    <$<$11t1i:ii0i:ipp%p-8-8#uuuy5y57777777777777777*j*j&g6goooo",
"    $$$$****77777777qqqq--8-uuuu;;;;,,,,777777773333@@@@+1+1ssss",
"    $$$$****77777777q..q-8-8uuuu;;;;,,gw777777773333@@@@+1t+llls",
"    $$$$****77777777q.q.-8-8uuuuxux;w,w,777777773333@@@@+1+t44ll",
"    $$$$**s477777777q.q.-8-8uuuuxu;xwgw,777777773333@@@@+1+tls4s",
"    <<<$+t+t=ddd7777%>>>ii0$pppplXll****ffffllll66667777d=d=eeoe",
"    <$h<t+t+=ddd7777%>%%iiiip2p2lXlX*4**f>>>llll6&6g7777ddddeooo",
"    h<h<t+t+dddd7777%>%>0i0$ppppXlXl****fff>llllg6667777ddddeooo",
"    <hh<t+tt=ddd7777%>%>ii$0p2ppXlXX**4*f>f>llsX666g7777ddddeooo",
"77777777jj1jg&&&77777777llllg&&&uuuu-z-z-z-z<$$<u-;u,,,,7777XXXX",
"777777771111g&gg77777777XlXl6&66uuuu-zzz-8-z<$<$#u##,,,,7777XXlX",
"77777777j1j1g&g&77777777lllXg6g&uuuuz-z-z-8-$$$<u###,,g,7777XXXX",
"77777777111jg&ga77777777XllX6g66uuuu-#-z-z-zh<$$####,,,,7777XwlX"
};
