/* XPM */
static char *_0a8db2f22d24867e13a9a188f63ccf2_12[] = {
/* columns rows colors chars-per-pixel */
"64 48 64 1 ",
"  c #040204",
". c #D4820C",
"X c #ECC23C",
"o c #B43E04",
"O c #C46204",
"+ c #DCA21C",
"@ c #BC5204",
"# c #CC7204",
"$ c #E4B22C",
"% c #FCEAAC",
"& c #F4DE84",
"* c #B44A04",
"= c #CC7A04",
"- c #E4BA34",
"; c #D48E0C",
": c #C46A04",
"> c #E4AA24",
", c #C45A04",
"< c #ECCA4C",
"1 c #B44604",
"2 c #E4A21C",
"3 c #F4E294",
"4 c #D47E04",
"5 c #ECBA34",
"6 c #D4860C",
"7 c #B44204",
"8 c #C46604",
"9 c #BC5604",
"0 c #CC7604",
"q c #E4B62C",
"w c #FCFEFC",
"e c #F4E28C",
"r c #BC4E04",
"t c #DC920C",
"y c #CC6E04",
"u c #C45E04",
"i c #ECCE54",
"p c #E4A61C",
"a c #D47E0C",
"s c #ECBE3C",
"d c None",
"f c black",
"g c black",
"h c black",
"j c black",
"k c black",
"l c black",
"z c black",
"x c black",
"c c black",
"v c black",
"b c black",
"n c black",
"m c black",
"M c black",
"N c black",
"B c black",
"V c black",
"C c black",
"Z c black",
"A c black",
"S c black",
"D c black",
"F c black",
/* pixels */
"                        o7o7                                    ",
"                        777o                                    ",
"                        o777                                    ",
"                        7o7o                                    ",
"        oooo                                                    ",
"        o77o                                                    ",
"        o7o7                                                    ",
"        o7o7                                                    ",
"        777o77771111****                                        ",
"        o77777771111r*rr                                        ",
"        7o7o77771111*r**                                        ",
"        777777771111r*r*                                        ",
"                oooo7777                                        ",
"                oooo7o7o                                        ",
"                oooo7777                                        ",
"                o7o77o7o                                        ",
"            77777171                                            ",
"            77777171                                            ",
"            77777171                                            ",
"            77777171                                            ",
"    OOOO99999u9uOOOO11111*1*:y::,9u91777                        ",
"    O8889999u9u9OOOO1111*r1ry:yyuuuu7777                        ",
"    O8OO9,99uu9uOOOO11*1*1r1y:y:9u9u7777                        ",
"    O8O899,99uu98OOO*111r11r:yyyuuu91717                        ",
"    ....4==49u9u****9@@@0400<<i<-q--iiii00001111                ",
"    =..==4=49u9u*@r*9@@@0004iiii55-5<i<i00001111                ",
"    ....=4==,9u9@*rr@@@@=04#iiii55-5iiii00001111                ",
"    ....==a=,u9u*r*r@@@@0400iiii55-5iiii0a001111                ",
"    :#:#y#y#1111    8888wwwwwwwwwwww3333$$$$222+s-X-.==.        ",
"    ###:#y#y1111    8:8ywwwwwwwwwwwweeee5$$$2++2XXXX=..=        ",
"    :####y#y1111    8888wwwwwwwwwwww3e3e$$5$22++XssX=..=        ",
"    #:#:##:#1111    8y88wwwwwwwwwwwweeee5>$$2+2+sXXX.=..        ",
"    #000-Xs-u9,9    888y2pppwwwwwwwwwwwwwwww>>>>;;;;####****    ",
"    #0#0s-Xs9u9u    8y88p++pwwwwwwwwwwwwwwww>>p>;;6;y###*r1r    ",
"    #0#0s-X-u9u9    888y+p+>wwwwwwwwwwwwwwww>>>+;;;;####*1r1    ",
"    #0#0-Xss9u9u    8y88pp+pwwwwwwwwwwwwwwww>>p>;;6;y###r1**    ",
"    0000wwwwwwww####rrrr8888$$$$$5$$5$5$p2p+====uOuO66669,,9    ",
"    #0#0wwwwwwww0###*rrr8888>$>$$$$$$$$5++22=4=4uOOu6666,9u9    ",
"    0000wwwwwwww#0#0rr*r8O88$$$>5$$5$5$$2+p+40==OOOO66669u9u    ",
"    #0#0wwwwwwww####r@rr88O8>$$$$$$$$$$5+2+2=40auOuO6666,9u9    ",
"    q-55wwww33334a=4<<<<wwwwt;;;wwwwtttts-s-$$$$wwwwwwww00#0    ",
"    q5qqwwww3e334=a=<<<<wwww;6;;wwwwtt;t-sss$$$$wwwwwwww####    ",
"    q-5-wwww33e34a=a<X<Xwwww;;t6wwwwtt;ts-s-q$$$wwwwwwww0#0#    ",
"    q5-5wwww3e3344=4<<<<wwww;6t6wwwwt;ttX-Xs$$$$wwwwwwww####    ",
"=0==wwww&&&&wwwwwwwwwwww5$5$>pp>wwwwq5qq%%%%q5$5wwwwwwwwwwwwwwww",
"40a0wwww&&&&wwwwwwwwwwww$qq5p>>>wwww5$qq%%%%qq5$wwwwwwwwwwwwwwww",
"=040wwww&&&&wwwwwwwwwwww5$q$>>p>wwwwqq5$%%%%-q5$wwwwwwwwwwwwwwww",
"a00awwww&&&&wwwwwwwwwwwwq5$q>>>>wwww5$$q%%%%qqq5wwwwwwwwwwwwwwww"
};
