/* XPM */
static char *_0a8db2f22d24867e13a9a188f63ccf2_4[] = {
/* columns rows colors chars-per-pixel */
"64 52 64 1 ",
"  c #040204",
". c #D4820C",
"X c #ECC64C",
"o c #B44204",
"O c #DCA21C",
"+ c #C46204",
"@ c #DC920C",
"# c #BC5204",
"$ c #CC7204",
"% c #E4B22C",
"& c #FCFEFC",
"* c #F4DA74",
"= c #DC9A14",
"- c #D48A0C",
"; c #B44A04",
": c #E4AA24",
"> c #C46A04",
", c #BC5A04",
"< c #CC7A04",
"1 c #F4D66C",
"2 c #E4BA34",
"3 c #ECCE54",
"4 c #E4A21C",
"5 c #DC9614",
"6 c #DC9E14",
"7 c #DC8E0C",
"8 c #BC4A04",
"9 c #CC6A04",
"0 c #C45A04",
"q c #D47E04",
"w c #D4860C",
"e c #ECCA54",
"r c #B44604",
"t c #C46604",
"y c #DC9214",
"u c #BC5604",
"i c #CC7604",
"p c #E4B62C",
"a c #FCEAA4",
"s c #D48E0C",
"d c #E4AE24",
"f c #ECBA34",
"g c #E4A61C",
"h c #DC9E1C",
"j c #BC4E04",
"k c #CC6E04",
"l c #C45E04",
"z c #D47E0C",
"x c None",
"c c black",
"v c black",
"b c black",
"n c black",
"m c black",
"M c black",
"N c black",
"B c black",
"V c black",
"C c black",
"Z c black",
"A c black",
"S c black",
"D c black",
"F c black",
/* pixels */
"                    oror####,l,luuuu;j;;rrrroooo                ",
"                    rrrr#uuulll,uuuuj;jjrrrroooo                ",
"                    ororu##ul,+lu0#0;jj;rrrroooo                ",
"                    rrrr#uu#lllluuuuj;jjrrrroroo                ",
"        oooooooooooo;;;;llll>>>9>9t9,l,0############            ",
"        oooooooooooo;jj;ll,l99>9tt9t0,0,############            ",
"        oooooooooooo;;j;ll+l>9>9>9t>0,l,############            ",
"        oroooooooooor;j;+,l,k>9>9t>9,0,l############            ",
"    ;;j;uu,u;rrroooorrrru0uu9t>9ii$iiiii++++l,l,uuu#rrrr        ",
"    jj;j,uuu;;;;roorrrrruuuu>9ttiii$iiii++++ll,+u#uurrrr        ",
"    ;j;juu,uj;j;rrrrrrrr0u0#9t9ti$iiiiii++++,+l,uuuurrrr        ",
"    ;jj;0u0uj;j;rrrorrrru#uut9t9iiiiiiii+++tl,llu#u#rrrr        ",
"    tttt..<.++++#;######++++$$$k-7w7777s....t>ttl0l0###j        ",
"    ttttq...++++;##;####++++$k$$-w-w-s-7....t9ttl,l,####        ",
"    +t+t....++,+##;u####++++$$$k--7-7s7s....ttt9,l,l#j#;        ",
"    tttt..<.++++#;######++++$$$$-----7-s....>tttl0l,####        ",
"    $$$$q<.<$>$$,+,l,,,,++++q<<q.w..----iiii++++####;r;;        ",
"    $$$$....$$$k,ll,0u0u9++tq<z<w.ww-w-wi$i$++++####8;8r        ",
"    $$$$<.<<$k$$l,l,0,,0++++q<.<ww..---7$iii+l+l####;r8;        ",
"    $i$i.<..$>$>+l,+,0u,++t+q<z<www.--wwii$i++++####;8;r        ",
"    ttttk$>>tt+t#uu#,0,0iqi<........>k9>00,0####;j;jrorr        ",
"    t>9t>$k$++++u#u#0,u0<i<qz<.<w...>k>k,0,0###u;#j;rrro        ",
"    ttt>k>$>t+t+u#0#,0,,<qii........>k>k,0,,#u##j;#jrrrr        ",
"    t9t9kk>$++++u###0u0uqii<z.<.....>k>k,0,0##u##j;#roro        ",
"    tttts@s7$k$kllll----::d:w--w$>$$----3e3e@ss7w--wdddd;#;#    ",
"    tt9t7s@sk>$k,ll,s7-7:d:dwwww$$$>s7-7ee3e7s@s-wwwdddd###;    ",
"    tttt7s7s$$k$l,+l--w-:d:dw-w-k$>$--w-e3e37ys7wwwwddddj;##    ",
"    t9tt@syskk>$,+ll-7--:d:dwwww$$$$-7-7e3e37s7s-w-wdddd###;    ",
"    <q<.<<<<tttt++++<qq<ddddaaaa5555s@s@g4g4O4O4===6@yy@----ooor",
"    <.<q<izi+t+t++++q<q<ddddaaaa@=5=5s55OgOgOO4O=6==@5s5-w7wrror",
"    <.<.<i<z++t+++++<z<zddddaa*a5555s55sgOgO46O4===6@@5s7w--oror",
"    <.<q<ziit+9+++++q<z<ddddaaaas65=5s55OOgO4O46=6==y5s5--w7oror",
"    ,,0,0,00#jj#t9t>p%pfpf225s=sswww,,,l,l,0>9>9++++k$$k$i$$    ",
"    u0uu00,0#j#j>9t9pf%%f2f25===wwww,+l,l,0,9>k>++++>$>$$i$i    ",
"    uu0,0,l,#j#jt>9t%%ppf2f25555wwww,+,l,0,0>k>9++++$k$ki$i$    ",
"    u0uul0,0#j##t9t>f%f%f2f2=5=5wwww,ll,l,0,9>k>++++k>$>i$i$    ",
"rrrr&&&&&&&&iiiiq<q<****2%pf::d:+,++,l,+666Ofp2fq.q.wwwwO4OO:O:O",
"rrr;&&&&&&&&qiiiq<z<****pf%%d:d:++++,+l,4646pfpp.<..wwwwOOgO::::",
";rrr&&&&&&&&iiiiz<z<****2%%p:d:d,+,+l,ll6h64pfpf...<ww.w4O4OgO:g",
"r;8r&&&&&&&&iziiz<z<****2%f%d:dd++++,l,l6h6hfp2pz.<.wwwwOgOO:g::",
"%%%%eeee1111XXXX7w-7hhhhz.z.,,u,rr;rj;j;qiii<izi>>>>lll+wwwwoooo",
"%%%%eeee1111XXXX----6h6h....u,0,r;r;8;8;iiiiqiii9t9t++l+.wwwoooo",
"%%%%X3X31111XXXX7w7w66h=.<..,0u,8r8r;j;jiiqiiizi9t9tl+l+ww.woooo",
"%%%d3X3X1111XXXX----6=66....u,0,rr;;8;8;qiiiiiii9tt9l+l+.ww.oooo",
"@@5@pf%fw---6666%d%%&&&&46O6jj;jqqqq333e00l0llllu0u,@s5su###    ",
"5@@5%%%%7ww-64O6%%%d&&&&O46Oj;j;.<.<3e3ell,lll,lu,0u55s5#u##    ",
"@s5@f%p%w7ww6646%d%%&&&&4646jjjj<...3e3el0l,l,llu0u0s55su###    ",
"55@@%%p%ww7w4664d%%%&&&&46h4;j;j.<.<3e3el,l,ll,l,u0u5s55##u#    ",
"OgOO@@@@99ttrrrrkkkkkkkk<.q<gOgOl+,+99998;8;    ;8;;,0u,....&&&&",
"gO:O@y@7t9t9r8r8>kkk>k>k.<..O4Og,+lltt9t8;j;    ;;8;0u,0<..<&&&&",
"OgO:s@sy>t9trrrrkk>$k>k>.q.<gO4Oll,+>9ttj;8;    ;8;;u0uu....&&&&",
"gO:O@y@s9t>9r8r8>$k>kk>$<.<.OgOglllltt9t8;j;    ;;8;0u0u....&&&&"
};
