/* XPM */
static char *_0a8db2f22d24867e13a9a188f63ccf2_8[] = {
/* columns rows colors chars-per-pixel */
"64 60 32 1 ",
"  c #040204",
". c #D4860C",
"X c #B43E04",
"o c #C46204",
"O c #BC5204",
"+ c #CC7204",
"@ c #ECCE54",
"# c #E4AA1C",
"$ c #B44A04",
"% c #C46A04",
"& c #BC5A04",
"* c #CC7A04",
"= c #DC9614",
"- c #B44604",
"; c #FCFEFC",
": c #ECBA34",
"> c #BC4A04",
", c #CC6A04",
"< c #C45A04",
"1 c #D47A04",
"2 c #B44204",
"3 c #C46604",
"4 c #BC5604",
"5 c #CC7604",
"6 c #F4DE7C",
"7 c #DCA21C",
"8 c #ECC244",
"9 c #BC4E04",
"0 c #CC6E04",
"q c #C45E04",
"w c #D47E04",
"e c None",
/* pixels */
"                                2222X2X2                        ",
"                                2222222X                        ",
"                                22-22X22                        ",
"                                2222222X                        ",
"                            222-$$$$O$$O----                    ",
"                            2--2$OO$O$O$$$$-                    ",
"                            2-2-9$9$O$O$$-$-                    ",
"                            2-2-$99$O$O$>$>-                    ",
"        ----X2X2            $$$$OOOOOOO4$>-$                    ",
"        ----222X            $>$>999OOOOO-$>$                    ",
"        ----X222            $$>$OO9OOOOO>$>-                    ",
"        ----2X2X            $>$$9O9OOOOO$>-$                    ",
"        22222X2X        ----9$999$O$$$-$XXXX                    ",
"        22222X2X        ----9$9$OO9O-$>-X2XX                    ",
"        2-222X2X        ----9$99$O$O---$XX2X                    ",
"        22-22X2X        ----99$9O9O9$>-$XXXX                    ",
"        $$$$2222    $$$$44<4OOOO$$>$OOOO&&&&$$>$--------        ",
"        -$-$2-22    $>>>4444OOOO9$9$O9O9&&&&99$9--------        ",
"        $>$$22-2    $>$$<4<4OOOO$>$>OOOO<<<&>9>$$-$-----        ",
"        -$>--222    $9$>4444OOOO9$9$O9O$&&<&9$99---$----        ",
"        ----22-22222$O9Oo3oo000%qq&q<&qqooooqoqo&q<<OOO9        ",
"        ->->2222222-O9$Oooo30%+0&qq&qq&qooqoqoqo&<&&O9OO        ",
"        -----2-2-222$OO9o3oo0000&o&q&q<&oooo&ooq&q&<OOO9        ",
"        -->-22222-2-O$O$3ooo0%+0&qqqq&qqo&ooooqo&<&qO9OO        ",
"                ----&oqo,%0%%333q&&&>$$$$>$$9$9$9$9$$$$$        ",
"                ----oqqq%0%03333&<<&9>9>$$>-9$O9$9$>>9>$        ",
"                ----&oqo%0%03o3o<&<&$$$9$>-$9O$O$>$9$$9$        ",
"                ----oqqq%0%033,o<&<&9>$>$->$9$O9$>$>$9$>        ",
"    &q&q%+%0$$9$OOOO0%+0000%3oo3$>$>---2O4OO<&<&9O9O999$9$$9    ",
"    qqqq+0+099$9OO$O00%+%+003o3o>$$$22--OOO4&<&<9$O$9$O9$O9$    ",
"    &o&o%+%+$9$OOOOO%+000%+0o3o3$>$>--22O4OO<&<&OO9O99$O9$99    ",
"    qqqq+0+0$O9$OOOO00%+00%+o3o,-$>$2-2-OOOO&<&<9$O$O999$9$9    ",
"    %+%+***w+0%+q&q&3ooo&qq&>---        $9$99O9O$$>$$$$$>$>$    ",
"    000%w1*1%++0&oqqooooq&<<-->-        $>$>O$O$9$$>$->-$>$$    ",
"    %+00*w*w+%++qq&ooooo<&<&$---        $9$$OOOO$>$$>--$>$$>    ",
"    0%+0*w**0+0%oqoqoooo&q<<->--        $>9$O$O$$$>$-$>-$>$$    ",
"    %%%%,3,3,%%,55557777oooo    ----4444222222222222>$>$        ",
"    %,3,33,3%,,%55557777oooo    ----44442-2-22222222$>$9        ",
"    3%,%,3%,%,%,55557777oooo    ----4<O<22222X22X2X2$$9$        ",
"    %,3%,3,3,%,%55517777qooo    ----O44O2-2222222222$9$>        ",
"    444<99$O$-$$qq<&qqqqqqqq4444----2-2-                2-2-XXX2",
"    44<4$OOO->->&<&qoqooqqqq4444-->2-2-2                ----X22X",
"    4444OO$O$-$-qqq<oqoqqqqq4<O<2---2-2-                2-2-2X2X",
"    4<4<9OOO->->&<&qqoqoqqq&4444----2-2-                ----X2X2",
"%%%,qooq33o3*w*w*w**0%,%--$>2X2Xqqqq000%$-$-    XXXX&q&oOOO4    ",
",,%,oooo3333w*w*w*w*0%0,$>--X2X2&&q&0%00$$$$    XXXXooqq44O4    ",
"%,%%oqo&33o3w*.*w*w*0%,%----2X2X&q&q%0%0->-$    XX2X&oqoO4O4    ",
",%,,oooo3333w*w*w*w*0%0%>->-2X22&oq&000%$$>-    XXX2&o&oO4O4    ",
"&<44;;;;====7###6666%,%%1***;;;;@@@@55*1O9OOoooo4444$O$O>>>$    ",
"44<4;;;;====##7#6666%%,%*1*1;;;;@@@@1555OOO9oooo4444$O$9$$9$    ",
"<&4<;;;;====7##76666,%,%1*1*;;;;@@8@1515O9OOo3o34O44$O$O9$>$    ",
"4<4<;;;;====7###66663,%%*1*1;;;;@@@@+1+5OOOOoooo4444$O9$9$9$    ",
"OOOO;;;;66665555oooo+5++8888;;;;;;;;;;;;;;;;++++oooo***w2222    ",
"OOOO;;;;6666+55+oooo++5+8888;;;;;;;;;;;;;;;;++++oooow*w*2-22    ",
"OOOO;;;;6666+555o3o3++++88:8;;;;;;;;;;;;;;;;++++oooo*1**-222    ",
"OOOO;;;;6666+555oooo5+5+8888;;;;;;;;;;;;;;;;++++oooo**w*2-22    ",
".w..@@@@::::$$9$    ....;;;;;;;;;;;;;;;;;;;;;;;;;;;;;;;;,3,%    ",
"...w@@@@::::$9$9    ....;;;;;;;;;;;;;;;;;;;;;;;;;;;;;;;;,3%3    ",
"w...@@@@::8:$$9$    w.w.;;;;;;;;;;;;;;;;;;;;;;;;;;;;;;;;%,3,    ",
".w.w@@@@::::$$$9    ....;;;;;;;;;;;;;;;;;;;;;;;;;;;;;;;;,3,3    "
};
