/* XPM */
static char *_0a8db2f22d24867e13a9a188f63ccf2_29[] = {
/* columns rows colors chars-per-pixel */
"64 60 64 1 ",
"  c #040204",
". c #D4820C",
"X c #ECC244",
"o c #B43E04",
"O c #FCEAA4",
"+ c #C46604",
"@ c #E4A61C",
"# c #F4D664",
"$ c #BC5204",
"% c #DC920C",
"& c #CC7604",
"* c #FCF6D4",
"= c #F4DE84",
"- c #B44A04",
"; c #D48A0C",
": c #FCFAEC",
"> c #ECCA54",
", c #CC6E04",
"< c #E4B22C",
"1 c #F4DE7C",
"2 c #C45A04",
"3 c #DC9A14",
"4 c #D47E04",
"5 c #B44604",
"6 c #F4DA74",
"7 c #FCFAE4",
"8 c #F4E69C",
"9 c #BC4A04",
"0 c #DC8E0C",
"q c #D4860C",
"w c #ECC64C",
"e c #B44204",
"r c #FCF2BC",
"t c #CC6A04",
"y c #E4AA24",
"u c #F4D66C",
"i c #BC5604",
"p c #DC9614",
"a c #CC7A04",
"s c #FCF6DC",
"d c #F4E28C",
"f c #D48E0C",
"g c #FCFEFC",
"h c #ECCE54",
"j c #CC7204",
"k c #ECBA34",
"l c #C45E04",
"z c #DC9E1C",
"x c #D47E0C",
"c c #BC4E04",
"v c None",
"b c black",
"n c black",
"m c black",
"M c black",
"N c black",
"B c black",
"V c black",
"C c black",
"Z c black",
"A c black",
"S c black",
"D c black",
"F c black",
/* pixels */
"                                    oeoeeeee                    ",
"                                    eeeoeeee                    ",
"                                    oeeee5ee                    ",
"                                    eoeeee5e                    ",
"                                5555----5555                    ",
"                                5555----5-55                    ",
"                                5555-9--55-5                    ",
"                                55559--95555                    ",
"                                oeoee5e5eeee                    ",
"                                eeeee5e5eeeo                    ",
"                                oeoee5e5oeee                    ",
"                                eeeee5e5eoeo                    ",
"                                                --c--5-5        ",
"                                                cc-c----        ",
"                                                -c-c-95-        ",
"                                                -cc---95        ",
"                                ----iiii----iiii++++2$iieeee    ",
"                                -999iii2-999ii2$++++$2iieeee    ",
"                                -9--2$i$9--9ii$i++l+$i2$eeee    ",
"                                -c-9ii2i9-c-2i2$++++$2$ieeee    ",
"                            ---cllllj,jjjjjj,j,j++++cc$c        ",
"                            -c-clllljj,jj,jjjjj,t+++c$c$        ",
"                            -c--lllljjjjjj,j,jj,++++c$c$        ",
"                            -cc-llllj,j,jjjjj,jj+++tcc$c        ",
"                    oooooooe-c-cj,,+;qqqzzzzffff&&j&2l2l5555    ",
"                    oeeeeeoe-c-c,jjjq.q.3zz3fff0&&&&2lil5555    ",
"                    oeoooeoe--$-j,+jqqqqzzzz%f0f&&&&2lll5555    ",
"                    oeoeeoeo-$c-j,j,qq.qzz@zf0ff&&&&lili-595    ",
"        ----+,+++2ll-5-5eeee---cilila...3333%ppp4x4xjjjj$$$$    ",
"        -ccc+,,++lll-5-5eeee--c-lill.a.a3333%p%pa..ajjjjc$c$    ",
"        -c--,+,+llll-5--eeee--c-2lil.aq.33%3%3pp.a..jj,j$$$-    ",
"        -c-c+,,,l+ll-5-5eeee--c-lili..a.3333p%p%..a.,jjj-$$$    ",
"        iiii4aaaaaaaiiiieeee-$-cl+l++,+,,j,jaaaaqqqq3333,+,+    ",
"        ii2iaa4axaxa2iiieeee--c-+i+i,,++jj+&aaaaqq.q3333+,+,    ",
"        iii2a4&axa4ai2$ieoee-$-cl+ll+,,+&jjjaaaaqqqq3333,,,+    ",
"        i2ii4&x&4ax4iiiieeee--$-+i+l,+,+jj+jaaxaqqq.3333+,+,    ",
"    illi++++;0;;****====j,jjl+ll$$$$-$$$-$$-$c$c++++;;;;yyyy    ",
"    llll++++0;0;**r*====jjjjilll$$$$$-$-$--$-$-c+t++;q;;yy@y    ",
"    llll++l+q0;f***r==d=jj,j+lll$$$$-$$-$-$ccccc+++tq;;q@yyy    ",
"    ilil++++0;0;*rs*====jjj,illl$$$$$-$$c$c-$-$c++t+q;;;y@y@    ",
"    iiii,+,,XXXXgggg:s77####&&&&----eeoo    iiiiy@@y88d8ggggiiii",
"    iiiijj,,XXXXggggs:77u#hu&&j&--c9oooo    ii2iyyyy8888ggggllli",
"    iiii,,,,XXXXgggg77s7#uuu&&&&-9--oeoo    iiii@yy@8dOdggggiili",
"    ii2i,j,jXXXwgggg777suuhu&j&j-c-cooeo    i2$2@yyy8888ggggl2il",
"        iiii;q;qu6u6sssskkX<8888yyyywwww;;;f****yyy@hhhh>h>h9--9",
"        iiii;qqq#uuuss7sk<XX8888yyyywXwwff0;****yyyyh>>h>>>>9-9-",
"        i2i2qq;q6u6u7sssXk<X888OyyyyXwwXf;;0****yyyy>hh>h>hwc9-9",
"        ii2iqqqq#uuuss7skX<X8888yyyywwwwff0;****yyy@h>h>>whh9---",
"ffff&j&j%f0fy@yyggggggggggggkkkk666#gggggggggggg88O8d11d4.44$$i$",
"%%%f&&&&f0f%yyyyggggggggggggkk<Xu666ggggggggggggOO8r11d14444$$$i",
"ff%f&&j&0f%fyyyyggggggggggggk<X<6666ggggggggggggOOO8d11=44x4$i$$",
"%fp0&&&&0%f0yyyyggggggggggggkk<k6666ggggggggggggOO8r1d1d444ai$$$",
"dd=drrrryyyy8888gggggggggggggggg77s7ggggggggggggfpff+,+t,,j,    ",
"ddd=rrrr@yyy8888gggggggggggggggg7777gggggggggggg%ffp+,+,,,,,    ",
"d=ddrrrryyyy8dOdgggggggggggggggg77s:gggggggggggg%f%f,+,+j,j,    ",
"ddd=rrOryzyy88Odgggggggggggggggg:7:7gggggggggggg%f%f,+,+j,,,    ",
"gggggggggggg7777=1=1ggggggggy@y@gggggggggggg<<<<++++--------    ",
"gggggggggggg:77:111=gggggggg@@@@gggggggggggg<y<yt+t+99-9c---    ",
"gggggggggggg:7:71=11ggggggggy@y@gggggggggggg<<<<++++-9--9-c9    ",
"gggggggggggg:7::116=gggggggg@@@ygggggggggggg<y<yt+t+9-9-c-9-    "
};
