/* XPM */
static char *_0a8db2f22d24867e13a9a188f63ccf2_19[] = {
/* columns rows colors chars-per-pixel */
"64 48 64 1 ",
"  c #040204",
". c #D4820C",
"X c #ECC244",
"o c #B44204",
"O c #C46204",
"+ c #FCF2C4",
"@ c #E4A21C",
"# c #F4DE7C",
"$ c #BC5204",
"% c #CC7204",
"& c #DC920C",
"* c #FCFAE4",
"= c #E4B22C",
"- c #ECCE54",
"; c #C46A04",
": c #BC5A04",
"> c #D48A0C",
", c #ECCA4C",
"< c #B44A04",
"1 c #F4E69C",
"2 c #CC7A04",
"3 c #DC9A14",
"4 c #FCFEF4",
"5 c #ECBA34",
"6 c #ECC644",
"7 c #FCFADC",
"8 c #E4AA24",
"9 c #DC9614",
"0 c #E4B62C",
"q c #CC6A04",
"w c #C45A04",
"e c #DC8E0C",
"r c #B44604",
"t c #C46604",
"y c #FCF6D4",
"u c #F4E294",
"i c #BC5604",
"p c #CC7604",
"a c #DC9214",
"s c #FCFAEC",
"d c #F4D264",
"f c #D48E0C",
"g c #BC4E04",
"h c #F4EA9C",
"j c #D47E04",
"k c #FCFEFC",
"l c #ECC64C",
"z c #E4AE24",
"x c #E4B634",
"c c #CC6E04",
"v c #C45E04",
"b c None",
"n c black",
"m c black",
"M c black",
"N c black",
"B c black",
"V c black",
"C c black",
"Z c black",
"A c black",
"S c black",
"D c black",
"F c black",
/* pixels */
"                        oooo<$$<:iiirrrr                        ",
"                        oooo$$$$iiii<<<r                        ",
"                        oooo$$$$iwiwrrgr                        ",
"                        oooo<$$$iiiigrrr                        ",
"                        <<<<;;;qppppqqc;iiiioooo                ",
"                        <g<gcq;qpp%pq;;ci:iirrro                ",
"                        <g<g;;q;ppppc;c;wiwiooro                ",
"                        <g<g;q;qp%p%c;c;iiiworor                ",
"        oooooooo        oorow:vw;qq;tqttwiiirrro                ",
"        oooooooo        ooor:v:vt;tqtOtqiiwirorr                ",
"        oooooooo        oroo:vw:q;q;tqttiwiirrro                ",
"        oroooooo        ooor:v:v;qtqtOtqiiiworrr                ",
"        ::::$$<$oooooooo<<<g$$$g:w:wi$$$g$g$gggg::v:<g<<        ",
"        i:::$$i$oooooooo<$g<$g$$:v:wiii$$g$g<$<$vv:vg<gg        ",
"        :wi:$$$$oooooooo<<$g$g$g:w:v$$w$g$g$$g$g:v:Ogg<g        ",
"        i:w:$i$$oooooooo<g<g$g$$:v:wi$$ig$g$<$<$:Ov:g<$<        ",
"    rrrrOvOv;;;;;%;;;p;p::v::i:ivv:vi:iiwiiitOtt.j..f&f&tttt    ",
"    rrrrvOvOqq;q%%%%pppp:v:w:wiw:vv:wiwiiwiwOOOOj.2.f&f&;q;q    ",
"    rrrrvOvO;;q;%;%;pp%p::w:wiiwv:vviiiiwiiwOOtO.2..f&f&ttqt    ",
"    rrrrvO:Oq;q;%%%%p%p%:v:w:wi:vv:v:iwiiwiiOOOO...jf&fatqtt    ",
"    $$$$%%%%.2..pp2ptttt$$i$$g$$c;%c33335055kkkk====ffefpppp    ",
"    $$i$%%%%...222p2OtOt$$$$$$$g%%;%393905xxkkkk==z0ef>epppp    ",
"    $$$$%%%%2...2pjptttt$i$i$g$$;%%c33335x55kkkk====feffpppp    ",
"    $i$i%%%%..2.p2pptOtt$$$$$$$$;%;%939305x5kkkk====e>e>pppp    ",
"    i:i:222200001h1hj.jj$g$<pp%pyyyy++++4444####XXXXeffeee>eoooo",
"    iwiw2j2200001h1hj.2.<$g$ppppyyyy++++4sks####XX5Xfe>f>>e>oooo",
"    i:wijpjp5==51h1h.j..$<$gp%p%yyyy++++kskk####XXXX>efe>e>foooo",
"    iwii2jp2=5=01h11.j.2$$<$ppppyyyy++++ksks####XX5Xfe>fe>e>oooo",
"    ;tq;39338888==5=.>>>....kkkkkkkkkkkkkkkklXlX.>>>j2.j%%%%    ",
"    ;q;q33338888=zz=e.>>....kkkkkkkkkkkkkkkklllle>>>jj2j%%%%    ",
"    t;qt3333z8z8==z=.f>>....kkkkkkkkkkkkkkkkllll>.>>j2.2p%%%    ",
"    ;qt;33338888====e.>>....kkkkkkkkkkkkkkkkl6l6>e>>j.jj%%%%    ",
"    t;q;9993%%%%OOOOcccc,-,-kkkk****1u1u6l6l====e>>>kkkkkkkk;t;t",
"    ;qtq9399%%%%tOOOcccc-,-,kkkk****uuuu6666====>>e>kkkkkkkkq;q;",
"    t;q;9999%%%%OOtOcc;%,-,-kkkk****uuuu6666====e>>ekkkkkkkkq;tq",
"    ;q;;9939%%%%tOOtcc%c,d,-kkkk****uuuu666X====e>>>kkkkkkkk;q;;",
"    kkkkXXXXzzzziiii$$$$tOtqjjjjaaa&z=zz@@@@zz88kkkkh1h1ddddgggg",
"    kkkkXX5Xzzzzi$i$i$i$ttOO22229f9f=zz=@@@@z8zzkkkk111hd-dd$<$g",
"    kkkkXXXXzzzziiii$$$$ttttjj.29a9&z=zz@@@@zz8zkkkkh111dddd$<$<",
"    kkkkXXXXzzzzi$i$i$i$tOqO2j2.f9f9zz=z@@@@zz8zkkkk1h1hddd-$$<$",
"kkkklll6,66,++++**s*kkkkefef%c%c;c;cXXX6kkkkkkkkkkkkkkkkkkkkkkkk",
"kkkkl66ll,,6++++*s*skkkkefeec%c%;q;;6XXXkkkkkkkkkkkkkkkkkkkkkkkk",
"kkkkl6l6,l,l++h+*ss*kkkkefefc%c%;cq;X6X6kkkkkkkkkkkkkkkkkkkkkkkk",
"kkkkl6l6,l,l++++s*sskkkkefef%c%c;q;cXXXXkkkkkkkkkkkkkkkkkkkkkkkk",
"z8z8kkkkdddd2222x050e.f>XlXXkkkkkkkkkkkkkkkkkkkkkkkk1111**7*eefe",
"888zkkkkdddd2j2jx05=>>>>XXX6kkkkkkkkkkkkkkkkkkkkkkkk11117y*yfeff",
"z888kkkkdddd.22jx5=x>.e.6XXXkkkkkkkkkkkkkkkkkkkkkkkk1111****efef",
"8z8zkkkkddd-.2j25=x5.f>>X6X6kkkkkkkkkkkkkkkkkkkkkkkk1111y*y*>eff"
};
