/* XPM */
static char *_0a8db2f22d24867e13a9a188f63ccf2_28[] = {
/* columns rows colors chars-per-pixel */
"64 56 64 1 ",
"  c #040204",
". c #D4820C",
"X c #ECC244",
"o c #B44204",
"O c #C46204",
"+ c #DCA21C",
"@ c #FCEAA4",
"# c #BC5204",
"$ c #CC7204",
"% c #DC920C",
"& c #F4D66C",
"* c #ECBA34",
"= c #FCF6DC",
"- c #D48A0C",
"; c #B44A04",
": c #C46A04",
"> c #BC5A04",
", c #CC7A04",
"< c #ECCA4C",
"1 c #E4AA24",
"2 c #DC9A14",
"3 c #FCF2BC",
"4 c #FCFEFC",
"5 c #DC8E0C",
"6 c #BC4A04",
"7 c #CC6A04",
"8 c #C45A04",
"9 c #D47E04",
"0 c #ECCE5C",
"q c #D4860C",
"w c #B44604",
"e c #C46604",
"r c #E4A61C",
"t c #FCEEAC",
"y c #BC5604",
"u c #CC7604",
"i c #DC9614",
"p c #F4E28C",
"a c #ECBE3C",
"s c #FCFAE4",
"d c #D48E0C",
"f c #ECCA54",
"g c #E4AE24",
"h c #DC9E14",
"j c #BC4E04",
"k c #CC6E04",
"l c #C45E04",
"z c #D47E0C",
"x c None",
"c c black",
"v c black",
"b c black",
"n c black",
"m c black",
"M c black",
"N c black",
"B c black",
"V c black",
"C c black",
"Z c black",
"A c black",
"S c black",
"D c black",
"F c black",
/* pixels */
"                                oooo;;j;j;#;wowo                ",
"                                oooo;jj;#j#jwwww                ",
"                                oooo;j;j#;#;wwwo                ",
"                                oooo;#j;#j#jwwww                ",
"                            wwww;###yyyy####wwww                ",
"                            wwww###;>8y8j##;;www                ",
"                            wwww#j##yy#y####wwww                ",
"                            wwww####y8yy#j##wwww                ",
"                            oooow;w;6;66;w;wwowowwwwoooo        ",
"                            oooow6;6;6;;;w;wwwwwwwwwoooo        ",
"                            ooooww;w6;j6;6w6wowo;w;woooo        ",
"                            ooooo;6;6;6;ww;wwwwwwwwwoooo        ",
"                                    w;w6888>OOOO8>8>####wwww    ",
"                                    wwww>>8yOOOO>8>8yyyywwww    ",
"                                    w6w68y88OeOe8y>yyyyywwww    ",
"                                    wwww8>>8OOOO>8>8y#y#wwww    ",
"        oooo                owowyyy>OeeO,9,,9.9.u$u$OOOejjjj    ",
"        oooo                wwwwy8>8OeO7,9,9,.,.uuuuOeOOj#;#    ",
"        oooo                owow>8yyeOeO9u,z,.,.$u$uOOOej;#j    ",
"        oooo                wwww8y8y7OOO,z,,.9.,uuuuOOOO##j;    ",
"                        ooooyy8y7:kk..qq.9......$$$$8>8>oooo    ",
"                        owwwyyyykk:k.q.....,....$u$u8>>8oooo    ",
"                        owooy8yyk:k:qqq.......,.$$$$>8yyoooo    ",
"                        owowyyy8:kkkq..q.,......u$u$>8>8oooo    ",
"        wwww        ;;;;w;w;yyyy....222iaa*a++r+----7e:ey#y#    ",
"        w;;w        ;6;6w;w6#y#y..,.2i22*aaa+g+r---q:7:7yyyy    ",
"        w;6w        ;;6;w6w;yy8#....2222aaaa+rrr----7e7eyyyy    ",
"        ww;w        ;6;;w;w6#y#y9..,22i2*aaa+g+r---q:7::8#8y    ",
"        >88>q.q.$$$$####6;6;####OOeeddddggggg+grdd%%...9llll    ",
"        >8>8qqqq$$$$####;6w6####OOOOd%5dggggggrgdd%d....lll>    ",
"        >8>8q.q.u$u$####w;6;####OeOe5dd%ggggg+grdid%....O>OO    ",
"        >8>8qqqq$$$u####6;w6####OOOOd%ddggggg+g1dd%d....>OOl    ",
"        eeeedd5d%idilOlOwwwwyyyyk:k:uuu,,,,,--q-iiii****.,.,    ",
"        OeOe5d5didi%OlOlwwww8y8#k:k:uuuuz,,,qqqq%i%i**a*..,.    ",
"        eeee5d%di%idOlO>;w6wy#yy7:kkuuuuu,,,q-q-%id2****,..,    ",
"        OeOe5d%d%%i%O>OOwwwwy8yyk::kuuuuzuzuqqqqidhi*a*a,,..    ",
";;;;$$$u$$$$hhhh44444444..9.:7:k>8>8yy8####y####:$::222h&&&&;;;;",
"666;uu$uk$k$hhhh44444444....:k:k>8>8y##yyy#y####::::h222&&&&;;j6",
";;j;u$u$$$$$hh+h44444444..,.:k:k>8>8yyyy##8#j#;#:$k:h222&&&&;;;j",
"j;66u$u$$$:$hhh+44444444....:k:k>8>8y#y#8#######k:kk2222&&&&;#;;",
"    OOOO,,,9pppp444444444444qqqq###jwwwo    >O>O000044444444$:$k",
"    lO>O,uzupppp444444444444qqq.#j##woww    lOll000044444444:$:k",
"    OOOO,uu,pppp444444444444qqqq###;wwwo    >O>O000044444444$kkk",
"    >OOO,zuzpppp444444444444qq.qj###wwww    lOOl00&<44444444k:$k",
"    wooo>88>55q533334444fff<4444<<<<4444+h++4444****pppptttt#y##",
"    oowol>l8d55-33334444f<f<4444f<f<4444rhrh4444****pppp@ttt###y",
"    oooo>l>lddd533334444f<ff4444<f<f4444rhhr4444***gpppp@ttt####",
"    owow>l>ld5dd33t34444f<<f4444f<<<4444hr+h4444****pppp@t@t;y#y",
"&&&&----gggg****444444444444XXXX@@@@44444444444444444444q..q:::7",
"&&&&----gg1g****444444444444XXXX@p@p44444444444444444444qqqq:kk:",
"&&&&----ggg1****444444444444XXXX@@@@44444444444444444444qq.q:7:k",
"&&&&d--51ggg****444444444444XXXX@p@@44444444444444444444qqqq:k:7",
"44444444***a====4444444444444444ssss44444444444455d57:7:9,9,    ",
"44444444aa*a====4444444444444444sss=444444444444d5dd7:7ez,z,    ",
"44444444a*a*s==s4444444444444444ssss4444444444445d5d:7::9,z,    ",
"44444444a*a*====4444444444444444ssss4444444444445dd5::7e9,.,    "
};
