/* XPM */
static char *_0a8db2f22d24867e13a9a188f63ccf2_6[] = {
/* columns rows colors chars-per-pixel */
"64 60 64 1 ",
"  c #040204",
". c #D4820C",
"X c #B43E04",
"o c #C46204",
"O c #F4DA74",
"+ c #E4A61C",
"@ c #BC5204",
"# c #CC7204",
"$ c #DC920C",
"% c #B44A04",
"& c #E4B22C",
"* c #D48A0C",
"= c #C46A04",
"- c #BC5A04",
"; c #CC7A04",
": c #DC9A14",
"> c #B44604",
", c #FCFEFC",
"< c #E4AE24",
"1 c #BC4A04",
"2 c #ECBA34",
"3 c #DC8E0C",
"4 c #CC6A04",
"5 c #C45A04",
"6 c #D47E04",
"7 c #D4860C",
"8 c #B44204",
"9 c #C46604",
"0 c #F4DE84",
"q c #E4AA24",
"w c #BC5604",
"e c #CC7604",
"r c #DC9614",
"t c #E4B62C",
"y c #D48E0C",
"u c #DC9E14",
"i c #BC4E04",
"p c #CC6E04",
"a c #C45E04",
"s c #D47E0C",
"d c None",
"f c black",
"g c black",
"h c black",
"j c black",
"k c black",
"l c black",
"z c black",
"x c black",
"c c black",
"v c black",
"b c black",
"n c black",
"m c black",
"M c black",
"N c black",
"B c black",
"V c black",
"C c black",
"Z c black",
"A c black",
"S c black",
"D c black",
"F c black",
/* pixels */
"                            8888                                ",
"                            8888                                ",
"                            8888                                ",
"                            8888                                ",
"                        >>>>%%@%%i%%>>8>XXXX                    ",
"                        >>>>@@i@i@%@>>>8XXXX                    ",
"                        >>1>ii%@%@i%>>>>X8XX                    ",
"                        >>>1%@@i%@%@>>8>XX8X                    ",
"                        >>>>@@@@--5w5w5w%%%%>>>>XXXX            ",
"                        8>>8@@i@w5w-wwwwi%%@>%>>888X            ",
"                        >>>>@@@@w-5w5w5w%@%%%>1>XX8X            ",
"                        8>8>i@%@-5w5wwwwi%ii>>>>88X8            ",
"    8>8>wwww%>%>    XXX8%%1%w-5w99994=4=aooa@i@@>>>>            ",
"    >>>>w5-5>1%1    X88X%i%iw5w5949949=4aoaoi@i@>>>>            ",
"    8>8>-w5w%1>%    X8X8%%1%5ww59949=49=aoao%@@i>>>>            ",
"    >>>>w5w5>%1>    X8X8%%i%5w5@999494=4ao-o@@i@>>>>            ",
"    %@@@a-oawwww%>%%>>>>@%@iaaao94994=4=aaaai%@%>888            ",
"    @@@%ooa-5w5@1%1>%>%>%@i%ooao99994=4=a-a-@@i@8888            ",
"    @%@@a-oowwww1>%1>>>%@i@@ao-o94994=4=aaaai%@%>8>8            ",
"    @@@@ooa-5w5@%1%>%>>>i%@%oooa999=4=4=aa-a@@i@8888            ",
"    %%1%ww-wiii@>>>>1%1%a-a-oooo94995--5%ii%8>8>                ",
"    %1%iww5w@@i@>>>>1%%1-5-ao9o9994o-5w-1%ii8>8>                ",
"    %i%1-www@i@i>>18%1>%5-5-oooo9994w5-5i1%i8>8>                ",
"    %1%1w5w5i@%@>>>>1>1%5-a-9o9o499o5-w-1%i%>8>8                ",
"    %1%i9o99wwwwii1%9o9o;e;e4=4=5aaa=4=477779=9=ao-o====        ",
"    %i%1999ow5w5%i%i9o9o6ee6===4-a-a9=49...79449oooo444=        ",
"    %1%19o94@wwwi%ii9o9oe6ee4=4=a-a-4=9=77.79994oooo==p=        ",
"    %1%i99o9w5@5%ii%9o4oeees94==aaa-=4=4.7.7=49=aoao=p=4        ",
"    w-5waaaa@@@@@@@@9ooo7.7.uuuueee6#ee#6;.;6;.6e;e;ppp=a--5    ",
"    w5w-aa-a@@@@@@@@o9o9.7.7uu:ueeeeeeee..;..;6;;;e6=#p#-aa-    ",
"    w-5waaaaw@w@@@@@9o4o.7.7:uuue6eee#ee6;..;.;.;esepp=#a-a5    ",
"    w5w-a-o-w@@w@@@@9oo9.7.7uu:ueeeeeee#..;.;.;.e6#e#p#p-a-a    ",
"    >8>>1%i%>>>>wwww....yyyy66sspp#p55@5@wwwa-a-5w-5-a-awww@    ",
"    >>>8%i%1>>>>5www.;..y3y3;;s;#pppw@5@w@@@aaa--5wwa-a-wwww    ",
"    8>>>1%i%>1>>w5@5....yy3y6;s;#pppwwww@ww@a-5aw5w5aa-ow@5@    ",
"    >8>>%1%i>>>>w@ww6..;$yy3;s;.p=#=5w5w@5@@a5-aww5w-aaaw@@w    ",
"    ::::&&<&oooa4o4o:r::y3y3....wwww@iii#pp#;;6;99o99999ppppw@w@",
"    ::::<&<&aooa9o9o:r:ry3y3....wwwwi@%@=##=6s;so9o49499p#=#wwww",
"    ::::<&<&oaoo994o:r:r3y3y..;.w@wwi@@@##=e;6;6o9oo9o49pp#pw@w@",
"    ::::<&<&oooa9oo9r:r:y3y3....ww@w@%@%###p;s;so9o4o999pp=#wwww",
"oooo::::++++yrrr#ee#6;6;ppp=@@@%8888>>>>a-oa9o9o55-5w5@5o999    ",
"oooo::::++++rrrr#e#e6;6;#p##@%@@88888>8>ao-ooooo-5-5wwww9999    ",
"9o9o::::++++rryre#e#;s;sp=#=@@@@8888>8>8-ooao9o4w5-5ww5@99o9    ",
"ooo9::::++++y:rr#e#es;6;##=#@@@@8888>8>>oa-ooooo5-5-5@wwo99o    ",
"-5--****;;;;7...yrry,,,,s;.6>>>>----6;6;@@@i%iii%iii994o8888    ",
"--5w3***;;;;....rry:,,,,6.;6%>%>aaaa;.6s@ii@i%i%@i%i9o948>88    ",
"5w-5**3*6;;;....$rr$,,,,s;.6>>1>a-a-.;.;@@%@%@ii%i%i999988>8    ",
"-5-w****6;s;....yrrr,,,,s.;6%>>>a-a5;.;.i@@@i%i%ii%i94948888    ",
"a-aa####5-aa%%%%====ppp=########w@wwwwww>8>8    888X%%1>oooo777*",
"aa-a####-a-a%i%i==9===p=#####e##w@w@www@>8>8    XX8X%%%1oaoa**7*",
"-aa-e###aa5-i%1%4=4=4p=p##p###e#w@5@w@5@>8>8    X8X8%%1%oooo7*7*",
"a-aa####--aa%1%i=94=4=p=########w@@@5@ww8>8>    X8X8%%%1o-oo7*7*",
"OOOO;;;6**7*2t2t2&ttrryri%@%>>>>6.6.qqqqaoao8>8>@%w%y$$y##=#%i1%",
"0OO0;.;6*7*72222tt2&$rrr%@i@>>>>6.;.q+qqoao->>>>@w@wyry$=#pp%%i%",
"OOOO;6;s7*7*t222t&&t$ryr@i%@8>8>;...+<q+o-oo>>8>@@@@y$$y#p#=i%i%",
"O0OO;s;s7*73t2t2tttt$rry@@ii>>>>..;.q+qqoooa>>>>@@@@yryrp=##%i%i",
"6.;7,,,,<<<<0000,,,,e#e#ryrr,,,,,,,,::::---arryr=#=#-oaa99oo    ",
";..;,,,,<<<<0000,,,,####rrry,,,,,,,,::::-oa-rrrr#=##a-o-oo9o    ",
".;..,,,,<<<<0000,,,,e#e#ryrr,,,,,,,,::r:--aar$rr=#=#aaaa9ooo    ",
".;.;,,,,<<<<0000,,,,####r$$r,,,,,,,,::::-o-arr$r###=o-oaoo9o    "
};
