/* XPM */
static char *_0a8db2f22d24867e13a9a188f63ccf2_27[] = {
/* columns rows colors chars-per-pixel */
"64 56 64 1 ",
"  c #040204",
". c #D4820C",
"X c #ECC244",
"o c #B43E04",
"O c #C46204",
"+ c #DCA21C",
"@ c #DC920C",
"# c #FCEEB4",
"$ c #BC5204",
"% c #CC7204",
"& c #F4D664",
"* c #E4B22C",
"= c #DC9A14",
"- c #B44A04",
"; c #C46A04",
": c #BC5A04",
"> c #D48A0C",
", c #ECCA4C",
"< c #E4AA24",
"1 c #CC7A04",
"2 c #B44604",
"3 c #DC9614",
"4 c #FCFEFC",
"5 c #F4E694",
"6 c #ECBE3C",
"7 c #DC9E14",
"8 c #CC6A04",
"9 c #C45A04",
"0 c #D4860C",
"q c #ECC64C",
"w c #B44204",
"e c #C46604",
"r c #E4A61C",
"t c #DC9214",
"y c #FCF2C4",
"u c #BC5604",
"i c #CC7604",
"p c #F4D66C",
"a c #E4B634",
"s c #BC4E04",
"d c #D48E0C",
"f c #ECCA54",
"g c #E4AE24",
"h c #D47E04",
"j c #DC9E1C",
"k c #CC6E04",
"l c #C45E04",
"z c None",
"x c black",
"c c black",
"v c black",
"b c black",
"n c black",
"m c black",
"M c black",
"N c black",
"B c black",
"V c black",
"C c black",
"Z c black",
"A c black",
"S c black",
"D c black",
"F c black",
/* pixels */
"                                        wwwwwwww                ",
"                                        w222222w                ",
"                                        w2wwww2w                ",
"                                        w2w22w2w                ",
"                            oooo-s-s::::l::l-$-$oooo            ",
"                            oooo-$ss:99:lll:$$s$wwwo            ",
"                            oowo$-$-l:l:l:lls-$-woow            ",
"                            oooo-$-$:9:l:l:l$$s$owwo            ",
"                        wwww$-u-O:OlOOOOll:l-$-$wwww            ",
"                        wwww$$$u:O:lOOOO:ll:$s$-2w2w            ",
"                        wwww$$-u:OllOOOOl:l9s-$$wwww            ",
"                        wwww-u$$:O:OOOOOl:l:$$s-2w2w            ",
"                            -2--$$$$$uu$$s$s-s-$$$$$----        ",
"                            2-22$$s$u$u$$s$$s-$-$-$$-s-s        ",
"                            2-2-$$$$$u$us$ss-$ss$$$$--s-        ",
"                            2-2sss$$$u$us$s$-s-s$$-$-s-s        ",
"        wwwwwwwwoooo            owoo$s$s;e;;iiiiee;;eeeeuuuu    ",
"        wwwwwwwwowwo            owow-$$-8;88iiiie8e8OeeOuuuu    ",
"        wwwwwwwwwowo            owow$$-ue8eeiiii8eeeee8O9$9$    ",
"        wwwwwwwwowow            owow-$$s;e8eiiiiee8eeOOeuuuu    ",
"    --------2222-2-2wwww2w2w-$s-;;;;i%i%@d@@33330000%%%%9l9l    ",
"    -s2s-s---222-2-2222w2222$$$$;;e;%i%idtdt3@3@0000%%%%:l:l    ",
"    2-s2sss-2-22-2-22ww22w22ss$s;;;;%i%idt@d33330>0>%%%%l:O:    ",
"    -s2-s-ss22-2-2-22w2w222w$$s$;8e8%i%itd@t33d30000%%%%:Ol:    ",
"        owow    wwww2222-s-sOeOe1h1h====d3d3dd3d0...OOOO-s2-    ",
"        wwwo    wwww2w2w-s-sOeOeh1h17===@d3d3@3d0...OOOO-2s2    ",
"        owww    wwww2222s-s-eOeOh1.1====d3@@d3d@....OOOOs22s    ",
"        wowo    wwww2w22s-s-eOeOh1h1j===3d3d3d3d0...OOOO2s22    ",
"        uuuuwowowwwwuuuus$s$llll3333gg*g5555XX6X777711i18e8;    ",
"        uuuuwwwwwwwwuu9$$s$-lll:3333gggg55556X6X77771ihie;;8    ",
"        uuuuwowowwwwuuuus$-ul:Ol3333g*gg55556X6X7777hiii88e;    ",
"        uuuuwwwwwwwwuuu9-$$slOl:33@3gg*g55556X6X+77jiihi;;8e    ",
"        ;k8;+<++d>d>:ll:$$$$::9:;;;;7j7jXXXX6X66+r7r3333kk%k-2-2",
"        ;k;k<+<<d>ddl:ll$s$$:9:9k;k;77j7qqqq6666+r7j333=%;%%-s2s",
"        ;k;k+<r+dd>>ll:l$$$s:9:9;k;k7j7jqqqq6X66+7r7=333%%%;s22s",
"        ;k;k<+<<d>@>l:l:$-$$:9:9;8;877j7qqqq6666+r7r33=3%;%%2s22",
"        %i%i+<+r*gggkkk;s-s-OOOO11h1.....h.h3d3@+rr+55553=33    ",
"        %i%i<+rr*ggg8;kk-s-sOOOOh11h.....h.h33d3r+<r5555@3=3    ",
"        %i%ir<rr*g*gk;k;s-s-OOOO1hi1.....h.13d3@<+r+55553333    ",
"        %i%i+r<rgggg;kk;s-s-OOOO1ihi.....1..d3@3+rrr5555@3=3    ",
";;;;@dd31.1.**g*44444444@@d3h1h1OOOO9:9::9::u$u$%i%%<rrr4444l:l:",
"888;@33d.h.1*g*g44444444t3d31h1hOOOOl:l:9:9:$$$u%%%;g<<g4444llll",
";;8;@d331.1.g*g*44444444@d3@1.1hOOOO:9:l::9uu$$$%;%%<g<<4444ll:O",
"8;8;@3d3.1..g*g*44444444t3d31h1.OOOOl:9:9u:9$$u$%%%%<<g<4444lOll",
"2222k;k;.0..4444444444444444==33:u9u-s-sowowe;e;4444444444440000",
"-2s28;8;....444444444444444433=3:9u:s-s-wowo;8e844444444444400.0",
"22228;k;....4444444444444444=333uu9us-s-wowoe;8e4444444444440000",
"s222k;8;....444444444444444433=3:9u:s-s-wowweee844444444444400.0",
"wwww2s22O:O:3@t@44444444p&p&4444####4444aaaa4444qXqXyyyy4444l9l:",
"w2w22222OlO:3d3d44444444&&&p4444####4444aa*a4444XXXXyyyy4444l:l9",
"wwww22s2l:OOd3@@44444444p&fp4444####4444aaaa4444qXXXyy#y4444l9:l",
"2w2w-222lOll@d3d44444444&ppp4444####4444a*aa4444XXXX#yyy4444l:l:",
"44447777&&&p,f,f444444444444ff,f####44444444444444444444>>>>>@>@",
"4444rjjrpp&p,f,f444444444444,f,f####44444444444444444444>>>>>>>>",
"4444j777&pfpf,f,444444444444f,,f####44444444444444444444>>0>@>@>",
"4444j7jj&ppp,f,f444444444444f,f,####44444444444444444444>>>0>>>@"
};
