/* XPM */
static char *_0a8db2f22d24867e13a9a188f63ccf2_30[] = {
/* columns rows colors chars-per-pixel */
"64 60 64 1 ",
"  c #040204",
". c #D4820C",
"X c #ECC23C",
"o c #B43E04",
"O c #C46204",
"+ c #FCEEB4",
"@ c #DCA21C",
"# c #BC5204",
"$ c #F4D66C",
"% c #CC7204",
"& c #E4B22C",
"* c #ECCE5C",
"= c #B44A04",
"- c #DC9A14",
"; c #FCF6DC",
": c #BC5A04",
"> c #D48E0C",
", c #ECCA4C",
"< c #C46A04",
"1 c #E4AA24",
"2 c #CC7A04",
"3 c #ECC644",
"4 c #B44604",
"5 c #F4E28C",
"6 c #ECBE3C",
"7 c #BC4A04",
"8 c #FCFEFC",
"9 c #C45A04",
"0 c #D4860C",
"q c #ECC244",
"w c #B44204",
"e c #C46604",
"r c #FCEEBC",
"t c #E4A61C",
"y c #BC5604",
"u c #F4DA74",
"i c #CC7604",
"p c #E4B634",
"a c #F4D264",
"s c #FCFAE4",
"d c #DC8E0C",
"f c #CC6E04",
"g c #E4AE24",
"h c #D47E04",
"j c #BC4E04",
"k c #C45E04",
"l c None",
"z c black",
"x c black",
"c c black",
"v c black",
"b c black",
"n c black",
"m c black",
"M c black",
"N c black",
"B c black",
"V c black",
"C c black",
"Z c black",
"A c black",
"S c black",
"D c black",
"F c black",
/* pixels */
"                                    oooo                        ",
"                                    owwo                        ",
"                                    owow                        ",
"                                    owow                        ",
"                                                                ",
"                                                                ",
"                                                                ",
"                                                                ",
"                                    oooo                        ",
"                                    owwo                        ",
"                                    owow                        ",
"                                    owow                        ",
"                                ooowowow                        ",
"                                owwowowo                        ",
"                                owowowow                        ",
"                                owowowow                        ",
"                            wwww#==y::e:=444    oooo4444        ",
"                            wwww#y#=<O:e4444    owww4444        ",
"                            wwww=##yOOeO4=44    owoo=4=4        ",
"                            wwww####:OOO4474    owow4444        ",
"                            w4w4O:OOi%%%OOOOkO:Oeeee###j        ",
"                            4444:e:O%%i%OO:OOOOO<e<e=#=#        ",
"                            w4w4OOO:i%%%OOOOOOOOeee<####        ",
"                            4444:OOO%%i%OOO:OO:Oe<eej#=#        ",
"        ooooyyyy=#=#oooo    www4####%%%%0000.00.%f%fOOOO4w4w    ",
"        owwwyyy:###=wooo    w44wy#y#%%%%0000....%f%<OOOk4444    ",
"        owoo:yy9j=##oooo    w4w4####%%%%00000.0.%<%%OOOO4w4w    ",
"        owowyyyy###=wwoo    w4w4#y#y%%%%0000....%%%fOO:O4444    ",
"        ====<<<e<<<<====    w4w4----6X6Xeee<<%%<iiii....:y:y    ",
"        ====<eefefef====    w4w4----6X6Xe<ee%<%%iiii.2..:99:    ",
"        =j=jefeefeef7j=#    w4ww----66qp<ee<f%<%iiii....y:9y    ",
"        =7=7<eeeefee=j==    w44w----66qX<eeef%ffiiii..2.:9y9    ",
"    ===7::9yhhhhqXq3&&&&OOOO####66668888X6XX===jkkkk22220000    ",
"    =7=7y9y:2i22qqqX&&&&OOOO####X6X68888q6X6=j7=k:Ok2ihi0000    ",
"    =7=jy:9yh2h2qq3q&g&geOeO####6X6q8888X6q6=7==kkk:hihi0000    ",
"    =j=7:9yyh2h2qqqq&&&&OOOe####X6qp8888q6XX==j7k:Ok2ihi0000    ",
"    =7=7OOeO1tt1rr++$$$$&&&&eeee4444XqX6*****a**>d>>6q66uuuu=4=4",
"    =7=jeOeO1111+rrr$$$$g&&g<e<e4w446X6q****a,*a>>d>6X6quuuu=7=7",
"    =j=7OeOe11@1+r+r$$$$&&&&eeee44446X6X*a*a,a*a>d>d6q6Xuuuu=474",
"    =7=jOeOet111+r+r$$*$&&g&efee44w46qp3**a,*a,*d>>>6X6Xuuuu===7",
"    22hi####h.2.XXXXuuuu1tg16666>>>>rrr+++++++++****ppppggg1ooow",
"    ihi2####2..2XXXXuuu$g111p6p6dd>dr+rrr+r+r+r+*a,a&6&pggggwwow",
"    iihi####.2..6pqXuuuu@g1tX666>>d>r+r+rr+rr+r+**a,6&ppgg1gowow",
"    2hii####.2.23XXpuu$ug@g16666>d>-+rr+r+rr+rr+a**a&pppggggowow",
"OOOOOOOOhihi----88888888++++g@gg3333888888888888***aXXXXi%i%wwww",
"OOOOOOOO2ihi----88888888rrr+ggg13333888888888888**a,X666%i%iwwww",
"eOeOeOeOhiih----88888888r+r+ggg133q3888888888888a**aX66X%i%iwwww",
"OOOOOOOOihii----88888888rr+rgg@g3333888888888888a*a,X666i%i%wwww",
"@t@@3333----aa*arrrr88888888uuuu+rrr88888888ssssu$uuuuuuOOOO    ",
"@-t-333q--d-a*$ar+rr88888888uuuu++rr88888888ss8suuuuuuuuOOOO    ",
"t@@t3333----a$*$+r+r88888888uu$u+r+r88888888ssssuuuuuuuuOOOO    ",
"@-t-3q3q-d--*$*$+r+r88888888uuuu+r+r88888888ssssuuuuuuuuOOOO    ",
"33338888++++55555555uuuuuuuu&&g&88888888s;s;uuuugggggggggg1g    ",
"33q38888++++55555555uuuuuuuu&&&&88888888;;;suuuu11g1g1g@g1g1    ",
"33338888++++55555555$u$uu$u$&g&&88888888s;;;uuuugg1g1ggggg1g    ",
"3q338888++5+555555u5uuu$uu$u&&&&88888888;s;suuuu1g1g1g@gg@&1    ",
"t@t@,,,,t@@@OOOO..0.8888888888888888$$$$8888g1g12i2iuuuu=#==#=#=",
"@@@@,,*,t111OOOO0..08888888888888888$$$$8888g1g12i2iuuuu#=######",
"t@@@,,,,t@1@eOeO....8888888888888888$$$$8888g1g12i22uuuu=#==#=#=",
"@-t@,,a31t1@eOOO0.0.8888888888888888$$$$8888g1g12ihiuu5u#=######"
};
