/* XPM */
static char *_0a8db2f22d24867e13a9a188f63ccf2_21[] = {
/* columns rows colors chars-per-pixel */
"64 52 64 1 ",
"  c #040204",
". c #D4820C",
"X c #ECC23C",
"o c #B44204",
"O c #DCA21C",
"+ c #C46204",
"@ c #FCEAA4",
"# c #DC920C",
"$ c #CC7204",
"% c #BC5204",
"& c #E4B22C",
"* c #F4D664",
"= c #FCF6D4",
"- c #D48A0C",
"; c #C46A04",
": c #B44A04",
"> c #E4AA24",
", c #DC9A14",
"< c #CC7A04",
"1 c #C45A04",
"2 c #ECBA34",
"3 c #F4DE84",
"4 c #ECCE54",
"5 c #FCF2C4",
"6 c #E4B62C",
"7 c #F4DA74",
"8 c #FCFEF4",
"9 c #DC8E0C",
"0 c #CC6A04",
"q c #D4860C",
"w c #ECC644",
"e c #B44604",
"r c #E4A61C",
"t c #C46604",
"y c #FCEAAC",
"u c #DC9614",
"i c #CC7604",
"p c #BC5604",
"a c #F4D66C",
"s c #D48E0C",
"d c #BC4E04",
"f c #E4AE24",
"g c #DC9E14",
"h c #D47E04",
"j c #C45E04",
"k c #E4B634",
"l c #FCFEFC",
"z c #CC6E04",
"x c None",
"c c black",
"v c black",
"b c black",
"n c black",
"m c black",
"M c black",
"N c black",
"B c black",
"V c black",
"C c black",
"Z c black",
"A c black",
"S c black",
"D c black",
"F c black",
/* pixels */
"                            ::d:%%%%::d:                        ",
"                            dd:dppppdd:d                        ",
"                            :d:dp%%p:dd:                        ",
"                            :dd:pp%pd:d:                        ",
"                            :::d%%%%%%%%oooo                    ",
"                            :dee%%%%:%:%eeeo                    ",
"                            eede%%%%%%%:eooe                    ",
"                            :ded%%%%d:%%eoeo                    ",
"                            ooooee:eeeeeoooo    oooo            ",
"                            ooooeedeeeeooooo    oooo            ",
"                            ooooeee:eoeeoooo    oooo            ",
"                            ooooe:edoeeooooo    oooo            ",
"        eeee::d:%:%:%%:%eeeeooooe:eeeoeeoooo::::ppppjjjjoooo    ",
"        eeeed%:%d%%%%%%%eeeeeeeee:edoeeeeeee:dd:jpjpjjjjoooo    ",
"        eeee:%d:%:%:%%%%eeeeoeoee:eeeoeoeeee::d:jpjjjjjpoooo    ",
"        eeeed:%d%%%%%:%%eeeeeeeee:edoeeeeoeed:d:jjpjjp++oooo    ",
"        %%p%+jjjjpjp%%%deeeooooe%p%%0;00h.<.OrOr..q.;;;;%%:%    ",
"        %p%pjj+jjjjj:%d%oeeeeeoe%p%p0;0;...hOrOOq..q;$;zp%p%    ",
"        %p%pjjjjpjpj%%d%eoeeooeop%1%0;z;.<..O>O>....;zz;p%%%    ",
"        %p%pj+j+jjjp%%:%eeeoeeoe%p%%;z;0..<.OrOr.q.q;z;z%%p%    ",
"    oooojjjj...<,uuu++++eoee11pjggggf>ff6626fff>#u#,$$$$++++    ",
"    oooopjjj.<q.uuuu++++eeee1jjpggggf>f>k222f>>fu,uu$$$$++j+    ",
"    oooop+jj....#uuu++++eeoepjpjggggf>ffk2k2>frf#s,si$$$+++j    ",
"    oooop+jj.<.<,us,++++eeeepjjpOgggf>f>k226f>fOg,u,$$$$+j++    ",
"    eee:$$$$q-q---s-;$;z;;;066667aaa====llllOOrO<iii;;;;pppp    ",
"    :d:d$$$$qqqq--q-;$z;0;0;2626aa7a====llll>O>O<i<i;;t0pppp    ",
"    :d:d$$$$qqqq----z;$z;;;0662&7aaa==5=llllrOOr<iii0;0;pppp    ",
"    :dd:$$$$qqqq-q--zzz;z;0;2&62aaaa====llllrO>O<ii<0t;0p1%p    ",
"    dd:%z$;$+t+tpjpj++++,u,uXXXX4444XwXw>fffuuuu<hihf&f&&&2&oooo",
"    :%%d$$$$+t+tjpjp++++,u,uwwww4444wwww>fff#usuiihi&&&f2&&&oooo",
"    d:%:$;$;tt+tpjjj++++,u,uwXwww4w4XXXw>f>fsuuu<hii&f&&&&2&oooo",
"    :%%d$$$$t+t+jpjp++++,u,uwXww4444XwwX>fffuusuiihi&&&f2&&&oooo",
"    uuuu-s-sh<<<d:::::d:jjjji$$$....9u9uq---s9s#**a*222&,,g,    ",
"    usuu-9-9<h<h:dddd:d:jjjjiiiiqqqqu9su--9q#s#sa*4a&k62,g,g    ",
"    uu#us-9-<h<<dd:d:d:djjjjiiii.q.q9sus9q--9s9s*aa*kk2k,g,g    ",
"    s,u#s-s9<<h<d:d:d:d:jjjji$iiqqqquusuq-9-sus9a4a*&k62,g,g    ",
"4444,g,ggrgg>>r>>>>>XXXX$$$;jjj1+j+j,,,,llllllll3333llllllllllll",
"44w4,g,ggggrr>>>>>f>XXXX;$;ijjjj++++,gO,llllllll3333llllllllllll",
"4444,,g,rggg>>>>>>>>XXkX$$$;jjpj+j++,,,gllllllll3333llllllllllll",
"4w44,,g,grgO>>>>f>f>XXXX;$;ijjjj++j+gg,gllllllll3333llllllllllll",
"$$$$yyyyrr>r<<<<uuuu<<.<g,,,7777llllllllllllllllllllaaaa7777$$$$",
"$$$$yyyy>>O><<<<,u,u....,,,,7777llllllllllllllllllllaaaa7777zzz$",
"i$i$yyyy>>>><h<huu#,.<.<g,,,7777llllllllllllllllllllaa*a77a7$$;$",
"$$$iyyyyO>O><ihiu,,u....,,,,7777llllllllllllllllllllaaa47777;$$$",
"eeoe$iiittt+pp%p....qqq-<.<.aaaal8l8lllly@y@llllllll...q<<<<OOgg",
"oeoe$$$$t+t+pppp..q.--q-<..<7aaa8888llll@@@yllllllllq...<<<hgOgO",
"eoeoi$i$t+t+pp%p....-q--.<.<*aaa888llllly@@@llllllll.q.q<<h<Ogrg",
"eoeo$$$$t+t+pp1%.q..-q-q<...*aaa8888llll@y@yllllllll....<<<hOOgO",
"    ;;;;llll0+ttz;;;8l8lh<<<<<i<llllllllllllllllllll5555llll00z0",
"    ;zz;lllltt0+z;z;llllh<.<<<i<llllllllllllllllllll5555llllzz;z",
"    ;0;zllll0+tt0z;zllllh<.<<i<illllllllllllllllllll5555llllz;zz",
"    ;0;0llllt0+tz;zzllllh<hh<ihillllllllllllllllllll5555llllzz;z"
};
