/* XPM */
static char *_0a8db2f22d24867e13a9a188f63ccf2_5[] = {
/* columns rows colors chars-per-pixel */
"64 56 64 1 ",
"  c #040204",
". c #D4820C",
"X c #ECCA4C",
"o c #B44204",
"O c #C46204",
"+ c #DCA21C",
"@ c #BC5204",
"# c #CC7204",
"$ c #DC920C",
"% c #FCFEFC",
"& c #E4B22C",
"* c #F4DE84",
"= c #B44A04",
"- c #C46A04",
"; c #BC5A04",
": c #D48A0C",
"> c #CC7A04",
", c #DC9A14",
"< c #E4BA34",
"1 c #F4DA74",
"2 c #E4AE24",
"3 c #FCEAA4",
"4 c #BC4A04",
"5 c #CC6A04",
"6 c #C45A04",
"7 c #D4860C",
"8 c #ECCE54",
"9 c #B44604",
"0 c #C46604",
"q c #E4A61C",
"w c #BC5604",
"e c #CC7604",
"r c #DC9614",
"t c #E4B62C",
"y c #F4E294",
"u c #DC8E0C",
"i c #D47E0C",
"p c #DC9E1C",
"a c #ECBE3C",
"s c #BC4E04",
"d c #CC6E04",
"f c #C45E04",
"g c None",
"h c black",
"j c black",
"k c black",
"l c black",
"z c black",
"x c black",
"c c black",
"v c black",
"b c black",
"n c black",
"m c black",
"M c black",
"N c black",
"B c black",
"V c black",
"C c black",
"Z c black",
"A c black",
"S c black",
"D c black",
"F c black",
/* pixels */
"                        9999=s=@9=9=oooo                        ",
"                        9999@@s=4=49oooo                        ",
"                        99=9s=@@===4oooo                        ",
"                        9999@@s=4=49oooo                        ",
"                    oooo@@@@6;ff;6;6@=@==99999999o9o            ",
"                    oooo@@@@f;f;6;6;@@@@9===99999999            ",
"                    oo9o@@@@;ff;6;6;s=@==4949=9=9o9o            ",
"                    ooo9@@@@f;ff;6;6@@@@9=9999999999            ",
"        9=9=oooo    oooo==s=ff;600000000w6w6@@@@4===            ",
"        =4=4oooo    oooo=s=@6;ff0505O0O0w@wws@@@=4=4            ",
"        9=49oooo    oooo==@=ff;f0O00O005@6w6s@@s==4=            ",
"        =49=oooo    oooo==ss;f6;050005OOww@w@@@@=4==            ",
"    @@@@-5-5@w@@999999o9wwww0O0Oeeeeie>idd#d;;;6s@s@o9o9        ",
"    @@@@-5-5@w@w9999====www6OOO0eieeeiee#d#d;f6;@s@s999o        ",
"    @@@@-5--@w@w9=9==9=9w6wwOOOOeeeeieeid-##;6;fs@s@9o99        ",
"    @w@w-5-5@w@w99994=4=www6OO0O>eeeeiee###-f;f;@=@s999o        ",
"    OOOfddddOOOO@w@wssss6w6wd-ddeeeeieie5---;6w;4===oooo        ",
"    ;OOO-d-dOOOO@@@@@@@=;6;;dd-##e#eeeie-505w;6w=4=4oooo        ",
"    OOOOdd#dOOOO@w@ws=@@;;6wd-#deeeeieei0-5-6ww6=4==oooo        ",
"    O;OO-d-#OOOO@@@@@@@s;6w;d#-de#e#eie>50-5w6w6==4=oooo        ",
"    w;;wO0OO;;6;ssss@@@@0-5-#######eOOOO@@@@=4=49999            ",
"    w6w6OOOO6w;6=s=s@=@@-5-5#####e##OOOO@@@@s=s=9999            ",
"    w;6wOOOO;6w6=ss=@@@@0-50#d#-e###OOOO@w@@4=4=9999            ",
"    w6w6OOOO;6;;s=s=@@@@-50-#####e#eOOOO@@w@=s=s9499            ",
"    w;6we>eifOOOwwwwee#e:u:$e>e>0505eiei+qpq>i>>####7777oooo    ",
"    w6w;eieeOOOO@www#eeeu$$:>>eiO00O>e>eqp+qe>ie####7:::oooo    ",
"    w;6weeeifOOOw6@wee#e:$:$>eie05O5eie>pqp+ieie####:77:o9oo    ",
"    w6w6eieeOOOO@ww6#eee$:$:>eee0000e>eipq+qe>ie####7::7oo9o    ",
"    -05-5-5-f6;f6;6w#d#dr,,,aaaa77777.7.$:$:$:u:::::....#-##    ",
"    -5-05-d-f;f6;6;6d#d#rrrr<a<a:7777.7.$$$$$:$$::7uii..d##-    ",
"    0-5-5-5-f6;f;6;6-##-,r,raaaa7:777.7.$$$$:$:$::77....-###    ",
"    -50-5-d-f;f6;6;6##-errr,<aaa:7777.7.$$:$$$$:::::.>..##d-    ",
"    s=ssw@@@s=s=fff;,,,r++++::::>>>i;6;;w;;;OOO0f6ff0000O000    ",
"    =@ss@@w@=s=sfO;O,rr,++q+::::>i>>6;6;;w;wO0OO;ff600000OO0    ",
"    ss=@@@@ws=s=O;OOr,,r+q+q:u::ieie6;66w6w6OOO0ff;f0505O0O0    ",
"    =@ss@w@@=s=sfOff,r,,+++q:::ue>i>6;;6w6w;O0OOffff00O0O0O0    ",
"    XXXXyyyyd5-d####tttt+q+prr$r;6;6ww6w.7.7rrrr#-###e#e7777eeee",
"    XXXXy*yyd-d-####ttttpqpq$rrr;6;6wwww.7.7$rrr#####e#e7777eeee",
"    XaXXyyyydd5-##-#ttttqpp+r$r$;f;fww6@7.7.r$,$#####e#e7777eeee",
"    XXXa3*yydd-d####ttttpqpq$rrr;;6;w6@w7.77$,rr##-#e#e#7777eeee",
"....&&&&aaaa222q.>.>:uuueeeeww@w999999=95----#--OOOO;f;f#e#e    ",
"7777&&t&aaaa2q22>...::::eiei@www9999=49=5-55-#-#OOOO;f6;e#e#    ",
"...7&&&&aaaa2222.>.>:u:ueeeeww@wo9o999495-5-d-#-OOOO;f;fe#e#    ",
"77.7&t&taaaa2q2q.>..::::eiei@6@6o99949=95-5-d#-#OO;O;ff;e#e#    ",
"####p,q,..7.$:r$+++q%%%%u:u:4=4=5-5-pppq@wwwwwww@@ww>>ie44=4    ",
"####p+,+....:$:$+q+q%%%%$$:$=s=4-d-5+,q,w6w6@www@@@@>eei=4==    ",
"####p,q,....$:r:q+q+%%%%u$$:s=s=d-5-q,p,;w@ww@w@w@w@ieie4=s=    ",
"####+,+,7...:$r:qq+q%%%%:$:$=s=4-d-5p+q,6w6@w6@w@@@@>eie4=s=    ",
">>>>....OOO0====#-#-#dd#>>>>:7::6;6;ffff9994    9999@s@@####X8X8",
"i>i>....OOOO====-#-ddddd>iei7:7:6;6;f;f;=4=9    o99o@@s@#d##8888",
">i>>....OOOO===s-d-d-#-d>eie7:7:6;6;fffO9=9=    9999@@@@##-#8888",
">>i>.>..OOOO=s==dd-#dddd>eei7:7:6;6;ff;f=499    o9o9s@=@####X888",
"%%%%::77ppp+3333****t&&&@@@s999orrr,1111dddd=s==f;f;<<<<>>>iffff",
"%%%%777:,+,+3333****&&&&@@@@9o99r,rr1111#-##=sss;f6ftt<tii>>OOfO",
"%%%%:77:+,+,3333**y*t&&&@@s@9999rrrr1111-#d-@=s=f;f;attaei>iffOf",
"%%%%7:77,q,+3333****t2t&@@@s9o9or,$,1111#-##s=ss;ff6tatti>ieOfOf"
};
