/* XPM */
static char *_0a8db2f22d24867e13a9a188f63ccf2_13[] = {
/* columns rows colors chars-per-pixel */
"64 44 64 1 ",
"  c #040204",
". c #D4860C",
"X c #ECC644",
"o c #B44204",
"O c #FCEAA4",
"+ c #C46204",
"@ c #E4A61C",
"# c #F4E694",
"$ c #DC9614",
"% c #F4D25C",
"& c #BC5204",
"* c #CC7204",
"= c #ECCE54",
"- c #B44A04",
"; c #ECBE3C",
": c #DC9E1C",
"> c #FCFAE4",
", c #E4AE24",
"< c #DC920C",
"1 c #ECCA54",
"2 c #C46A04",
"3 c #F4EA9C",
"4 c #F4D66C",
"5 c #C45E04",
"6 c #D47E04",
"7 c #BC4A04",
"8 c #E4A21C",
"9 c #D48A0C",
"0 c #ECC64C",
"q c #B44604",
"w c #FCF2C4",
"e c #C46604",
"r c #E4AA24",
"t c #F4E69C",
"y c #DC9A14",
"u c #F4D264",
"i c #BC5604",
"p c #CC7604",
"a c #ECCE5C",
"s c #DCA21C",
"d c #FCFEFC",
"f c #E4B22C",
"g c #BC4E04",
"h c None",
"j c black",
"k c black",
"l c black",
"z c black",
"x c black",
"c c black",
"v c black",
"b c black",
"n c black",
"m c black",
"M c black",
"N c black",
"B c black",
"V c black",
"C c black",
"Z c black",
"A c black",
"S c black",
"D c black",
"F c black",
/* pixels */
"                    oooo                                        ",
"                    oooo                                        ",
"                    oooo                                        ",
"                    oooo                                        ",
"                                                                ",
"                                                                ",
"                                                                ",
"                                                                ",
"                                                                ",
"                                                                ",
"                                                                ",
"                                                                ",
"    -g-&----g--g&&&&    ooooiiii-7--                            ",
"    g&&-g77-gg&-&&&&    oooo&iiig-gg                            ",
"    -&g&--7-g-&-i&&&    oooo&iiigg-7                            ",
"    g-&g-g-g-&gg&&&&    oooo&ii5-7g-                            ",
"    222e2222&&&&qqqq---q++++ss@syyyy::::++++                    ",
"    ee2e22e2&&&&qqqq-7--eee2ss8syyyy:ysye+++                    ",
"    e2e*e*e*gg&--qqq--7-2eees@s@yyyys8y8e+e+                    ",
"    e2eeeeee&&&&qqqq7-7-ee2e@s8syyyyyssye+++                    ",
"    5555++++oooo    5555uuuuwwwwddddXXXXyyyy....$<$<eeee        ",
"    5555++++oooo    i55i4a4awwwwddddXXXXyyyy999.$$$$eeee        ",
"    5+5+++++oooo    5555%4%4wwOwdddd0X0Xyyyy..9.$<$$eeee        ",
"    5555++++oooo    55i+a4a4wwwwdddd0X0X$yyy99.9<$$<eeee        ",
"    +e+e$$$$g&g&    55+5yyyyddddddddddddOtOtyyyy66p6eee+oooo    ",
"    ++++$$$$g&g&    55i+yyyyddddddddddddOt3Oyyyy6666eeeeoooo    ",
"    +e+e$$$$g&g&    5+++y$y$dddddddddddd3Ottyyyy6p.p2e+eoooo    ",
"    ++++$$<$&g&-    55i+yyyyddddddddddddOtOtyyyy66.p2ee+oooo    ",
"    e222wwwwt3tOeeee----++++s@s@,,,,,,,,yyyyp*pp55i+*2**----    ",
"    e2eewwOw3OtOeeee7---e++ess8s,,,,,,,ry$yy*p**55i+****gggg    ",
"    e2e2wwwwttOteeee7-g7+e++s@s@,,,,,,,,yyyy*p*p55+i****g&-&    ",
"    e2eewwwwt3OOeeee77--+++essss,,,fr,r,$y$y*p*pi5i+**2*-&&g    ",
"    yy8ydddd1111pppp@s@s3##t....%uau9999ss8s8s8sdddddddd2eee    ",
"    yyyydddd=111pp6p@@s@#O##....%a%a99998ss8sss8dddddddde2ee    ",
"    yyyydddd1=1=pppp@s@sO#O#....%a%a99998s8s8s8sddddddddee2e    ",
"    y:y8dddd11116ppp@@sr###t....%=%%99998s8ss8s8dddddddd2eee    ",
"5i55####%%a%dddddddddddd,,r,88s8>ddd@@r@XXXXffffdddddddddddddddd",
"5555##t#11%1dddddddddddd,,,,8sssdddd@r@rX0XXffffdddddddddddddddd",
"55i5#t##1%1%dddddddddddd,,,,8s8s>ddd@r@rXX0Xffffdddddddddddddddd",
"5555##tt%1%1dddddddddddd,,,,s8s8dd>d@rsrX0X0ffffdddddddddddddddd",
"44440XXXdddddddd%1%1<<<<e+e+++e+dddddddddddddddddddd;;;;>>>>rrrr",
"44440000dddddddd111%9<<$++++e+++dddddddddddddddddddd;;;;>>>>r@@r",
"44440XX0dddddddd%111<<$9++e+++e+dddddddddddddddddddd;;f;>>d>@rrs",
"44441X0Xdddddddd1%1=<<9$++++e++edddddddddddddddddddd;;;;>>>>@rs,"
};
