/* XPM */
static char *_0a8db2f22d24867e13a9a188f63ccf2_16[] = {
/* columns rows colors chars-per-pixel */
"64 40 64 1 ",
"  c #040204",
". c #D4820C",
"X c #ECC23C",
"o c #B44204",
"O c #C46204",
"+ c #DCA21C",
"@ c #FCEEB4",
"# c #DC920C",
"$ c #F4D664",
"% c #BC5204",
"& c #CC7204",
"* c #E4B22C",
"= c #F4E28C",
"- c #DC9A14",
"; c #BC5A04",
": c #CC7A04",
"> c #D48A0C",
", c #BC4A04",
"< c #CC6A04",
"1 c #E4AA24",
"2 c #FCFAE4",
"3 c #ECCA4C",
"4 c #DC9614",
"5 c #F4DE7C",
"6 c #ECBA34",
"7 c #F4E69C",
"8 c #C45A04",
"9 c #D47A04",
"0 c #FCFAF4",
"q c #D4860C",
"w c #B44604",
"e c #C46604",
"r c #E4A61C",
"t c #DC9214",
"y c #F4DA74",
"u c #BC5604",
"i c #CC7604",
"p c #F4E694",
"a c #DC9E1C",
"s c #D48E0C",
"d c #BC4E04",
"f c #CC6E04",
"g c #E4AE24",
"h c #ECCA54",
"j c #ECBE3C",
"k c #C45E04",
"l c #D47E04",
"z c #FCFEFC",
"x c None",
"c c black",
"v c black",
"b c black",
"n c black",
"m c black",
"M c black",
"N c black",
"B c black",
"V c black",
"C c black",
"Z c black",
"A c black",
"S c black",
"D c black",
"F c black",
/* pixels */
"        oooo            oooouuuuuuuud%d%                        ",
"        oooo            oooo%uuuuuuu%%%d                        ",
"        oooo            oooouuu8%8%u%d%%                        ",
"        oooo            oooo%uu%uu8u%%%d                        ",
"        oooo        oooo&f&&s>#>aaaa::::k;O;ddddwdwd            ",
"        oooo        oooo&&&&s>s#a-r-9:9:kOkOd%d%dddw            ",
"        oooo        oooo&i&&ss>>r-ari9::k;O;%dddww%d            ",
"        oooo        oooo&&i&s>#>aa-+9::9kOkOdd%%w%wd            ",
"        dww%        wwww&f&f1111XXXj****ssssefee;;uuoooo        ",
"        %%u%        wwww&f&eg111jjXj**g*#>#sefefuuuuoooo        ",
"        %%d%        wwww&f&&1r1rXXjX***g#>s#efefuuuuoooo        ",
"        d%%d        ww,w&f&&+gg+XXjXg**gs#>#efefuuuuoooo        ",
"    oooo::::i&i&wwww    uuuu::.:ssss>>>>9ii:k;k;dwdwwwww        ",
"    ooow::::iiiiwwww    %u%u.:.:sssss>#>i9i:kk;kdwddwwww        ",
"    oooo::l:ii&i,w,w    uuuu::.:stst>>>>9i:9;kk;ddwdww,w        ",
"    owow::l:9&iiwwww    %u%u:.:.sst>>>>>9iiik;k;dwdwwwww        ",
"    ;;;;+aaa.qq.k8kkOOOe:9:lefef....fffff&f&&i&igg**#4s4oooo    ",
"    ;kkkaraaqqqq8;k;eeOe9:l:ffef....ffffffff&&&&ggggs#sswooo    ",
"    k;k;a-r-qq.qk8;kOOeO:l:9effeq.q.ffff&f&fi&i&ggggs4#swooo    ",
"    ;k8k+-+aqqqq;kk;eeOe9:l:feff...qffffffff&&&iggggts#swowo    ",
"    :l::4###rrrrjjjjyyyyqqqq::::ssss::::.:q:ssss$$$$zzzzyyyy;;k;",
"    :l:.#s44+1+1j6j6y$y$qq.qll:.#4s4:.::q...ss#s$$$$zzzz5y5y;Okk",
"    :.:l44s4r1rrjjjjyyyyqqqq:l:ls###:ll:.:.:ss#>$h$$zzzzyyy5;k;k",
"    :l::4s4s1+1rj6j*yy$y.q.ql:l:tstsl::l....ssss$$$$0zzz5y5y;Ok;",
"uuuuqqqq****3333+g+gq...eeeeOOeOggggzzzzzzzzzzzzzzzz6jj66666;k;k",
"uu8%qqqq****3X331rg+qq.qeOeOeOOOg1g1zzzzzzzzzzzzzzzzj6j66*j*O;Ok",
"u8%uqqqq***g333311+gq.:qeeeeOOeOg1ggzzzzzzzzzzzzzzzzj6jj*Xjj;O;k",
"uuu8.q.q*g6*3333+grg.qq.eOeOeOOOg1g1zzzzzzzzzzzzzzzzj6jjj*j*O;k;",
"    q>>>rrrrzzzzzzzzjjjj;;;8+r+rzzzzzzzzzzzzzzzzzzzz*g*gzzzz>>>>",
"    >>q>rg11zzzzzzzzjjjj;u8;r+r+zzzzzzzzzzzzzzzzzzzz*g*gzzzz>>>>",
"    q>>>r1r1zzzzzzzzjjjj;;u;r+1+zzzzzzzzzzzzzzzzzzzz*g**zzzz>>>>",
"    >>>>rgrgzzzzzzzzjjjj;;8;r+rrzzzzzzzzzzzzzzzzzzzz*g*gzzzz>>q>",
"++++ar-r222255552222***g+a+azzzzzzzzzzzzzzzzpppparaa---aggg18888",
"rarar-r-2222yy5y2222ggg*++razzzzzzzzzzzzzzzzp=7=aaaaa---11g1;;;8",
"+rar-+r+2222y5552222gg*g+aarzzzzzzzzzzzzzzzz7=7=aar---a-gg1g88;8",
"++r-r+-r2222y55y22221*g*+r-rzzzzzzzzzzzzzzzzp=7=ra-r----g1g1;;8;",
"    s#s#22209&i9OOOOi&i&zzzzzzzzzzzz@@@@hhhh7777t44#zzzzzzzzp===",
"    s#s#2002i9ii<e<<&&i&zzzzzzzzzzzz@@@@hhhh@77@#444zzzzzzzz=p=p",
"    s#s#0000iiiie<Oe&i&izzzzzzzzzzzz@@@@hhh3777744#4zzzzzzzz====",
"    s#st2z2z9i9ieeeei&i&zzzzzzzzzzzz@@@@hhh$p77744#4zzzzzzzzp=p="
};
