/* XPM */
static char *_0a8db2f22d24867e13a9a188f63ccf2_1[] = {
/* columns rows colors chars-per-pixel */
"64 48 64 1 ",
"  c #040204",
". c #D4820C",
"X c #ECC23C",
"o c #B44204",
"O c #C46204",
"+ c #DCA21C",
"@ c #FCEAAC",
"# c #F4D66C",
"$ c #BC5204",
"% c #CC7204",
"& c #DC920C",
"* c #E4B22C",
"= c #ECCE54",
"- c #ECCA4C",
"; c #B44A04",
": c #C46A04",
"> c #E4AA24",
", c #FCFADC",
"< c #F4DE7C",
"1 c #BC5A04",
"2 c #CC7A04",
"3 c #DC9A14",
"4 c #D48A0C",
"5 c #ECBA34",
"6 c #ECC644",
"7 c #E4A21C",
"8 c #FCF6D4",
"9 c #DC9614",
"0 c #F4D25C",
"q c #BC4A04",
"w c #CC6A04",
"e c #F4E28C",
"r c #C45A04",
"t c #D47E04",
"y c #D4860C",
"u c #ECC244",
"i c #B44604",
"p c #C46604",
"a c #FCEEB4",
"s c #F4DA74",
"d c #BC5604",
"f c #CC7604",
"g c #DC9214",
"h c #E4B62C",
"j c #ECCE5C",
"k c #ECCA54",
"l c #E4AE24",
"z c #FCFEFC",
"x c #F4DE84",
"c c #DC9E14",
"v c #D48E0C",
"b c #ECBE3C",
"n c #E4A61C",
"m c #BC4E04",
"M c #CC6E04",
"N c #C45E04",
"B c #D47E0C",
"V c None",
"C c black",
"Z c black",
"A c black",
"S c black",
"D c black",
"F c black",
/* pixels */
"                                ooooooooiiii;;;;oooo            ",
"                                ooooooooiiii;q;qoooo            ",
"                                ooooooooiiii;q;;oooo            ",
"                                ooooooooiiiiq;;qoooo            ",
"                    oioippppppppN111dd1d1d1r1r11ddddoooo        ",
"                    iiiipw:w:w:ppppp1d1d1rddr1rrddddoooo        ",
"                    oioi:wppwpwpOOOOrdrdrdrdr1r1rdrdoooo        ",
"                    iiiiwpwp:wpwOpOOrd1rdd1r1N1rdrdroooo        ",
"    oooo;;;;;;;;$$$$%%%%44v47cc+44&4ffffw:wppppp1drdoooo        ",
"    oooo;qmmqqq;$$$$%%%%&4&4c7c74444ftffw:pwpwpwdrddiooi        ",
"    ooooi;;;;;m;d$d$f%f%444&cc+c444&ffffw:w:ppOprdrdiiio        ",
"    ooooi;mmm;qq$$$$%%%f&4447c7+4&44ffffwp:wpwppdrddioii        ",
"    O1OO%f%%OOOONN1O:w:wyy4y7++7c373y4yytffft2ttv&v&r1r1        ",
"    pppO%%%%OOOO1ONN:w:wy44y7+7+737cyy4yfftfB2.2&v&vN1N1        ",
"    Oppp%%%%OOOpNN1O:w:w4y447+7+cc37yyyytff2B2.2gvgvrr1r        ",
"    ppOp%%%%OOOON1ON:w:w4y4y7++7c73cyy4yffBft2.2&v&vN1N1        ",
"    9999vvvvMM:%OONN1r1rffff&&&&****XXbX&4&44444.t2.:ww:m;$;    ",
"    9999vv&vM%%M1O1Or1r1ffff&9&9**5*bXbbvvv&y444t2.t:M:Mm$mm    ",
"    9999vv&4M:%MONON1r1rffffg&v9****Xbuuv&4v4444tB2.:w::m;$;    ",
"    99&3vv4&M%:%1O1O1r1rffff9&9&h***Xbubvvg44y4yt.t2M:Mw$$m$    ",
"N1N1*l**aaa@v&v9%f%%222299997+++ssssxx<xj0j0g9&9yyyy.2.21ddd    ",
"NNNN**l*@aaav9&vf%%f2tft9939+7+7ssss<x<xj0j0&9&9yyyy2.t.dd1d    ",
"N1O1**l*aa@avvg&%f%%ff2f9993++7+ssssx<x<j0jj9v9&yyyy.2.2rdrd    ",
"NONN*lh*@aaav9vg%%%ftfBf3999+7c+ssssx<x<0j00999v4yyy.2..dddd    ",
"ONOObbhbbhXh>++nyyy.2B2By444bbbbhhhh6u6uc3c32.2.:w::pppOOOOO    ",
"ONO1b5bbbXbX++n+yyyyt2B24yyyb5bbhh5*6u6uc3ccB.2.:M:MOpOpOOOO    ",
"ONOObbhbbhXb++n+y.yy2t2ty44ybb5bh**hu6u63c33B..2M:w:pOwOOOOO    ",
"ONO1b5bhXXbb++7+yyyyt2B24y4y5bhXhhh5uu6uc3732.2.:M:wpOOOOOOO    ",
"ii;i+++>v9v9yyyypppp%f%fuuX6bbXbbbbb4444Mw:MMM%MMM%MNONOd1rd    ",
";iqin+++3999yyyy:wpw%f%fu6uubbhbXuubv4g4wMM:M:M:%:%:OONOdddd    ",
"iqiin+nn9v99yyyyppppf%f%uuuubhXbbbub4444M:MMM%M%M%%%NONOdrdd    ",
"iiiin+n+999vyyyypwpw%f%fu6u6bbbbXbXu4v44Mw:M:M:M:%:%NONOdddd    ",
"$$$$n+n+zzzz+nn+22tf@@@@zzzzbhbh44yyjj0jzzzza@@@<<<<zzzz....    ",
"$$$$n+n+zzzz>+n>2fft@@a@zzzzbbbb4y44jjj0zzzz@@@@<<<<zzzz....    ",
"$$$$n+nnzzzzn>+n2tff@@@@zzzzbhbh44y4=j0=zzzza@@@<<<szzzz....    ",
"$$$$n++nzzzzn+>+tfBfa@@@zzzzbbbb4y4yj=0jzzzz@@@@<<<<zzzz....    ",
"&v&4#s#sn>n>2t2tffffcccc8888zzzzjjjjXbhbeeeejj=j=-kk-k--,,,8****",
"v4&v####+>+>2B2t2ff2cccc8888zzzzj#j#bbbbeeee0j0j==-=--k-8,8,****",
"&v4&##s#>+>+t2B22fffc3c38,8,zzzz0j0jbbbbeeee0j#j=-kk-6k6,,,,l***",
"v&4v####>>+>2B2BfBff73cc8,88zzzz0j#jbbhbexex0jj0k=k-k-kk,,8,****",
"mmmmffffffffN1NN4y44zzzzzzzzllll>>>>11111rdryyyyppwOyyyyl***q;q;",
"m;$mfffff%ffNN1Ny44yzzzzzzzzllll>n+>1r1rddrdyyyyOpOwyyyyl***qiq;",
"$$m;2ffffff%1Nr14444zzzzzzzzlllln>>>1r1r1rd1.y.yppOpyyyy*lllq;;q",
"m;$$ffffffffN1NN4y44zzzzzzzzll*l>+>n1r1rd1rdyyyyOppOyyyyl***q;q;",
"4yyyzzzzzzzz&vv&9333zzzzaaaazzzzMM:M%%%%zzzzzzzz5555=-0-zzzzzzzz",
"y4y4zzzzzzzz&4&43393zzzzaaaazzzzw:M:%%%%zzzzzzzz5hhb=k0kzzzzzzzz",
"yyyyzzzzzzzz&4v&9333zzzzaaaazzzzMMwM%%%%zzzzzzzz5bhb=k0kzzzzzzzz",
"4y4yzzzzzzzzvg4v3333zzzzaa@azzzzM:M:%%%%zzzzzzzz55bh0kk0zzzzzzzz"
};
