/* XPM */
static char *_____________[] = {
/* columns rows colors chars-per-pixel */
"64 64 16 1",
"  c #FFFFFF",
". c #EE0000",
"X c #DD0000",
"o c #CC0000",
"O c #BB0000",
"+ c #AA0000",
"@ c #990000",
"# c #880000",
"$ c #770000",
"% c #660000",
"& c #550000",
"* c #440000",
"= c #330000",
"- c #220000",
"; c #110000",
": c #000000",
/* pixels */
"++++@+@@@@@#@###XX;;*&%$################$%&*:;;XX##@#@@@@@+@++++",
"+++@+@@@@@#@####$X.;:%$##################$%;;#;;XX@#@@@@@+@+++++",
"++@+@@@@@#@####$#$o.;:####################;;##-;;XX@@@@@+@++++++",
"+@+@@@@@#@####$#$$$X.;;##################;;##=--;;XX@@@+@+++++++",
"@+@@@@@#@####$#$$$$%o.:;################;;OO=*=--;:.X@+@++++++++",
"+@@@@@#@####$#$$$$%$%X.;:##############;;OO**=*=---:XX@++++++++@",
"@@@@@#@####$#$$$$%$&%%XX;;############;;XX&***=*=;-;;XX+++++++@+",
"@@@@#@####$#$$$$%$%%%%&X.;:##########;;XX&*&***=*=--;;XX+++++@+@",
"@@@#@####$#$$$$%$%%%%&%&XX;;########;;X.*&&*&***=*=--;;XX+++@+@@",
"@@#@####$#$$$$%$%%%%&%&&&Xo;:######;:X.*%&&&*&***=*=--;:X.+@+@@@",
"@#@####$#$$$$%$%%%%&%&&**&OO;;####;;.X&%&%&&&*&***=*=--;:XX+@@@@",
"#@####$#$$$$%$%%%%&%&&&*&**o#;;##;:.X&$%%&%&&&*&***=*=---:X.@@@@",
"@####$#$$$$%$%%%%&%&&&*&***-##;;;;.X&#&$%%&%&&&*&***=*=--;:XX@@#",
"####$#$$$$%$%%%%&%&&&*&***=*=##;;XX$$%$%%%%&%&&&*&***=*=--;;XX#@",
"###$#$$$$%$%%%%&%&&&*&***=*===;;XX$$$$%$%%%%&%&&&*&***=*=--;;XX#",
"##$#$$$$%$%%%%&%&&&*&***=*===;;XX$#$$$$%$%%%%&%&&&*&***=*=--;;XX",
"X$#$$$$%$%%%%&%&&&*&***=*===;;XX##$#$$$$%$%%%%&%&&&*&***=*=--;:.",
"X.$$$$%$%%%%&%&&&*&***=*===;;XX####$#$$$$%$%%%%&%&&&*&***=*=---:",
":XX$$%$%%%%&%&&&*&***=*===;;XX#@####$#$$$$%$%%%%&%&&&*&***=*=##;",
"-:X.%$%%%%&%&&&*&***=*===;:X.@@#@####$#$$$$%$%%%%&%&&&*&***=##;;",
"-;:.X&%%%&%&&&*&***=*===;;.X#+#@#@####$#$$$$%$%%%%&%&&&*&**O#:;-",
"*--:X.%%&%&&&*&***=*===;:.X+@#+@@#@####$#$$$$%$%%%%&%&&&**OO;;-*",
"&*-;:.X*%&&&*&***=*===;;.X+@+@@@@@#@####$#$$$$%$%%%%&%&&&XO:;-*&",
"%&*--:X.&&&*&*&*=*===;;XX+++@+@@@@@#@####$#$$$$%$%%%%*$*XX;;-*&%",
"$%&*;;;XX&*&**==*===;;.X+++++@+@@@@@#@####$#$$$$%$%%%%&.X:;-*&%$",
"#$%&&-;:X.******===;;XX+++++++@+@@@@@#@####$#$$$$%$%%%XX:;=*&%$#",
"##$&&*-;;OO**-*===;;XX@++++++++@+@@@@@#@####$#$$$$%$%XX:;-*&%$##",
"###$%&&-;:Oo=*===;;X.@+@++++++++@+@@@@@#@####$#$$$$%X.:;=*&%$###",
"####$%**-;;##===;;XX#@@+@++++++++@+@@@@@#@####$#$$$XX:;-*&%$####",
"####@%$&&-;;##=;;X.@@@@@+@++++++++@+@@@@@#@####$#$X.:;=*&%$#####",
"####$@%%&*-;;#;;XX#@@@@@@+@++++++++@+@@@@@#@####$XX:;-*&%$######",
"#######$%&*-;;;XX##@#@@@@@+@++++++++@+@@@@@#@###XX;;-*&%$#######",
"########$%&*;;.X####@#@@@@@+@++++++++@+@@@@@#@#XX:;;*&%$########",
"#########$%;;XX$#####@#@@@@@+@++++++++@+@@@@@#X.:;@;;%$#########",
"##########;;XX%#$#####@#@@@@@+@++++++++@+@@@@XX:;-##;;##########",
"#########;;XX$$$#$#####@#@@@@@+@++++++++@+@@X.:;--=#@;:#########",
"########;;XX%$$$$#$#####@#@@@@@+@++++++++@+XX:;--=*-OO;;########",
"#######;;XX%$%$$$$#$#####@#@@@@@+@++++++++X.:;=-=*=**Oo;:#######",
"######;;X.&%%$%$$$$#$#####@#@@@@@+@++++++Xo:;--=*=***&XX;;######",
"#####;:X.*%%%%$%$$$$#$#####@#@@@@@+@++++XX;;=-=*=***&*&X.;:#####",
"####;;.X*%&%%%%$%$$$$#$#####@#@@@@@+@++XX:;--=*=***&*&&&XX;;####",
"###;;O.*%&%&%%%%$%$$$$#$#####@#@@@@@+@XX;;--=*=***&*&&&%&X.;:###",
"##;;OO**&&&%&%%%%$%$$$$#$#####@#@@@@@XX:;--=*=***&*&&&%*%%XX;;##",
"#;:#O**&*&&&%&%%%%$%$$$$#$#####@#@@@XX;;--=*=*&=%*&&&%&%%%%X.;:#",
";;##=***&*&&&%&%%%%$%$$$$#$#####@#@XX:;--=*=**=%=&&&%&%%%%%%XX;;",
":#@=*=***&*&&&%&%%%%$%$$$$#$#####@XX;;--**=***&*%&&%&%%%%$%$$X.;",
";:===*=***&*&&&%&%%%%$%$$$$#$####XX:;--=*=***&*&&&%&%%%%$%$$$$oX",
".;;===*=***&*&&&%&%%%%$%$$$$#$##XX;;--=*=***&*&&&%&%%%%$%$$$$#$X",
"XX:;===*=***&*&&&%&%%%%$%$$$$#$XX:;--=*=***&*&&&%&%%%%$%$$$$#$##",
"#X.;;===*=***&*&&&%&%%%%$%$$$$XX;;--**=***&*&&&%&%%%%$%$$$$#$###",
"#@XX;;===*=***&*&&&%&%%%%$%$$XX:;@#===***&*&&&%&%%%%$%$$$$#$####",
"@#@XX;;===*=***&*&&&%&%%%%$%X.:;-:##****%*&&&%&%%%%$%$$$$#$#####",
"#@@@XX:;===*=***&*&&&%&%%%%XX:;--;;#O**&*&&&%&%%%%$%$$$$#$#####@",
"@@@@@X.;;===*=***&*&&&%&%&X.:;=**-;;OO&*&&&%&%%%%$%$$$$#$#####@#",
"@@@@+@XX:;===*=***&*&&&%&.o:;-*&&*-;;OX&&&%&%%%%$%$$$$#$#####@#@",
"@@@+@++X.;;===*=***&*&&&XX;;=*&%%&*-;;XX&%&%%%%$%$$$$#$#####@#@@",
"@@+@++++XX;;===*=***&*&XX:;-*&%$$%&*-;;XX&%%%%$%$$$$#$#####@#@@@",
"@+@++++++XX;;===*=***&XX;;-*&%$##$%&*-;;XX%%%$%$$$$#$#####@#@@@@",
"+@++++++++XX:;===*=**OO:;-*&%$####$%&*-;;XX%$%$$$$#$#####@#@@@@@",
"@++++++++@+X.;;===*=OO;;-*&%$######$%&*-;;XX%$$$$#$#####@#@@@@@+",
"++++++++@+@@XX:;===##:;-*&%$########$%&*-;:.X$$$#$#####@#@@@@@+@",
"+++++++@+@@@@X.;;=##;;-*&%$##########$%&*--:XX$#$#####@#@@@@@+@+",
"++++++@+@@@@@#XX:;#;;-*&%$############$%&*-;;XX$#####@#@@@@@+@++",
"+++++@+@@@@@#@#X.;;;-*&%$##############$%&*-;;XX####@#@@@@@+@+++"
};
