/* XPM */
static char *_____________[] = {
/* columns rows colors chars-per-pixel */
"64 64 256 2",
"   c #1B1A15",
".  c #121A0B",
"X  c #2C0B05",
"o  c #2C0C0B",
"O  c #2A0708",
"+  c #350404",
"@  c #3C0303",
"#  c #350904",
"$  c #3C0B03",
"%  c #3C050A",
"&  c #330D0B",
"*  c #3C0B0C",
"=  c #35070A",
"-  c #2C140D",
";  c #291709",
":  c #34130C",
">  c #3C130C",
",  c #341A0C",
"<  c #3B1B0C",
"1  c #351606",
"2  c #2C0D13",
"3  c #350D13",
"4  c #3A0D15",
"5  c #3A0B18",
"6  c #2C1313",
"7  c #241C14",
"8  c #2B1A14",
"9  c #2D141A",
"0  c #241B1B",
"q  c #2C1B1B",
"w  c #231716",
"e  c #331413",
"r  c #3B1314",
"t  c #321A15",
"y  c #3D1B13",
"u  c #34141B",
"i  c #3C141A",
"p  c #331B1B",
"a  c #3A1C1B",
"s  c #1C231B",
"d  c #1A2518",
"f  c #0E2A1B",
"g  c #29230A",
"h  c #38220D",
"j  c #2D2214",
"k  c #24231D",
"l  c #292318",
"z  c #35231C",
"x  c #3B221C",
"c  c #3A2616",
"v  c #31301B",
"b  c #2B1A22",
"n  c #331521",
"m  c #341B23",
"M  c #3B1C23",
"N  c #391D2A",
"B  c #370D20",
"V  c #1B2925",
"C  c #103428",
"Z  c #2C2323",
"A  c #2C2C24",
"S  c #262928",
"D  c #332322",
"F  c #3C2325",
"G  c #332B25",
"H  c #3A2C25",
"J  c #352D2B",
"K  c #39262B",
"L  c #29332A",
"P  c #3B332C",
"I  c #35312B",
"U  c #2D2B34",
"Y  c #372A33",
"T  c #29383A",
"R  c #3C3533",
"E  c #36363A",
"W  c #440403",
"Q  c #4B0202",
"!  c #430B04",
"~  c #4C0A03",
"^  c #43040A",
"/  c #4A040B",
"(  c #430B0B",
")  c #4B0B0B",
"_  c #540202",
"`  c #5C0202",
"'  c #520A03",
"]  c #5B0A04",
"[  c #54020A",
"{  c #5C030B",
"}  c #540B0C",
"|  c #5D0C0B",
" . c #43120D",
".. c #4C130C",
"X. c #48180A",
"o. c #5B120C",
"O. c #561508",
"+. c #420D12",
"@. c #4C0C12",
"#. c #470716",
"$. c #540311",
"%. c #5A0915",
"&. c #431413",
"*. c #4C1414",
"=. c #431D15",
"-. c #4B1C13",
";. c #44141C",
":. c #4D151A",
">. c #431B1B",
",. c #4C1C1B",
"<. c #541414",
"1. c #5C1413",
"2. c #531C13",
"3. c #5C1B14",
"4. c #52151B",
"5. c #541C1C",
"6. c #5B1B1C",
"7. c #5D151C",
"8. c #640202",
"9. c #6B0202",
"0. c #630A03",
"q. c #6B0A04",
"w. c #64030A",
"e. c #6C030B",
"r. c #640A0B",
"t. c #6B0B0B",
"y. c #730202",
"u. c #7C0102",
"i. c #740A04",
"p. c #7B0903",
"a. c #73030B",
"s. c #7B030A",
"d. c #730B0B",
"f. c #7C0A0C",
"g. c #63110D",
"h. c #6C120C",
"j. c #641507",
"k. c #73120A",
"l. c #7B130D",
"z. c #741406",
"x. c #6C0412",
"c. c #650A12",
"v. c #6C0C15",
"b. c #670714",
"n. c #740412",
"m. c #750C12",
"M. c #7C0C13",
"N. c #770818",
"B. c #641413",
"V. c #6B1413",
"C. c #6B1A15",
"Z. c #6B151A",
"A. c #651B1C",
"S. c #6C1A1C",
"D. c #631816",
"F. c #741414",
"G. c #7A1414",
"H. c #741A14",
"J. c #7C1914",
"K. c #74141B",
"L. c #7B141B",
"P. c #741B1B",
"I. c #791B1D",
"U. c #48230D",
"Y. c #432213",
"T. c #43221B",
"R. c #4B231D",
"E. c #48281B",
"W. c #522415",
"Q. c #53241C",
"!. c #5A251A",
"~. c #56210F",
"^. c #692119",
"/. c #77211D",
"(. c #451C22",
"). c #4C1D22",
"_. c #4C1E2B",
"`. c #491728",
"'. c #531C23",
"]. c #581A25",
"[. c #411F30",
"{. c #6D1D23",
"}. c #661925",
"|. c #731B23",
" X c #7A1923",
".X c #710E20",
"XX c #432322",
"oX c #4C2323",
"OX c #412B25",
"+X c #4B2C25",
"@X c #4D292B",
"#X c #46252A",
"$X c #542424",
"%X c #5A2323",
"&X c #532B23",
"*X c #532B2B",
"=X c #5A2C2C",
"-X c #5A2728",
";X c #492833",
":X c #582A34",
">X c #433839",
",X c #5D3536",
"<X c #4F312A",
"1X c #652323",
"2X c #692626",
"3X c #732224",
"4X c #792529",
"5X c #622E38",
"6X c #693734",
"7X c #48453B",
"8X c #1E3F45",
"9X c #2B3C41",
"0X c #333C44",
"qX c #393645",
"wX c #383551",
"eX c #423A46",
"rX c #693843",
"tX c #3B4746",
"yX c #374B4A",
"uX c #1D4346",
"iX c #434D44",
"pX c #4B4A44",
"aX c #4A4648",
"sX c #534A47",
"dX c #4A4C55",
"fX c #464652",
"gX c #4C4F50",
"hX c #830103",
"jX c #8B0102",
"kX c #83030A",
"lX c #8B020A",
"zX c #830A0C",
"xX c #8C0C0B",
"cX c #870A05",
"vX c #920202",
"bX c #9C0101",
"nX c #92020C",
"mX c #950906",
"MX c #83120D",
"NX c #811E0B",
"BX c #8B0311",
"VX c #830C13",
"CX c #870B16",
"ZX c #930613",
"AX c #83131B",
"SX c #861717",
"DX c #95151C",
"FX c #981906",
"GX c #A20105",
"HX c #A7050A",
"JX c #A60813",
"KX c #B20A13",
"LX c #8A2216",
"PX c #841923",
"IX c #961C24",
"UX c #832823",
/* pixels */
"eXqXwXqXE E qXwXeXR P R 9X8XuXtXE ;X;XR qXE E R R R E E E qX>XR >XP R E T 9X8XuX0X0XE 0X0XE 0X9X0X0XT T T 0XT 0XwXwXwXqXeXqXU R ",
";X[.'.'.'.2.:.].!.W.W.E.H L L I T.3.3.W.oXXX,.R.%X%X-X*X*X*X*X+X,.T.E.E.v L L L =X2X:X:X*X-X*X*X).XX;.i ,.>.;.).:X;X:X`.]._.a H ",
"]./.SXSXDXSXxXmXJ.z.z.h.<.a F !.SXxXcXMXH.I.G.J.VXl.G.F.F.F.F.F.h.h.h.O.X.&.z D DXDXIXDXDXCXDXCXVXCXzXzXVXCXzXzXL.m.AXd.J.h.O.=.",
"g.LXFXmXJXJXGXGXlXxXjXs.w.#.'.{.DXHXGXmXxXlXkXlXvXjXvXjXhXhXhXhXlXxXcXi.] ) `.[.KXHXKXGXGXbXbXbXbXGXbXGXGXHXbXGXvXjXbXvXxXp.] *.",
"O.NXcXu.jXlXjXvXhXhXs.e.$.B _.}.CXGXbXjXhXhXu.u.vXjXhXhXhXu.u.u.u.u.y.8._ #.#XeXJXvXmXhXhXjXhXhXu.jXhXjXhXjXhXjXhXhXvXhXjX9._ +.",
"O.H.d.9.y.i.y.M.9.i.w.[ % n Y :XSXmXvXhXa.i.s.f.u.y.y.i.q.8.9.p.9.a.9._ @ 5 N Y SXy.i.q.q.z.8.q.8.z.q.k.q.k.q.i.q.q.cXy.f.{ ^ e ",
"~.g.x.x.e.8.9.f.9.0.r.Q = b U @XH.mXjXu.q.q.q.a.a.e.9.r.0.` 8.q.9.i.e./ % 3 m Z L.9.m.8.9.F.8.t.` h.` v.8.d.8.d.8.0.N.e..X%.^ n ",
"~.| n.N.a.y.y.kX8.9.` Q = 0 S #XSXbXjXu.i.y.y.a.s.a.e.e.9.8.9.i.9.y.e.[ ^ r m Z VXa.CXa.y.M.8.n.8.n.9.M.9.M.9.N.` 8.N.x..X%.#.n ",
"6.t.9.9.w.` ` w.Q ` 8.` Q ! =.Q.7.{ 9.9.` ` ] _ 9.8.8.8.8.9.9.8.8.` _ W W ( =.,.MXy.8.8.8.` ` e.` ` 8.` ` _ ' ] [ _ ` v.{ $./ 4 ",
"a ( ^ W @ + ^ / # $ ( W = - j v t = ^ ^ ^ ( * $ * @ ^ W W W ~ @ @ # # o o 6 D G 7.~ W @ % + @ % ^ ^ ^ ^ @ @ + = & + @ ^ ^ @ 4 u ",
"J F t ; 8 8 a i q q a u q k S L V 0 9 u u u u 6 q 0 t p r r i t 6 0 k s s S U U 9 9 9 u n n n N B B B B n m b Z 8 ; t , y & a q ",
"OX,. .> < y >.*.a i i i B p 0 S L G K oX).'.).>.p a (.,.:.:.:.#.).XXXXF [.K #X;X#X*X:X:X,XrXrXrXrX5X:X;XN m b   Q.U.W.Q.!.2.Q.>.",
"2XI.G.l.H.^.C.S.|.|.Z.}.|.|.}.$XT.E.&X{..X X XS.1X{.4XPXAXPXPXL.L.K.Z.Z..X|.K.v.v.v.Z.v.m.F.G.G.N.K.S.7.<.>.XXOXSXl.l.NXl.J.H.6.",
"0.u.jXhXu.u.u.y.kXu.y.u.kXBXa._ O.X.^.L.ZXZXZXkXu.y.u.zXhXhXjXhXlXkXs.hXkXBXkXkXlXlXjXjXjXjXjXvXmXxXMXt.' ! > =.KXHXjXmXjXmXzXV.",
"0.u.jXhXu.u.u.hXhXy.y.u.lXlXu.` X.U.~.G.jXvXjXy.u.y.y.y.i.y.u.u.u.hXu.hXu.u.y.u.s.y.y.hXhXhXjXjXhXhX9.8.'  .E.<XKXGXjXjXjXlXlXw.",
"' q.i.i.8.8.y.u.y.9.` 9.u.hX9.Q ; h U.j.s.hXp.8.u.9.9.0.` 0.0.8.9.y.hXu.9.8.8.q.B.` ` q.d.u.u.u.cXy.8._ W r m K JXcXzXu.zXu.M.[ ",
"<.r.9.d.0.` 9.a.9.q.0.` a.s.8.W ; g h ^.q.kXq.8.kXy.9.q.` ` 0.` a.f.u.y.a.k.` j.[ _ | ` 8.i.9.9.9.q.0.) * e q A ZXzX9.d.y.f.x.$.",
"} d.y.i.q.8.e.9.9.t.8.8.a.kX8.Q 1 h &XC.f.y.i.` kXu.y.9.8.` 9.8.q.s.y.y.9.i.` 0.w.8.0.8.9.p.9.y.y.i.r.' * : z H ZXs.i.i.9.a.e.@.",
"$.a.y.y.8.` r.` ` ` ` [ e.x.{ ^ < c =XS.N.8.w.Q e.8.8.[ _ _ [ [ [ 8.` ` ` r._ ] 0.` 0.8.` q.8.8.q.8.' W # e z H l.9.8.0.8.` { ) ",
"+.%.{ Q W $ ( W / ^ ^ / $.$.^ 3 8 z XX]./ $.@ + / / ^ +.* 3 & = = % ^ % @ ! @ ( / ^ / W W W W / ) ^ @ = o q Z J o.~ ~ W Q @ ( : ",
"9 (.4 o ; - e & a r i i 5 i 9 w b Z N #X3 i t 0 r u u q z b 0 l q 9 i : & e & : u u u m p 9 9 3 u u B m m m U Y T.; , X < : x 0 ",
"R @X,.T.x =.R.4.@X,.4.].:.i D p K (.-X:._.>.+Xx :.oX>.p H P K ;X@X:.-X6.<.<.<.-.>.(.XX#XOXM M M (._._._._._._.oX+Xh y =.E.oXOXD ",
"5X3XK.P./.V.L.M.H.h.M.AXd.B.D.3.C.m.AXm.H.h.^.o.F.P.o...Q.Q.!.2X4XL.IXCXzXf.l.z.k.G.h.P.C.| D.B.Z.V.K.F.L.F.d.d.S.V.b.Z.c.D.6.(.",
"{.CXlXZXmXjXjXvXxXjXbXGXjXhXMXzXjXbXbXGXjXxXu.y.jXxX9._ j.j.j.LXxXjXJXbXGXvXmXjXbXGXvXvXjXu.cXhXu.hXjXjXjXvXjXvXBXlXjXZXu.a.{ ) ",
"} SXu.s.zXy.hXu.y.hXjXhXkXu.kXu.9.9.u.u.p.8.q.8.u.u.q.Q ~ 3.4XLXcXhXjXjXhXu.u.u.u.cXy.u.8.l.9.9.u.u.hXhXvXhXjXhXvXvXhXzX8.] W r ",
"7.I.y.a.d.8.i.9.8.9.a.y.n.x.n.d.` ` q.9.t.{ ] { a.w.} @ &.-X6X/.t.y.y.y.y.9.9.9.a.m.8.t.] C.` ` r.8.9.9.f.y.i.y.lXlXy.d.` ~ @ r ",
"5./.e.e.b.[ 0.8.w.e.m.e.x.w.n.n.` ] 8.a.w.| $.{ v.{ @.+ a *X6X2Xc.w.e.9.e.w.b.c.w.x.{ c._ B.[ [ | ` r.w.t.w.c.e.y.y.8.w._ ! # 6 ",
"6.|.e.w.b.{ w.9.9.y.s.e.x.e.N.a.9.a.y.s.9.x.w.e.e.b.%.^ ( `.2X{.F.a.f.e.d.e.x.w.e.a.e.n.` e.{ w.8.w.x.9.d.8.d.e.a.9.8.0.' ( & u ",
"%X3Xw.[ [ [ _ _ 8.8.9.` w.8.e.9.8.9.9.y.8.8.8.8.e.w.%./ * ( }.S.t.9.a.8.e.8.8.[ 9.e.9.e.` 8.8.8.8.` 8.` 8.` 0.8.8.` ` ' / $ e u ",
"T.3.} ^ * * @ @ ! @ ! X : + W W @ Q Q _ W ( ! ^ [ ^ ( X t a @X,.! Q ~ W / @ ( W @./ ^ / / W W ! ^ W ~ @ ! $ ( ! @ @ $ # $ X - w ",
"c W...r a a 1 1 j g 7 . d d z c t h h 1 ; , 8 e &.o 8   S S P D e : y X y - p 8 q w w 6 t - t a t - t ; t ; t 8 < 1 , ; < ; j   ",
"Q.2X/.^.1X-X ...c , g l L P ,X6X%X!.=X-.R.y R.*.*. .T.p j 8 F R.R.-.Q.X.E.T.+X,.G l t x XXoX&X=XR.>.Y.r T.=.R.=.!.W.^.2.!.-.E.F ",
"A.m.VXVXL.G.M.MX^.D...U.c W.3XK.G.J.l.J.H.g.F.m.MXd.H.B.^.1.S.V.t.H.z.h.h.h.C.h.T.E.%X2X3XC.P.H.H.V.P.h.H.g.H.H.M.VXVXSXAXI.S.%X",
"B.BXlXBXBXlXnXvXcXi.` ' ..g.AXlXhXjXhXjXhXy.lXlXnXhXu.y.a.9.s.hXhXhXu.u.u.y.u.y.*.5.^.P.d.9.kXy.u.u.y.zXu.kXhXlXlXnXnXnXhXkXe.} ",
"| i.hXlXs.s.u.hXd.8.Q  .&.2.K.s.hXhXu.u.i.8.a.kXcXu.u.8.e.9.a.s.u.u.y.y.y.9.y.9.t &X-X{.r.8.s.y.s.u.9.u.a.BXs.s.u.hXkXhXu.y.w.' ",
"} 9.y.9.q.8.8.8.b._ @ , z oX{.x.s.M.a.t.r._ e.a.u.y.a.8.c.w.e.a.y.d.9.q.t.e.e.8.8 <X,X1X%.e.M.a.M.9.d.8.M.a.s.s.8.9.9.y.i.q.r.) ",
"} q.i.9.w.r.0.q.e.` @ , c $X3Xs.s.u.y.q.0.` 9.f.u.y.y.9.a.9.a.a.u.u.9.q.i.y.a.9.- &X6X3Xe.y.CXhXhXy.p.y.f.y.u.s.0.8.q.y.9.q.` ( ",
"o.e.s.a.x.x.q.y.s.8.Q < c W.P.y.kXhXu.y.q.8.a.u.cXu.y.9.y.y.s.kXu.u.y.i.i.y.a.9.> &X2XI.y.u.nXjXhXhXu.cXy.u.u.lX0.e.a.y.y.y.r.} ",
"~ 8.9.a.w.w.8.8.9._ @ j v Y.7.8.s.s.9.0.] Q 8.9.q.8.` _ { [ w.x.8.0.` ] ] [ w.[ 8 XX%XA.w.9.kXu.y.i.8.q.] 8.8.t._ 8.9.9.a.e.| @.",
"W _ 8.` [ [ Q _ / % ; s C S ).Q _ _ Q W # + ( [ W @ $ = 4 + % ^ @ ( @ $ # = ^ @ d S H oX/ Q ` _ ' Q ! @ ! @ ! W W Q _ ` ` ` Q @ ",
"N `.`.u 2 0 q p s k q 6 F P L d d   D u p w . f d d l 0 9 9 N V C f f   M q t ; q D k A d k   l l l A l k   l 0 m 9 N e a q q s ",
"`.].}.].).,.-.5.&.&...) <.,.T.- a r 6.4.].5.E.OXE.=.Q. .:.@.].#XS S J ).6.4.-.*.oX$X=XT.=XT.Q.R.<X=X,X&X&X,.,.*.].].-X:.].oX(.K ",
"'.|. XP.H.C.g.H.H.G.G.VXG.G.V.B.g.r.AXf.VXM.D.D.C.t.H.x.N.n..XB.&.T.!.I.M.M.d.l.m.F.I.t. Xt.H.L.J.J.3XF.H.t.d.e.|.Z. XZ.Z.7.:.(.",
"}. XM.a.q.q.i.p.zXkXlXnXlXhXu.f.f.u.lXjXnXhXy.9.y.y.zXkXBXs.kX{ ) 2.V.AXlXlXhXzXu.lXu.s.u.kXu.lXu.u.lXhXhXhXkXhXn.y.n.9.0.| ~ r ",
"7. Xa.9.q.8.9.u.y.y.y.lXu.u.9.a.9.9.kXu.BXs.y.9.i.9.y.9.a.9.e._ X.T.1.SXs.u.9.y.y.s.y.hXu.kXy.kXhXkXhXs.u.u.u.u.9.9.9.9.` ] ~ r ",
"@. Xq.9.d.9.9.u.9.q.9.VXy.d.8.h.8.8.m.y.a.e.9.8.q.8.e.0.w.8.c.W , , -.C.d.9.` 0.8.t.t.9.a.e.9.q.9.e.9.y.9.i.q.e.q.y.q.9.8.r.~ &.",
") /.i.9.d.i.y.hX8.q.8.l.8.i.8.0.` 0.k.8.9.9.8.9.q.8.d.t.V.0.] @ ; 1 U.C.m.8.0.0.' ] 8.8.8.q.` ` ] 8.8.q.8.q.0.] y.y.y.i.8.t.Q  .",
"2.UXi.8.i.9.y.zX8.i.9.f.9.f.9.q.` 8.d.` 9.y.y.a.i.9.y.8.8.8.r.Q X.1 ^.H.VX8.8.q.Q 0._ l.8.F._ ] _ 8.8.y.8.i.` ` e.y.q.a.` r.W +.",
"..o.V.` ] _ 0.8.8.t.0.t.8.w.0.t.r._ ' ' _ 8.8.9.e.9.a.0.t.8.| ( , h A.L.9.t._ g.Q ' ` q.8.w._ Q Q | 8.a.9.t.` ] | | _ c._ } ( 3 ",
"XX!.) ) + * % % @ W @ ( @ ( @ @ $ O & X O ( ^ / / / / @ ( ^ * O 7 7 +X4.$./ @ * $ $ / / ^ % = o o +.^ $.[ $.W ( = = @ % = = = 6 ",
"F (.5 4 o m 9 3 e e - a a M u 2 q w k k 0 D u 5 ;.5 ;.i F i a 0 s d P ;.).3 6 8 8 t 4 `.5 M k L s Z i #.^ * # - a e : & y t x D ",
"@X4.].:.*X@X*X$X'.oXoX*X=X,X-X$X@Xz I P H #X).].+.@.4.'.'.:.@.r P H @X7..X4.).T.x XX:.].:.;XI E U R @X].}.].=.T.;.r =.( 4.&.oXF ",
"].Z.|.Z.2XD.C.D.M.G.K.P. XI. XL.S.} Q.Q.].}..XCXAXAXAXPXPXPXAXL.D.D.m.CXBXAXm.D.3.D.v. Xb.6.y z x &X{.K.AXL.K.C.{.Z.|.V.3X}.2X&X",
"[ e.y.d.8.q.8.9.lXhXkXu.u.u.hXlXf.` ] B.V.L.BXZXlXnXhXhXhXnXvXlXy.zXhXHXbXnXs.y.` y.u.lXy.w.W > =.6.L.kXnXlXu.y.y.u.u.y.a.9.{ #.",
"%.a.y.kXi.p.9.u.u.y.i.8.9.9.y.9.q.Q X.~.3.C.a.kXi.y.9.y.9.u.hXu.8.i.u.nXvXu.q.` ` 8.y.s.9.] $ , E.%X/.i.lXhXu.9.hXhXu.hXu.i.` ) ",
"}.e.s.9.p.8.9.9.` ` ] ~ o.' r.' ~ # 1 c c 2.{ ` ' ] _ ] ' q.8.0.~ O.8.y.s._ O.$ ' 8.0.a.` ! ;   v +X^.e.s.y.t.0.hXhXu.hXy.y.` ~ ",
"^ c.0.q.[ e.x.e.i.0.N.[ c._ t.9.[ @ : h -.D.{ b.9.e.9.e.w.e.8.8.8.h.8.q.r._ r.` t.9.9.a.n.[ X g G =X Xx.e.9.d.q.u.u.y.a.a.n.x.%.",
"( o.] 0._ 8.x.e.a.9.m.` r._ t.9.w.^ y c W.C.w.x.9.y.y.y.9.9.9.9.8.i.` 0.8.` t.` 8.8.8.a.a._ X 7 l #X4Xa.VX9.m.8.u.y.9.8.9.9.w.<.",
"( 1.] ] ' 0.e.w.q.9.a.8.r.` 9.9.0.W X.=.!.^.e.x.9.9.8.q.8.9.9.9.8.q.8.9.t.` v.w.8.0.9.y.x.[ # g g < 3X8.M.` t._ q.8.8.] ` ` ] ) ",
"= ..Q ' W Q _ [ ` ` r.' o.Q ` ` _ + , c !.^.{ w.` ` ` 0.` ] ' ` _ ] _ _ ' _ | ` Q ' _ [ { Q X l l x {._ w.Q } W 0.g.o.o.o.| } r ",
"3 #.% ( @ $ ^ / @ W ! W ! @ W W > X j z XX#X^ ^ ! ( @ ) @ ( % ! ( ! @ ! ! $ ! ! # * ( / #.= w d L P '.@.Q ( ( > @ @ @ + @ @ + O ",
"9 M 3 >.* r i B - : e e 8 8 e 2 q   V L Y Y B B 9 9 9 m 2 q 6 9 t 6 8 9 - , ; ; ; t u 4 ;.u   s f J n `.3 i 6 8 &.;.u i r i M N ",
"K ;Xm OXa x N F G I R J I I J J T S T T T aXY qXU qXU E J E U E U S S b A A Z k k G D M N K V C L L J F F H I A z p b 9 t z D N ",
"aXsXeXsX7X>XpXaX7X7XiXaXaXpX7XiXgXyXyXyXtXiXaXdXfXfXtXdXqXdXfXdXdXfXdXdXdXdXaXgXiXpXpXeXsXsXtXyXyXpXsXeXsXpXpXiXpXpXfXsXsX7XsXfX"
};
