/* XPM */
static char *_____________[] = {
/* columns rows colors chars-per-pixel */
"64 64 256 2",
"   c #3F1E00",
".  c #581A02",
"X  c #5C2B07",
"o  c #583509",
"O  c #5A2E16",
"+  c #5C3D1C",
"@  c #583617",
"#  c #493316",
"$  c #6B2C03",
"%  c #652B05",
"&  c #63340D",
"*  c #66390A",
"=  c #77390C",
"-  c #673917",
";  c #763B15",
":  c #702D0A",
">  c #573B26",
",  c #52392A",
"<  c #673C25",
"1  c #6B3F2C",
"2  c #59421A",
"3  c #6B441D",
"4  c #6D491F",
"5  c #654319",
"6  c #7D4315",
"7  c #74441C",
"8  c #7D441A",
"9  c #7C4A1C",
"0  c #724415",
"q  c #744914",
"w  c #5C452A",
"e  c #5D4532",
"r  c #4D4A37",
"t  c #6D4A23",
"y  c #684628",
"u  c #734522",
"i  c #734B23",
"p  c #7A4C24",
"a  c #744B2C",
"s  c #7B4C2B",
"d  c #774528",
"f  c #7B5325",
"g  c #7C532B",
"h  c #765728",
"j  c #674935",
"k  c #764B33",
"l  c #7A5437",
"z  c #695332",
"x  c #7A5847",
"c  c #704F40",
"v  c #67564A",
"b  c #843E0E",
"n  c #8B4C1D",
"m  c #86471A",
"M  c #934C1C",
"N  c #8D541E",
"B  c #844C23",
"V  c #8B4D23",
"C  c #844E2B",
"Z  c #8A4A28",
"A  c #934D24",
"S  c #9A4C26",
"D  c #845225",
"F  c #8C5325",
"G  c #84532B",
"H  c #8C542B",
"J  c #8E5B2D",
"K  c #875A2A",
"L  c #935325",
"P  c #9A5325",
"I  c #94542B",
"U  c #9A552B",
"Y  c #945A2C",
"T  c #9B5B2C",
"R  c #985A26",
"E  c #825532",
"W  c #8B5431",
"Q  c #8C5A33",
"!  c #865939",
"~  c #945C33",
"^  c #9B5C32",
"/  c #9A5D3B",
"(  c #965735",
")  c #894E35",
"_  c #A35C2D",
"`  c #A6562A",
"'  c #B25D2A",
"]  c #A35D33",
"[  c #AA5D34",
"{  c #A35C3A",
"}  c #A75B38",
"|  c #B35C38",
" . c #A14C25",
".. c #9B612D",
"X. c #95632A",
"o. c #886334",
"O. c #946234",
"+. c #9C6233",
"@. c #94623B",
"#. c #9C643B",
"$. c #9B6A39",
"%. c #8C6629",
"&. c #A4622D",
"*. c #AA632D",
"=. c #A36334",
"-. c #AA6435",
";. c #A46A34",
":. c #AB6A35",
">. c #A4643B",
",. c #AB653B",
"<. c #A46A3C",
"1. c #AC6B3B",
"2. c #B36934",
"3. c #B3643A",
"4. c #B36C3B",
"5. c #BB6C3B",
"6. c #B76736",
"7. c #AC713D",
"8. c #A7733A",
"9. c #B3723D",
"0. c #BB723D",
"q. c #B4632B",
"w. c #A75019",
"e. c #C26D39",
"r. c #C3723C",
"t. c #C4763D",
"y. c #875B45",
"u. c #94584B",
"i. c #A25F44",
"p. c #8C6348",
"a. c #9D6642",
"s. c #9C6943",
"d. c #956948",
"f. c #8C6A55",
"g. c #966C53",
"h. c #9D7356",
"j. c #A46342",
"k. c #AC6441",
"l. c #A46B43",
"z. c #AC6C43",
"x. c #A86E49",
"c. c #B36D43",
"v. c #BB6D43",
"b. c #B56645",
"n. c #AC7244",
"m. c #AC744B",
"M. c #A87549",
"N. c #B47344",
"B. c #BB7444",
"V. c #B57A44",
"C. c #BC7A45",
"Z. c #B4744B",
"A. c #BC754B",
"S. c #B47A4C",
"D. c #BD7B4C",
"F. c #AA7A57",
"G. c #B47C53",
"H. c #BC7C52",
"J. c #B57E5B",
"K. c #B97756",
"L. c #B06D53",
"P. c #A97B65",
"I. c #B67D66",
"U. c #9A7576",
"Y. c #C16D45",
"T. c #C37443",
"R. c #C47A45",
"E. c #CB7B45",
"W. c #C2754B",
"Q. c #C37C4B",
"!. c #CB7C4C",
"~. c #CA7445",
"^. c #D17D4D",
"/. c #D27B46",
"(. c #C47D52",
"). c #CC7D53",
"_. c #C67A59",
"`. c #D67D53",
"'. c #C06F51",
"]. c #C47D66",
"[. c #DA7A6A",
"{. c #BC814B",
"}. c #A88158",
"|. c #BB8255",
" X c #BC835C",
".X c #B58358",
"XX c #AA8465",
"oX c #B48363",
"OX c #B98766",
"+X c #A98777",
"@X c #B89378",
"#X c #B99374",
"$X c #988468",
"%X c #C4824D",
"&X c #CB824D",
"*X c #C98349",
"=X c #D3824C",
"-X c #D6854D",
";X c #C48254",
":X c #CC8354",
">X c #CC8A55",
",X c #C4845B",
"<X c #CB845A",
"1X c #CC8A5B",
"2X c #C28A59",
"3X c #D38453",
"4X c #DB8553",
"5X c #D38A54",
"6X c #DA8B54",
"7X c #D48C5B",
"8X c #DC8C5B",
"9X c #D5855C",
"0X c #C8935B",
"qX c #D7925A",
"wX c #E58B59",
"eX c #E3945D",
"rX c #E9955C",
"tX c #C88A65",
"yX c #D48D62",
"uX c #DC8C63",
"iX c #D78564",
"pX c #C99268",
"aX c #D49263",
"sX c #DC9364",
"dX c #D9966B",
"fX c #C59674",
"gX c #D69B76",
"hX c #CB8A76",
"jX c #E38D66",
"kX c #E39464",
"lX c #EB9564",
"zX c #EC9A64",
"xX c #E99769",
"cX c #F39769",
"vX c #E99A75",
"bX c #F79D73",
"nX c #D6A17A",
"mX c #E9A16A",
"MX c #F3A36A",
"NX c #E9A778",
"BX c #F9A574",
"VX c #F7B27E",
"CX c #EAA05F",
"ZX c #B89588",
"AX c #B0918B",
"SX c #B19F92",
"DX c #C59A8D",
"FX c #DAA883",
"GX c #C7A593",
"HX c #DBB29C",
"JX c #CFA890",
"KX c #E8AB84",
"LX c #EAB18B",
"PX c #F2B087",
"IX c #D6B1A4",
"UX c #EABDB8",
/* pixels */
"r SXU.U.XX@XHXHXUXIXHXJXHXHXIXAXSXAXAXU.U.SXIXIXDX+X@XAXZXDXDXx c GXDXGXHXGXJXGXDXZXZX@XAXZXZXDXAX+XU.+XAX@XZXGXGXIXGXGXGX@X$Xr ",
", I.^ [ q.E.MXBXPXvXsX7X<X,Xm.@.Q J Z Z I _.sX3XQ.:.8.8.N.(.1XL B tXK.H.,X|.D.1.;.J K X.<.<.$.Y H Z G Q i.l.G.H.(.OX,X;Xx.;.%.2 ",
"O I.{ 6.T.8XMXBXcX8X3X!.9.1.X.F D B H F k.iXvXjX0.2.:.8.V.(.;XT = (.1.c.Q.{.V.>.Y B L I <.1.,.I V V L ^ >.l.A.D.<X;XQ.B.:.;.8.f ",
"O gX1XkXqXkXkXuX(.N.1.x./ Q K E f p D Y H.jXvXuX5.:.:.8.G.G.m.m : G.#.l.m.m.s.Q 9 9 H J +.>.<.^ C C W ~ l.x.m.Z.H.H.c.] ^ M.{.l ",
"- LXvXmX5X5XQ.T.:.T ^ Y J B K J K N R 4.uXlXcX`.T.T.B.9.S.m.$.= $ Z.T =.<.>.F m p K Y +.+.<.;.+.V V Y >.Z.H.Q.A.5.B.5.6.v.:X0X@.",
"k HXgXdXD.D.N.<.&.Y ^ J Q D J X.Y Y 1.:XxXcXjX`.).).(.Z.s.@.G $ % H.+.>.>.^ F n I l.m.m.#.x.j.j.I I T ,.(.:X:XW.5.6.r.~.uXsX0X! ",
"y HX,XQ.1.1.=.T J W G g G K J O.;.7.R.8XlXwX4X`.9X).D.x.o.h 7 X X .Xa.a./ W B Y 1.D.,XH.>.1.1.<./ ~ >.x.(.<X<XQ.B.B.!.8XvX1XS.s ",
"k LX XZ.=.+.Y J B J B D m X.;.9.9.R.6XrXwX4X`.`.).W.,.I i t i X X J.@.z.z.>.^ ,.S.D.S.n.#.<.a.#.I U +.=.Z.Q.Q.T.0.!.6XkXxXT.;.u ",
"t DXM.<.X.I J F H C G G ( 3.B.C.E.-XrXrX/.^.3X&XA.>.J u 3 3 g - X F.#.x.G.x.z.c.H.A.z.} #.$.#.#.U ( ^ -.B.B.v.Q.=XwXMXMX).-.X.- ",
"y fXa.+.Y K F H I G G ( -.v.).3XzXBXMXrX~.T.9.1.#.~ G i i t t o o .Xx. XtX;XZ.z.{ [ T L Y Y ~ ^ Y I _ 4.5.2.0.!.!.xXMX6XZ.T X.i ",
"+ OXQ H H V V F V B H >.v.~.8XlXbXBXlX^.0.9.=.X.K p 4 3 i t t & * OXM.G. XZ.,.P A U U U ^ ~ ~ ~ I I =.N.5.:.T.3X=XlXrX0.c.X.%.t ",
"> XXG F F V V V V I >.B.!.wXlXbXbXcX`.5.-.=.J f 4 5 5 5 t i f * * tXF.m.k.{ I A V S ^ >.>.+.Y I L U 2.B.B.5.Q.&X!.3X&X0.z.O.%.t ",
"@ XXi B B F L P U ,.W././.wXcXbXcX`.v.>.X.%.h 2 2 2 2 4 i K @.0 * tXx.l.^ P P H I { ,.z.z./ I L P =.0.Q.E.!.&X!.5.~.*XQ.j.O.%.y ",
"@ P.u 9 F I T -.A.`.9XwX4XrXcXcX`.| } ( Q h h 2 o o 4 h g s.F.D ; tX>.I I I ^ ^ c.A.A.z.=.Y L I -.9.Q.!.3X5X&XT.6.W.&XC.{ ^ $.y ",
"# }.p F Y ,.v.).jXxXcXrXrXCXzXwX3.` I G l z t 2 o + 4 f $.G. X~ 6 ,XT I U ] z.Z.;XH.c.+.Y F R ] B.Q.&X3X5X9X!.0.C.:X!.4.{ >.$.j ",
"@ XXJ ..1.H.9XjXjXcXrXrXrXCX6Xe. .H C p l a w 2 @ t f Q G.2XS.Y = H.Y U ^ { N.(.(.H.,.^ I U >.B.(.>X:X3X5X3X~.5.Q.<XR.=.i.#.$.j ",
", OX=.B.N.|.dXeX4X/.`.~.cXrX=X-.S ^ W a z y 2 2 y p / z.2X.Xm.m % Z.L ^ } c.,X;X(.k.^ L P :.D.>X5X:X%XqX7X;X2.&.B.:XB.U ] >.s.a ",
"> fXR.R.9.;X7X4Xe.' e.~.MX-X5.P I H E z y > 2 t f H =.H.2XM.( ; : H.U ,.B.A.(.(.c.,._ *.9.%X7XqX>X>X%X;X:X_ P 5.C.4.=.-.c.x.s.y ",
"< gXT.q.2.%X:X~.' w.4.6XzX^.4.^ W s a a @ @ i l O.n.D.(.m.i.) ; $ (.^ c.<X(.A.W.v.4.4.B.:XqXqX5X%X9.-.=.+.=.z.D.1.^ >.Z.z.#.p.- ",
"- KXE.6.5.%XR.q.w.2.7XNXqXW.] J E i y 2 # - s ! n.,X;XN.( Q W : % tX1.(.).Q.B.B.B.C.Q.>X7X5X&XB.4.R U I 6 <. Xx.Y =.S.H.+.J ! 2 ",
"y KX5X*XC.%X{.2.e.4XmXnXA.i.I p a u y - y t g d.J.H.c.>.J G C * $ aXS.yXC.R.B.B.Q.Q.:X7X>XC.,._ n n V H #.l.$.~ J <.G.S.#.f g 2 ",
"y KX5X6XqXdX7X&XwXcXsX2X/ ( C p p i - 3 i i o.}.oXx./ ~ G G ~ 6 ; dXD.;X:.0.Q.%XQ.Q.;X:X(.,.I m n F ( Q .X#.W H ~ l.m.#.J 9 a 2 ",
"< KXsXNXVXVXaXT.r.-X(.Z.Q ! d u d u 7 i i G a. XJ.j.I Z W Q x.V m aX;.4.9.R.>X&XE.t.Q.Q.B.T V Z ^ x.K.m.a.G C W #.l.$.J q q a 2 ",
"< FXxXmXmX0X9.` ` r.A.l.E k u p 7 7 p f G ~ M.S.x.U H H @.s.F.I 6 ;X&.*.5X6X6X-Xt.r.R.T.,.S I { G.J.K.J.W C C ( s.$.Y 9 q h l w ",
"> LXNXsXS.$.n M r.&X0.Y l l g B f 9 D F +.=.1.T n L I I l.s.m.Z $ Q._ R.lXrXeXE.e.e.e.R.0.=.=.Z.tXG.l./ C B B Y <.8.T 6 = D d.a ",
"k LXqX4.n 9 m &.T.E.c.Y E ! E C 0 9 Y 1.N.:._ R ^ ] _ j.L.m.G.b $ V.B.&XkX5X-Xr.' 5.E.-X5X1X(.A.>.Y Z m B H Y #.l.<.F 6 9 +.}.l ",
"j FX;XT 9 0 m =.W.Q.=.H g s 7 ; 6 F <.,XD.:.R P U _ } Z.k.#.k.= $ (.!.:X6X!.5.` 5.3X8X9X7X<XA.,.I V V B F I I >.7.=.L n U N.oX! ",
"y FX=.N D f K n.&XQ.<.J G G G F Y <.S.>XB.2.:.9.D.%X<X1Xx.l.#.m $ kXyXuXW.B.3.5.9XuX8X(.c.#.I V n V V V V V n T N.N.-.=.N.H.I.k ",
"> fX8 ; D g O.{.(.n.~ G B G ~ a.7.n.x.z.^ =.1.B.|.Q.;X|.l.l.F = X NX0X0X(.D.N.H.H.W.c.=.Y H D B n D H H ~ ~ +.n.>XyX2X;X<X Xm.- ",
", XXB I @.d.h. X<Xx.Q B G ~ m.J.tX Xx./ ~ #.x.n.n.z.V.S.M.l.K 9 * LXdXdXNX1XZ.x.l.m.j.( G K G K K Q Q O.#.#.+.<.H.;X|.;X1X.Xg.> ",
"j d.~ / d.d.h. XD.j.! p.l.m. XfXpXI.s.! ! ! s.#.@.l.M.m.o.K Q 9 8 FXgXgXpXM.#.#.d.s.@.W g g h f h l d.F.F.F.G. XpXtX,X X2XM.d.+ ",
", < V 8 3 i g Q U ; ; E ~ / ~ ( ! E a - - - < - - 9 D Q 3 o i * * G.O.O.9 5 * 7 g 7 - o + 5 5 5 t a o.l i 7 u D ~ ^ J $.$.f t # ",
"# . f X % & 3 0 = $ : p ; ; - ; < - & O O & & & o * 5 * 5 o q o o %.5 * o o o o o X o @ o @ o o + o o @ o o - ; 0 p m ; 8 o o # ",
"1 gX(.3XjX_.1XNXPXgXpXgXpXpXaXpXtXoXF.F.J.I.J..X<X:X=X8XqXPXNX_ m NXsX7X:X<XaXdXtXK.K.K.K.tXdXgXoXG.M.m.m.H.aXdXvXbXbXPXvX;X$.i ",
"O tX4.E.} } Q.8XqXC.,.1.#.=./ ^ H Z C C C H T ^ 5.~.5X6X&X7XqXP b VX>X*.=.4.,.=.I n S ( k.j.b.,.A m V A [ 5.Q.!.~.5.~.8Xv.-.$.u ",
"+ #XV.4.T A.;XsX5X0.=.] T =.>.{ F Z 8 ; B U c.(.%X7X5X*X>X{.%XR m mXV...:.D.7.=.B Z #.K.tXZ.>.H m ; n T V.%XQ.0.5.5.r.=X,.R %.y ",
"O fX1.-.(.).aX:X0.9.1.1.] ^ T I I H V H >.Z.(.W.W.8X6X~.:X<X:XP M NX:X%X;XS.,.I Z ( z.(.J.c.U n n F =.N.1X2X%XN.' 6.R.3X<XB.8.a ",
"> oX..-.A.A._.c.;.2.c.1.] U V m V / j.l.L.N.,.A 3.3XkXwXT.).9X .m NX>X,XS.,.( V I j.z.L.i.I B V I ,.A.<X9XQ.5.,.3.T.Q.!.].B.<.a ",
"@ XXX.I z.G.,.n.-.4.,.,.^ -.,.z.(.,XtXZ.z.b.B.v.8XxXzXkX:X:X:XM M NX,Xn.<.+.^ ^ <.x.s.#.~ F F #.c.(.yXuXuX).v.5.B.;X0X>X(.9.O.y ",
"@ F.J Y z.#.^ P _ 3.} } [ B.<XyXuXyXK.,.] ,.).uXkXzX4Xe.^.).!.P M VXD.T F L Y / >.^ H m H L ..1.(.<X).<XQ.W.5.5.v.Q.%X:Xv.4.;.a ",
"# F.K %.m.>.^ T -.[ | | A.iXyX1XH.c.>.U | B.9XjXlX3X!.t.r.!.!.M b NXN.Y Y ~ #.#.Y B B B J J ;.S.<X<X<X).!.Q.A.5.B.{.{.2Xc.] ;.i ",
", }.J V.n.<.^ T M -._.dXdXyX(.(.A.z.-.S _ b.9XkX4XY.5.e.r.!.R.b b KXH./ O.#.#.( B B B F Y +.n.,X1X<X).).!.W.B.,.-.V.{.;X,.+.8.k ",
"# F.K |.z./ A L -.A.uXvXyX<X(.(.Z.,.] A _ -.).uX6XT.r.~.~.!.T.b m PXH.Z.x.x./ Y V H H Y Y <.V.2XyX<X).!.W.v.-.` P 9.{.{.,...n.l ",
"O OX<.%XH.{ P _ Q.aXdXdX(.(.S.A.,.[ _ [ [ 3.T.9XjX=X!.-X^.Q.Q.L n NX|.OXF.s.W Q / #.+.+.T =.V.;XsX>XW.A.4.,.P A _ z.V.C.{ X.8.l ",
"@ fXC.Q.B.| ,.B.>XsXqX,Xz.V.n.>.T U _ 4.v.6.5.3X8X9X3X=X*X>XqX&.F NXx.x.@.W C ~ #.<.<.^ R =.B.;X7X;Xc.-...P M M -.n.7.:./ T S.! ",
"< gXQ.3X[ v.).3XqX>X{.M.^ =._ T L U :.Q.B.2.B.3X8XeX6XE.*XdXmX;.6 pXJ d - d W @.l.z.=.U L _ 9.;X;XB.=.R L N R &.N.A.9.] { 1.OXo.",
"d FX3X9X`.iXsX3X{.9.1.<.=...U I P -.B.%XN.0.!.8XkXsX5X*X5XmXqXN $ .X0 & & u Q a.l.>.^ Y P *.0.&XR.7...R L L =.V.W.A.9.,.Z.{.0Xo.",
"d LX9X4XBXbXkX!.*.&.U Y Y =.;.<.:.V.C.C.0.R.5XxXkX:Xt.*X>X%X2.6 % M.0 & - u ~ a.#.#.T P _ 4.R.5X%X:.T X.Y ..1.D.(.c.3.A._.D.|.z ",
"s KXjXlXBXMXwXB.&.T Y J ;.:.7.S.;X%X{.9.*X>X>X>X&X9.4.C.t...N * * F.i 3 3 G ~ O.T ^ Y U *.0.&X7X%X7.;.=.1.;.V.%XD.1.Y.!.;X8.<.3 ",
"1 PX9XwXwX-X!.5.&.&.+.+.1.1.9.C.%X{.C.0.*X*X%XR.N.V.9.9.:.N X.q * }.4 5 t g Q ~ Y ~ ^ =.2.E.4XsX*X9.:.1.;.4.B.!.3X).4X/.8.K K t ",
"s LX5X^.=X/.R.C.:.=.>.<.1.3.B.:X&XT.0.~.5X>X&X;XaX2XV.<.U Y <.0 o }.i h f G V B V I >.c.~.=X6XwX*XT.4.:.&.4.:XzXbXkX=XT.X.h l w ",
"k KXQ.e.E.&XQ.B.N.1.<.,.-.' r.3X4X!.!.8XzXxX5X3X:Xv.=.=.-.1.Z.C & }.h E ! G V V A ^ c.A.3X4X5X3XQ.4.&.&.&.V.sXPXBXaX5.` X.o.o.2 ",
"d FXA.T.^.&XQ.v.c.} i.k.| | Y.`.jXwXlXbXcXiXY.3.`  .` b.v.W._.H & P.s Z Z Z A S  .| '.).9X:X:X:XB.=.^ >.N.H.yXdXsXD.[ A D G u.w ",
"< gXS.T.&XW.c.3.} { { k.| v.).uXcXNXbXxX).| S S  .} ,.W._.).K.B & F.d ) Z A S S | b._.`.`.).Q.N.z.] z.S. XK.K.G.(.z.>.S F H u.j ",
"> fX,.4.T.5.6.| | ,.k.c.c.`.uXdXvXkX3X0.S S P P } ,.z.A.<XD.m.; X F.C ) H L ` ` | Y.).`.3X!.v.1.,.c.H.|.n.#.=.>.N.n.b.,.} ( u.> ",
"< tX>.2.5.5.5.5.5.A.(.<X).qXsXsX7X%X:.L M _ 1.7.1.1.n.|.,X7.@.- X F.g G J =.:.0.E.).:X`.3X!.T.v.B.(.,XS.Y I I T -.M.A.v.{ ) u.> ",
"2 OX;.q.5.r.=X-X3X4XrXCX5X0X>X>XC.&.L P R &.;.;.8.V.V.2X{.M.X.* o F.p D ..*.*X>X6X5X-X*X*XE.!.!.3X:XV.T L L R _ -.4.V.D.n.K z w ",
"o .X&.9.-XeX4X*X^.6XrX6Xt.*X>X5X0.&.X...*.7.7.8.8.9.{.0X{.<.J 0 o M.D T 9.*XeXCXrXwX-X-X-XE.E.^.:X0.T n n Y T =.1.4.5.9.O.h w # ",
"@  X;.t.6X6X*Xt.*X6X-Xt.q.0.t.R.0.4.-.1.C.{.C.N.;.:.V.%XV.O.H ; % G.I ,.t.4XzXMXcXwXwX^.=X0.r.Q.5.T n n U +.<.1.=._ 6.N.$.h z 2 ",
"@ OX{.*X6Xt.9.t.*XR.2.w.' E.~.e.!.).Q.Q.;XQ.4.} &.:.c.C.1.Y A ; $ (.U 3.^.wXrXcXwX`./.~.!.T.B.:.P m n I +.>.>.>.Y I [ B.$.f ! z ",
"@ .XG.;X1XC.V.{.%X9.` M 3.!.'.Y.`.iX[._._.A.} ` _ ,.b.b.,.( I ; . ].{ v.lXcXcX[.`.`.`.^.7XiXN.^ V V ( @.a.s.s.#.( ~ j.A.0.b.L.u.",
"< #XOX X|.G. XpXOX>.B Z Z.iX_.L.].].K.L.L.i.u.) ) i.j.i./ ! ) O . I.i.].vXvXjX`.'.'._.].gXOXa.C s E p.g.g.f.d.! ! p.F.I._.[.[.u.",
"v GXfXOXP.I.fXfXXXp.l y.].DXhXI.I.P.h.f.y.y.y.y.f.h.h.h.g.p.f.c 1 +XP.hXhXhX].K.L.g.F.I.#XP.y.k l x p.f.f.f.y.x p.h.U.OXhX].I.x ",
", f.y.! y.y.y.y.l j y k y.y.y.l c j 1 w , , w e z x x x v e j e , x x f.u.y.y.) k k l x x j j w y j j j c j > j c y.y.f.y.x x , "
};
