/* XPM */
static char *_____________[] = {
/* columns rows colors chars-per-pixel */
"64 64 191 2",
"   c #020202",
".  c #090404",
"X  c #050902",
"o  c #0A0A03",
"O  c #02020A",
"+  c #08020B",
"@  c #05080F",
"#  c #0B0B0B",
"$  c #110C0B",
"%  c #0C130C",
"&  c #111204",
"*  c #14130C",
"=  c #111C0B",
"-  c #19190F",
";  c #030212",
":  c #090212",
">  c #090816",
",  c #050118",
"<  c #0B0D19",
"1  c #130E16",
"2  c #141413",
"3  c #181212",
"4  c #161815",
"5  c #1B1C15",
"6  c #14131C",
"7  c #19141B",
"8  c #161F1C",
"9  c #1C1C1C",
"0  c #211D1B",
"q  c #182602",
"w  c #19230B",
"e  c #1D221D",
"r  c #27360B",
"t  c #232316",
"y  c #24241C",
"u  c #27291E",
"i  c #2A2C1D",
"p  c #302E1F",
"a  c #1E1621",
"s  c #1D1D23",
"d  c #1C1328",
"f  c #1E1D2A",
"g  c #221D23",
"h  c #231D2A",
"j  c #241E34",
"k  c #1D2327",
"l  c #1B2228",
"z  c #1F2535",
"x  c #1D223B",
"c  c #232323",
"v  c #2A2723",
"b  c #272926",
"n  c #2B2C24",
"m  c #24222A",
"M  c #29232D",
"N  c #2B2B2B",
"B  c #322B2C",
"V  c #2C3324",
"C  c #2F312D",
"Z  c #313224",
"A  c #383723",
"S  c #34342E",
"D  c #38362A",
"F  c #36382A",
"G  c #3A3B2E",
"H  c #272731",
"J  c #2C2533",
"K  c #2D2C34",
"L  c #2A273A",
"P  c #2E2D39",
"I  c #322B35",
"U  c #382F32",
"Y  c #332E38",
"T  c #392E3E",
"R  c #2A3235",
"E  c #2E3639",
"W  c #333433",
"Q  c #383434",
"!  c #363836",
"~  c #3B3B33",
"^  c #35323B",
"/  c #39343D",
"(  c #363A39",
")  c #3B3B3B",
"_  c #423E3B",
"`  c #3F413E",
"'  c #424236",
"]  c #43423B",
"[  c #46483D",
"{  c #494A3D",
"}  c #312742",
"|  c #342A44",
" . c #3B2F4B",
".. c #393442",
"X. c #373C42",
"o. c #3C3A43",
"O. c #3B3148",
"+. c #3F3F49",
"@. c #413645",
"#. c #433C45",
"$. c #3C4147",
"%. c #3E414A",
"&. c #444444",
"*. c #464940",
"=. c #4B4B43",
"-. c #43434A",
";. c #4A454F",
":. c #46494C",
">. c #4C4C4C",
",. c #514D4A",
"<. c #4F514C",
"1. c #535447",
"2. c #52524D",
"3. c #444652",
"4. c #464952",
"5. c #4C4C54",
"6. c #4C4D5B",
"7. c #554F52",
"8. c #4E5257",
"9. c #4F525B",
"0. c #535353",
"q. c #595357",
"w. c #565954",
"e. c #5A5B56",
"r. c #52545C",
"t. c #5A565B",
"y. c #555958",
"u. c #5B5B5B",
"i. c #605A5E",
"p. c #5F6154",
"a. c #5F615D",
"s. c #616356",
"d. c #62635D",
"f. c #6C6D5F",
"g. c #4E5160",
"h. c #545562",
"j. c #585560",
"k. c #575B63",
"l. c #5C5C64",
"z. c #55566A",
"x. c #5C5C6B",
"c. c #635E65",
"v. c #625F6A",
"b. c #5E6164",
"n. c #5E6169",
"m. c #636363",
"M. c #696367",
"N. c #676864",
"B. c #6A6A65",
"V. c #63656B",
"C. c #69666F",
"Z. c #66696D",
"A. c #6B6C6B",
"S. c #746B6E",
"D. c #6E706D",
"F. c #727265",
"G. c #73736C",
"H. c #77796C",
"J. c #79796D",
"K. c #6A6772",
"L. c #666A72",
"P. c #696C70",
"I. c #6E6D7A",
"U. c #716D72",
"Y. c #726F78",
"T. c #6F727C",
"R. c #737473",
"E. c #777973",
"W. c #7B7C74",
"Q. c #75737C",
"!. c #7A757D",
"~. c #7B7C7B",
"^. c #817E77",
"/. c #837D7F",
"(. c #7F817E",
"). c #828375",
"_. c #82837C",
"`. c #87897C",
"'. c #757983",
"]. c #7A7A83",
"[. c #817B85",
"{. c #838383",
"}. c #878983",
"|. c #86838C",
" X c #8A848E",
".X c #8C8C8C",
"XX c #8D8A93",
"oX c #908D98",
"OX c #929292",
"+X c #999A99",
"@X c #A1A1A1",
/* pixels */
"H H H H M H H H H ^ s %.P K H K J J J J J H J J K I ^ J h I J J M h M M M J I I ^ I M J I T Y I M J J h J J Y I j J J J J J J J ",
"K K K W K W R I s ^ M ].R.].Q.|.[.[.[.[.[.[.[.[. X[.t.1 # ;.K.[.!.!.R.Q.Q.!.Q./.c.-.g 7 7 g g 3 g h M M v M h h I I I U I I I I ",
"5 y 5 9 5 0 5 9 X b 5 _.G.W.N.E.G.G.G.R.J.G.G.G.B.R.w..   2.R.J.1.2.=.=.{ { { *.d.G X   - ~ =.1.{ { =.{ ' ~ S V 0 0 0 0 0 0 0 0 ",
"=.1.G 1.{ { _ =.  i t ).F.J.W.F.H.d.`.H.H.F.(.F.J.G ' .   p.).p.s.{ 1.s.{ f._ d.{ V       [ ).(.).F.).^.F.H.B.{ { { ' ' { { _ ,.",
"E.J.}.~.W.N._ =.. n v _.A.m.m.d.a.<.a.p.u.u.w.e.e.! b     &.{.m.>.8.<.N.u.d.>.>.$.b   X   >.~.R.^.J.(.(.H.D.}.D.(.}.(.(./.~.E.{.",
"r.;.Q.7.l.q.K o.O g h XXR.c.l.K.L.n.b.n.V.Z.r.L.V.y.R @   k V.:.r.L.4.n.l.4.x.4.E s ; O O 8.'.T.P.7.b.$.n.Z.y.y.%.8.8.:.7.r.9.r.",
"K.K.|.x.v.x.o.-.O 6 h oX'.j.7.v.9.k.8.4.%.r.X.r.k.4.P O O 6 $.$.r.x.4.3.h.3.Q.x.H < ; O O 6.'.Q.$.k.8.%.b.$.8.r.9.n.k.9.k.V.L.L.",
"q.U.S.A.t.,.B g . + c [.R.>.&.q.w.R.m.<.&.b.>.m.0.( W     c N $.m.b.N.5.u.0.u.8.6         &.~.!.m.0.w.! a.a.E :.B.Z.b.y.y.n.A.Z.",
">.G.w.B.w.2.) S     b E._.e.e.d.=.e.e.' G ,.=.1.i.~ ~   o u - u V 0 S * * *     o     X $ D W.J.[ m.=.*.*.S [ a.a.2.2.<.=.e.d.w.",
"d.f.e.>.>.=.S S     n d.}.N.D.d.,._ 7.=.,.,.,.q.1.Q v   . $ $ # o   o     . . X .   . * 0 u _.G.=.=.] 2.=.N.2.E.=.` &.,.<.w.e.<.",
"w.&.V.&.w.>.s 9 +   b -.R.q.u.&.u.B 7.t.M.q.i.i.c.7.N 1 . . 0 . . O . . . .     .   . 0 B 0 /.S.>.n.7.K.&.5.#.u.8.) >.u.t.t.2.$.",
">.-.&.>.&.N 9 9   # 7 0.~.A.>.0.) W / u.>.0._ ) q.*.W       c c g c =.W >.u.A.N.M.t.=.  W N A.>.>.0.( W W N I b C C R W ! ( ~ ! ",
"! W ! ) W 9         9 N R.A.5.0.>.>.&.~.w.m.-.&.m.0.W X   + c :.m.m.E.{.{.}.R.A.>.-.W X 9 g 5.&.b ! N b c s b b b b N N B N N N ",
"c g b N c #     + X B 9 N.R.u.u.2.>.&.w.#.2.>.0.0.&.c       # w.R.~.~.Q.q.V.0.u.0.&.0 <     . O # c 9 M 9 9 c b s 9 y s c 9 e g ",
"      .             W 9 >.~.w.i.l.&.w.( >.) a.u.0.W N # X X # N.~.E.A.7.C >.&.>.>.b   #   X           #                         ",
"            # # #   c c ( {.u.m.m.>.M.>.m.&.u.>.u.I ! 0 + # 9 V..Xm.m.w.m.b.w.7.d.N   #   9 b b &.c 2 c 9 b 9 9 9 g c 9 c c 9 c ",
"0.>.2.0.0.7.>.>.) # # b N [.m.m.>.>.5.0.>.>.0.,.t.! ) c     g a..X>.y.u.E.i.u.l.>.c     X :.G.[.A.N 2 N &.w.w.w.7.8.0.7.0.0.w.0.",
"_.].].~.{.{.E.A.u.    b 9 y.A.q.u.0.=.>.&.u.l.u.-.=.o.b     b m.{.l.u.q.u.w.0.u.>.N #     u.~.E.u.2 9 ) A.R.!.~.~.~.~.~.~.~.~.].",
"u.u.w.w.u.m.u.5.A.  X W 9 ( R.e.m.w.m.0.u.0.u._ b >.K 9     9 m.A.m.0.=.( c.&.N N c       !.].m.>.  c >.{.R.R.U.R.R.R.A.D.S.R.R.",
"m.,.m.l.u.0.) 2.&.    c N c t.0.>.0.5.&.! N &.N =.W 2 X #     m.=.&.w.>.b c c 9 4 #     ) {.R.,.#.  9 y.{.R.u.0.u.0.m.&.y.&.w.0.",
"m.0.m.u.l.i.&.>.W     g b 9 W b N N N 9 9 # 2     X +       2 >.;.c 2 #                 ( R.A.w.2.X 9 0.~.u.u.m.,.u.0.>.0.( >.&.",
"c.w.t.0.u.N.w.>.N   # c N s 2     X     X O             # #     N # o <         X     2 >.U.m.u.&.  b >.~.q.y.u.y.0.m.u.>.t.&.w.",
"2.>.&.( -.u.y.>.N       b b 2             #   2 9 9 N N 9 9 N >.5.=.e.m.w.>.>./ b o   N A.{.m.5.)   c &.~.u.u.>.>.u.>.>.=.! w.5.",
"&.>.&.) =.q.0.) b     . m.[.~.{.}.[.~.u.0.9 2 2 ( #.0.A.R.~.~.E.{.{.~.{.~.R.~.>.! #   o.}.{.u.>.0.  s &.(.u.t.>.u.>.A.o.;.&.&.,.",
">.u.t.u.b.u.0.W 7       D.P.m.u.8.>.m.>.m.X c 9 / Q.OX.X[.R.R.R.R.{.~.].R.R./.>.N     >.}.P.0.>.>.  9 =.~.w.0.0.>.7.u.>.V.) N.0.",
"0.u.0.l.m.>.&.y   X   + }.m.0.>.m.u.A.u.u.  N 9 u.}.G.u.y.0.u.m.&.t.w.m.u.0.m.B s     >.{.m.7.w.N   s N >.) &./ N k ] N &.&.&.-.",
") ) b ( ) b c O   #     }.u.b.a.u.c.&.u.!   c c 2./.R.m.m.&.] i.m.u.&.w.u.w.m.b c     0.}.M.y.u.9 7 c     9 N 2 c c 9 s c b N B ",
"b c 9 o       X       X _.8.<.a.A.M.w.>.K   c c y.OX5.m.m.w.u.:.&.m.0.u.0.m.5.N 9 .   >.OXt.u.>.b o W . O X   # .   X     # . e ",
"X # X     # = 4 b b 2 5 W.m.a.<.u.w.A.2.W #   7 w..Xq.w.0.>.>.) w.m.0.>.&.0.&.b g #   5..Xu.c.w.N   b   #                     X ",
"e W ! ` >.<.0.<.` 0.8   W.A.<.0.>.m.>.>.W   % 9 0..XV.=.>.5.) &.7.u.>.` >.>.0.W 9 # X >.}.0.m.m.K   N b W 9 ( N N W c N b #     ",
"W a.A.R.(.~.R.B.R.d.` 4 ~.b.B.<.>.7.8.&.( 2   N -.}.~.=.w.u.#.0.! &.&./ 0.-.7.b 2     =.].0.u.l.N   g m.E.D.S.-.W K c 9 c 9 7 N ",
"C D.E.E.W.D.B.b.w.a.)   OX<.<.a.0.0.u.u.,.b   7 W ~.|.0.u.i.&.w.$.>.>.&.e.>.>.c #     &.~.0.w.w.N # c R.` >.R.}.~.R.}.(.Q.7.% c ",
"( (.E.d.d.8.p.w.y.<.:.4 +X<.N.p.u.A.0.u.>.9 X   W U.}.m.m.e.>.0.>.w.5.>.y.7.>.N     # -.~.u.u.0.c   2 ].w.m.u.u.u.>.m.>.0.)   I ",
"( (.B.8.0.*.0.8.<.B.[ X .X<.$.<.m.,.l.>.N K   # N N.|.R.A.>.u.5.#.>.) =.>.>.&.b   X 9 &.!.d.u.e.N   b ~.u.c.t.u.A.u.m.u.u.(   y ",
"W (.B.a.m.e.N.b.) a.C   E.D.N.m.5.0.w.u.] K #   b u.~.~.A.=.m.,.&.0.&.w.2.0.) g   # b &.R.m.m.u.N   N A.m.y.w.u.>.:.>.w.m.!   s ",
"! (.D.y.e.e.e.a.0.y.b   (.E.<.w.&.u.m.0.W b .   N ) !.~.u.5.=.>.>.>.2.>.>.5.W   #   N &.G.m.m.K b + c E.N.) u.>.>.q.=.-.l.W   y ",
"! W.R.e.a.u.e.w.w.<.b X ~.E.:.8.,.q.0.8.! N     9 / A.(.m.7.>.u.A.w.0.>.&.) N X     N :.0./ b   #   e A.A.>.c.0.w.m.u.>.0.W   + ",
"! (.D.y.m.a.e.w.u.<.b % E.(.<.e.w.>.>.w.>.K       b 0.A.N.&.( -.( c 7 9 # #     + # 9 c #   X   2 9 2 I N 9 W N c W N g N 0     ",
"! W.D.w.b.u.w.<.<.<.b   <.(.w.0.m.0.>.0.-.S       N W =.5.W b s # .               # g N 9 c c N N ( 9 % #   X   X O X     #     ",
"( ~.D.<.p.u.y.y.>.w.C   C (.u.<.A.u.0.>.W b   +   c 2   X   .     X #           X 2 9 W N N b c 9 N 0 7 9 2 +   .       O X   X ",
"( (.D.0.a.u.u.u.a.a.!   b .Xm.w.q.w.w.0.o.N       b b 1     # # # s c 9 9 c 9 2 b b 9 b b ( W W W &.) ( _ ) ) W W W ! ) &.b # s ",
"! W.R.w.a.a.a.p.u.*.8   e .Xa.0.>.5.q.u.=.W       # W &.( W W W N ) ( W &.) W ) &.>.=.y.m.Q.E.!.|.~.E.Q.R.R.~.~.].}.(.~.R.) 1 b ",
"C E.R.w.a.u.e.u.u.W X   b OXm.u.u.2.&.>.( b     #   ) R.{.[.E.[.{./.R.~.|.~.R.}.].{.].!.{.}..XXXOX_..X+XOX.XOX.XR./.R.A.m.C   0 ",
"( A.A.y.0.b.N.u.&.b   2 5 .X<.m.! 0.>.u.( K         ) !.E.{.OX}..XOX.XR.}.XXA.OX.X}.@X/..XR.{.R.~.S.A._.[.A.~.].A.{.~.A.-.c . k ",
"N .X~.m.b.) &.8.,.N     2 }.w.u.5.u.w.>._ c         ) {.~.~.~.~.A.{.P.A.{.~.R.(.{.R.m.~.A.m.=.>.y.m.m.m.0.&.w.u.q.m.u.u.>.N     ",
"c ~.] / D.0.=.>.-.b +   9 ~.q.>.u.u.u.>.&.b 1     # N ~.R.m.>.>.>.m.>.t.u.>.u.q.2.>.N.&.P.w.m.) u.w.0.c.w.8.u.u.m.A.u.u.>.S     ",
"s E.m.w.A.o.b N N X     s A.0.>.>.,.2.>.&.b #     # 9 _.}.Q.5.u.0.u.0.u.u.0.m.u.&.u.m.m.7.0.5.0.d.>.( c.u.,.u.N.w.m.u.u.-.b     ",
"9 ) &.) W W c b N     + c y.t.m.>.y.&.0./ W         X U.}.~.u.d.>.) 0.>._ 5.>.2.>.>.7.A.>.) ) m.m.u.>.m.&.) >.i.) 5.>.w.>.N     ",
"c         b I c N X   9 9 I W ) K ) b / 9 N   X X     u.~.A.u.q.A.t.A.u.>.u.>.y.-.=.t.&.y.>.u.w.t.V.>.u.( ,.0.<.w.>.W #.&.W o   ",
"N c W b     #   #     9   X       #   X   #       +   0.E.A.A.m.u.u.u.0.>.=.-.>.&.m.&.w.I R.,.&.&.w.) 0.) u.0.o.l.w.W W W N     ",
"c c 7 b b 9 g       X h   X             X             o.u.8.w.&.( w.&.t.m.0.M.m.>.) ( >.>.&.( >.=.c.0.R.>.m.u.u._ 0.>.u.8.W     ",
"c W A.y.A.m.0.-.W 9 2 W   #                 +         b 2 #   +   9 9 c c >.,.! W W W o.] W ! ) W ! W ! / ! W W W ) N ) ! M X   ",
"c 7.~.!.{.R.}.~..XM.A.&.-.N W 9     + X           # 4 W s c #     2 X     9 b b W W N N b c N B W I N N b N N N N N N I N 2     ",
"b m.E.D.m.>.R.A.P.E.{.~.A.A.R.m.m.m.m.a.>.:.&.#.W ) ) ) c N c 9 9 9 1       < c 2 9 0 c 9 s g k 8 9 9 c s 9 9 9 b 9 b b 9 X 2 b ",
"9 m.E.A.m.u.~.}.w.A.R.{.A.~.R.R.~.~.{.}.R.~.Q.E.~.~.~.G.u.u.m.A.-.b b 9           X X             .   + X       +   X   +   7 9 ",
"b c.[.b.>.>.W &.V.=.0.) A.>.c.u.q.w.w.l.2.u.u.m.A.A.~.!.R.!.W.R.W   b ) c N 9 +           X     X                       e N W 0 ",
"7 0._.N.m.R.#.w.i.>.&.>.m.7.>.0.0.8.>.5.&.>.2.>.,.0.m.0.m.A.N.) -.    9 2 m.R.R.u.#.c 9 7 8 N ( 2 9 c N b b b b 9 W N 2 b b b K ",
"b A.A.e.>.0.W W 0.A.w.A.w.u.W &.&.) ] &.>.2.q.>.u.u.u.>.u.d.c.! N   + b b ~.A.m.~.R.~.}.S.) 9 7 A.D.!.~.~.~.Q.R.m.{.m.7.>.N # W ",
"9 V.:.` W W ( ) W $.( N &.&.! ! &.S ! W #.( &.W ) W ) W &.K ( B 9 #   # 4 |.m.R.~.A.G.~.A.( N ! R.A.c.t.,.5.q.y.w.m.>.m.].>.+ b ",
"r V E R e = 8 z H l e l x x k q f f h s e e 9 e e s f f f c s s 6 > O ; P x.'.I.Q.z.I.h.4...f ].x.g.g.z.x.h.g.6.v.h.I.6.x.L , H ",
"w % O   .     ; O         O X X   O         X   X   X     X O . X X     o 5 2 o n y ) W ` S y D.a.0.<.e.d.a.p.d.u.1.u.=.=.Z X N ",
"b 6 ,   o .   ; ; o o .       X                             .         X & t u t X   .         G F i t u n v b V Z p i p t u . n ",
"| | } J g g h j d a 0 3 : + O + o + : + . + : + . . + , : . + : .       # s B W 9 s #       # 9 7 #     O       o .   # . 3   c ",
"I T @.O.U B B / #.#.#.#.@. . .O.A ^  ...W / | / D D .. ...Q W ....../ I ^ / / Y Y ..K ^ o.^ / / +...^ ../ / ../ ^ Y Q T ^ ) Y #."
};
