/* XPM */
static char *_____________[] = {
/* columns rows colors chars-per-pixel */
"64 64 256 2",
"   c #223D50",
".  c #084E49",
"X  c #08554C",
"o  c #035554",
"O  c #0B5A53",
"+  c #025C5C",
"@  c #085858",
"#  c #155756",
"$  c #0B4D4F",
"%  c #235657",
"&  c #00615F",
"*  c #03685B",
"=  c #0E695E",
"-  c #346251",
";  c #2C614F",
":  c #045A69",
">  c #185D64",
",  c #105F75",
"<  c #2C5C6A",
"1  c #325F6F",
"2  c #345C63",
"3  c #365C78",
"4  c #32527A",
"5  c #006462",
"6  c #016A65",
"7  c #00656B",
"8  c #036C6C",
"9  c #086E6C",
"0  c #1E656C",
"q  c #1A6062",
"w  c #007463",
"e  c #02736C",
"r  c #017C6B",
"t  c #05746C",
"y  c #006574",
"u  c #016D73",
"i  c #016C7B",
"p  c #096E79",
"a  c #1E6974",
"s  c #027474",
"d  c #0A7473",
"f  c #027A76",
"g  c #0A7875",
"h  c #02757A",
"j  c #0B757A",
"k  c #017C7B",
"l  c #0A7B7A",
"z  c #16797C",
"x  c #17716F",
"c  c #266965",
"v  c #396667",
"b  c #36736B",
"n  c #246A74",
"m  c #346574",
"M  c #317577",
"N  c #47705B",
"B  c #4A6D72",
"V  c #476B75",
"C  c #506F74",
"Z  c #4E7178",
"A  c #517175",
"S  c #527179",
"D  c #4A7166",
"F  c #43536A",
"G  c #00816D",
"H  c #0A866C",
"J  c #038272",
"K  c #02827E",
"L  c #0A847C",
"P  c #05897A",
"I  c #15867E",
"U  c #00927C",
"Y  c #019176",
"T  c #2F9E78",
"R  c #345587",
"E  c #006F80",
"W  c #037483",
"Q  c #097583",
"!  c #017C82",
"~  c #0B7C83",
"^  c #047B8A",
"/  c #0A7C8C",
"(  c #137B86",
")  c #0A728D",
"_  c #266986",
"`  c #486686",
"'  c #4A748A",
"]  c #018483",
"[  c #0B8384",
"{  c #028A85",
"}  c #0C8C84",
"|  c #028689",
" . c #0C858B",
".. c #018B8C",
"X. c #0B8B8C",
"o. c #118385",
"O. c #138B8C",
"+. c #168589",
"@. c #019385",
"#. c #02928C",
"$. c #0C928C",
"%. c #0B9185",
"&. c #018E91",
"*. c #0C8D93",
"=. c #098594",
"-. c #148E93",
";. c #198C94",
":. c #029494",
">. c #0C9394",
",. c #049A95",
"<. c #0D9A93",
"1. c #039699",
"2. c #0A9599",
"3. c #019B9C",
"4. c #0B9C9C",
"5. c #129394",
"6. c #1B9394",
"7. c #119B95",
"8. c #14959B",
"9. c #149A9C",
"0. c #1C9B9C",
"q. c #1B9599",
"w. c #10938F",
"e. c #39938E",
"r. c #35938D",
"t. c #3A8A99",
"y. c #239A99",
"u. c #389796",
"i. c #298B8A",
"p. c #03A29D",
"a. c #06A29A",
"s. c #1BA39D",
"d. c #15A39A",
"f. c #27A99B",
"g. c #34AA97",
"h. c #029EA2",
"j. c #099AA4",
"k. c #1B9CA2",
"l. c #149CA3",
"z. c #259CA5",
"x. c #02A3A4",
"c. c #0AA2A4",
"v. c #03A5AA",
"b. c #09A5A9",
"n. c #02AAAA",
"m. c #0AABAC",
"M. c #0CABA7",
"N. c #14A1A4",
"B. c #1DA3A3",
"V. c #14ACAD",
"C. c #1CABAC",
"Z. c #18A7A7",
"A. c #1DB3AE",
"S. c #10B5AF",
"D. c #0CADB3",
"F. c #06A8B3",
"G. c #17ABB4",
"H. c #0BB2B3",
"J. c #0BB5B8",
"K. c #14B3B3",
"L. c #1BB4B2",
"P. c #1BB5BA",
"I. c #1DBBBB",
"U. c #18B8B7",
"Y. c #0EB1AE",
"T. c #23ACAB",
"R. c #27A7A7",
"E. c #34A9A9",
"W. c #2CB2AA",
"Q. c #25B1AD",
"!. c #35B5AC",
"~. c #2DACB3",
"^. c #24ADB4",
"/. c #34AEB4",
"(. c #38ACB7",
"). c #23B3B3",
"_. c #2BB3B3",
"`. c #27B9B8",
"'. c #32B3B4",
"]. c #3BB4B3",
"[. c #34BCBA",
"{. c #3CBBBD",
"}. c #36B7B8",
"|. c #479C9B",
" X c #509A96",
".X c #49A299",
"XX c #4EA394",
"oX c #63BA9C",
"OX c #4B9CA6",
"+X c #539CA1",
"@X c #4C88A7",
"#X c #4DA2A1",
"$X c #45A4A0",
"%X c #54A4A6",
"&X c #42B9AC",
"*X c #5BB8A2",
"=X c #43BCBC",
"-X c #45B9B8",
";X c #54B9BB",
":X c #4FABB5",
">X c #6AB4B5",
",X c #66B1B4",
"<X c #69AFAE",
"1X c #659391",
"2X c #2CC0BB",
"3X c #3BC5BA",
"4X c #3BCAAD",
"5X c #25C1AB",
"6X c #45C2BE",
"7X c #47C2B4",
"8X c #57CBA8",
"9X c #6BCCB6",
"0X c #16BBC5",
"qX c #29BDC3",
"wX c #38BCC3",
"eX c #2BB4DD",
"rX c #149FC0",
"tX c #48BDC3",
"yX c #57AFC8",
"uX c #75BFC0",
"iX c #2AC1C6",
"pX c #3CC2C2",
"aX c #39C6C9",
"sX c #39C9CE",
"dX c #44C4C4",
"fX c #4AC3C3",
"gX c #4DCBCD",
"hX c #47C6CA",
"jX c #54C7C9",
"kX c #49D5CD",
"lX c #52CBD2",
"zX c #4BD6D6",
"xX c #56D4D7",
"cX c #52D2CF",
"vX c #7BC7C6",
"bX c #67D9D6",
"nX c #70CED2",
"mX c #69DCE1",
"MX c #67E5E4",
"NX c #74EEF0",
"BX c #5BE5DD",
"VX c #98DDDD",
"CX c #8ACECF",
"ZX c #A4DCD8",
"AX c #98E3D7",
"SX c #A9E2DA",
"DX c #96E2E2",
"FX c #9BFEFE",
"GX c #97F9FB",
"HX c #89F4F4",
"JX c #ACFFFF",
"KX c #A4FEFF",
"LX c #B2FFFE",
"PX c #B9FFFF",
"IX c #A3E3E1",
"UX c #A5DFE1",
/* pixels */
"` R R > 3 4 4 V V 3 3 m v ; ; ; - - 2 1 4 R R R ` 3 ` 3 v 2 3 m v v v v m m 1 1 1 1 1 1 < < 1 < m 1 m m n n < m m > c c m < m   ",
"CX@XOXT  XXX X X%X|.|.*X9X*X*XoXoXoX<X,XyXyXyXyXOXOXOXOX%XXX%X.XXXXXXXXXr.r.e.r.e.e.e.e.u.u.e.r.r.r.e.e.u.r.T u.e.i.u..Xt.@X' % ",
"SXi.i.r.8X8Xg.q.(.~.y.4X4X!.!.4X6X].&X7X&XgXlXfX&X7X-X].&X&X].].E.g.g.g.!._.W.W.W.W.W.W.W.W.R.R.f.s.6.s.s.f.6.R.q.R.bXjXz.t.OX< ",
"AXI f.kXHXBXw.^ rXqXN.L.G.P.).qXeXeXwX4Xg.3XaX3X4X4X3XpX[.2XiXiX2X2XaXiXiXI.iX`.I.P.P.P.).I.P.K.K.P.L.I.G.L.A.P.C.kXGXNX( ( t.$ ",
"AX} B.gXMXZ.K #.M.M.M.n.0Xb.Y.`.I.A.I.I.hXQ.hXN.zX2XcX[.6X6XfX6X6X6X6XE.aX[.dX_.dX[.wX'.pX`.^.).`._.^.^.'.).0X0X0XxXMXR.| *.d.* ",
"DX} ..f.W.#...,.p.p.x.x.x.V.V.K.1.C.A.N.Z.[.2X[.T.6XpXhX6XdX6XcX6XjX6XfXaX3XgX{.gX'.pXwX^.pXpXsX^.wXwXhX!.^.0X0XqXE.z.h 1.h.B.& ",
"DX%.P X.@.@.,.d.p.a.c.x.] l.c.N.| C.T.T.K _.B.'.K '.R.{.f dXfX].K =XfX=Xs zXgX{.k lXhXtXW dXwXT.W wX{.~.6 '.sXqXsX(.:X(.C.K.W.X ",
"DXI { X.#.<.4.,.,.c.N.1.:.l.l.T.*.k.R._.9._.~.~.s.'.'.'.R.=X}.fXE.jXjXfXdX{.}.xXtXtX-XxXwXgXtXcX}.gXtXlX;XbXC.qXsXR.E.yXwX`.[.X ",
"DX} { O.@.#.,.#.#.9.2.] | ! ! ! W s u W ! k ! h ] W ! i | h s W k k h u k h h s h h h y [ s u W h h i i @ GXxXsXwXmXnX:XtXaXtX. ",
"DX} K ] { { #.:.:.9.>.W 7 i i 7 i i u 7 ] W W ! W ! h ^ h W | k u s ! h s k k ] s s h [ 7 k k 7 y l Q 7 CXLX(.xXhXyX,X:XwXwXgX. ",
"DXL K O._.d.>.{ ..5.X.W h ;.;.;.q.R.k.9.l.Z.B.^.N.C.B.Z.`.l.2.wXqX_.^.[.3X).3XT.hX~.{.~.6X=X7XjXjXtX;XnXCXPXtXlX{.;XnXnXz.z.jXO ",
"CXe { W.NXpX>.k k X. .h y q.;.k.5.B.:.N.4.j.G.1.C.c.G.j.Z.).N.qX2.`.V.G.d.).).2XQ.pX3XdX[.dX_.gX&XcX-XjXZXPXtXlXfXnXLXHX! | fXX ",
"vXf K } pXR.! k ] -.O.h u  .-.2.4.4.p.,.c.c.j.x.j.c.b.b.V.b.m.V.G.K.J.I.K.L.5XA.).A.Q.A.Q.`.3X[.].{.tXfXZXPX;XwXcXbXnXu.W 2.=XO ",
"vXf k [ 6.] h k ~ O.[ u 8 X.*.>.,.p.p.a.x.x.x.x.v.v.n.n.n.n.n.D.H.D.H.J.S.S.M.S.M.I.S.2XA.W.).2X'.[.{.=XZXPX9XaX[.!..X+.-.N.-XO ",
"vXf f k k s s k K O.[ s 8 X.X.:.,.,.p.a.x.p.x.x.x.n.v.n.n.n.n.n.n.n.n.J.J.n.S.n.K.Y.I.I.K.S.A.A.)._._.W.ZXLX6XpX2X7X:X-X{.iXgX# ",
"CXf k k ! k ! [ k [ [ k 8 X.X.#.#.,.p.p.x.3.p.,.x.x.x.n.n.n.n.n.n.n.n.n.n.H.n.0Xm.I.H.S.S.U.A.A.).).).Q.ZXLX&X`.[.cX7X=XlXaXjX# ",
"vXJ k l ] ! ] [ K K L f 8 } } { :.#.,.,.3.3.3.3.h.h.x.x.x.x.v.n.n.n.n.n.F.F.J.v.I.n.J.m.S.K.I.I.A.A.).).ZXPXE.).V.3XE.E.fXwX=X. ",
"vXf k l ] ! ] ] K K l h 7 [ X.] { ..:.:.3.1.1.3.1.h.3.x.x.x.x.v.n.n.n.v.F.F.v.D.h.D.n.G.m.K.I.L.A.L.).`.ZXLX(.aXL.f.!.-X{.^.-X$ ",
"uXe k [ <.X.] ] K [ K s 6 [ o. . .| &.&.:.:.:.:.:.h.3.3.h.x.h.h.x.v.F.v.F.v.F.h.D.v.D.F.n.m.K.G.G.^.).).UXLX~.qXL.R.cXjXz.k.:X$ ",
"uXe K O.Q.9.{ k f k l s 6 ~ o. . .| =.| 2.*.1.:.:.:.1.3.h.h.c.h.h.v.v.h.h.v.F.D.F.F.b.v.x.b.D.H.V.L.).Q.ZXLXz.G.`.kXFXHX^ =.E.$ ",
">Xk ] g y.;.l u 8 l g 8 5 l L [ } | ......&.&.&.:.:.2.2.,.:.3.3.3.x.x.a.x.x.x.M.b.v.v.v.n.n.n.n.m.m.m.m.DXJX^.G.iXBXMXq.| 1.R.@ ",
",Xs f d l h u 6 s d t 6 5 L l L | { X...&.| ..&.:.:.,.,.1.1.1.3.3.3.h.h.x.x.x.x.b.b.v.v.n.n.n.n.n.n.m.b.VXJX~.P.M.Z.R.5.j.j.~.# ",
">Xs s u 6 8 6 u d l d 6 & l l K ] ] ..........:.&.:.:.,.:.:.1.,.3.3.2.3.x.3.x.x.b.x.n.v.n.n.n.x.n.m.m.b.IXLX(.P.H.Z.B.).G.m._.O ",
">Xs k s s h h s j l d 6 5 L f K [ ] | ..{ ......:.#.:.:.:.:.1.,.3.3.3.,.3.,.3.3.x.x.x.v.x.n.n.n.n.n.m.b.ZXLXz.h.S.).T.`.K.D.T.X ",
">Xs k d s h l s l j t 5 5 l f K ] ] ] { { | ....&.&.&.:.1.:.:.:.1.1.3.1.,.p.3.p.h.h.h.x.x.n.n.x.n.m.b.b.UXLXk.3.n.M.d.d.J.F.T.o ",
">Xe f d h h h s d l 9 & 5 l g l ] k ] | ..{ | { ........&.:.:.:.1.,.1.,.3.3.3.3.3.3.h.3.x.x.n.x.x.b.M.b.VXJXz.D.M.,.B.C.G.n.T.O ",
",X8 k l +.+.l s j l d 5 5 l g f k ! { | ] ] | { ....&...&.&.&.&.:.:.1.:.1.,.3.3.1.3.3.h.h.x.x.h.x.x.c.x.vXFXl.G.M.Z.cXzXj.h.R.X ",
">Xe k +.E.y.[ s u d t 5 5 l f k k k ] ] ] ] | ] | { ..........&.#.:.:.1.:.1.1.1.3.3.h.h.3.x.h.3.3.c.c.c.vXKX4.D.M.sXFXNX&.:.s.X ",
">Xs k l ;.+.u 8 d s 9 5 5 s l f ! ] K ] ] ] ] ] ] | { | ......&...:.:.:.,.1.,.1.1.1.h.h.h.3.3.h.h.x.j.4.CXFXN.h.m.kXMXk.| j.8.o ",
">Xs s s k s 7 6 8 d d 5 5 d l g ! l ! ! ! ] ] ] ] | ] ......&...&.&...&.:.:.:.1.1.1.1.3.3.3.3.3.3.3.4.3.>XHX9.b.m.T.~.| 1.j.k.O ",
">Xf s d 7 u 5 8 s d d 5 5 d d h k K k ] k ! ] ] ] ] ] ......{ &...&.&.:.:.:.#.:.:.:.1.1.3.3.1.3.3.4.4.4.CXGX2.x.x.,.s.>.h.b.B.O ",
">Xf s e 8 s 7 s j d t 5 5 d l s h ~ k ! k ] k k ] ] | | | ..| ............#...:.:.1.1.1.3.3.3.3.3.1.1.1.CXKXk.3.,.a.T.k.x.b.s.o ",
"<Xf s d s h s s j d 9 5 5 d l s k ! k k k k k k ! ] ] ] | | | { ........&.&.&.&.:.1.1.1.1.3.,.1.3.2.2.3.uXKX;.b.c.,.9...j.b.l.X ",
"%Xf s l s h 8 s j t d 5 : g g s h k ! ! k k k k k ] ] ] ] ] | ] ..| ....&...&.&.&.&.1.&.1.3.3.3.1.1.2.:.CXGX*.h.3.:.0.l.Z.j.0.O ",
"+Xf s ~ [ ~ u 8 s 9 d 5 & t j s k h k W k k k k k ! ] k ] ] | | | | ..| &...&...&.&.&.1.1.1.1.,.2.2.2.2.CXGX*.1.1.B.xXxXj.h.q.$ ",
"+Xk s I y.O.l d s 8 9 5 + d d s k ~ h W k k k k k k ! ! ] ] ] { ] { ....| ..&.......&...1.:.1.:.3.:.,.2.%XHXl.h.x.cXFXHX=.*.-.$ ",
".X] ] [ 6. .u 7 7 9 9 5 5 9 d e s k s k k f k k k k k K K K K K K K ] P | | ..&.....#.:.&.&.&.:.:.:.:.2.jXNX6.>.p.zXMXl.| ..7.+ ",
"#Xk k l s u 6 7 6 u 6 & 5 9 g s l s s k f k k k k K k k K K K K K K [ ] { { ..| ........&.&.&.:.:.1.:.:.jXMX6.7.#.c.P.=.&.:.5.+ ",
"#X] k h 7 7 7 6 6 9 6 5 & 9 t s f s k k f k k k k k k K k K K K ] K { [ { ] | { ..............:.:.:.:.:.jXNXi.9.#.#.2.*.1.,.7.@ ",
"%X] ] h s s s 8 u 9 7 5 5 6 g u s h s k k f f k f k k k K f k K K K ] ] ] | { | ........&.....&...:.:.:.tXNX;.5.a.3.2.8.2.:.w.+ ",
"#X] ] l ~ h h d 8 9 6 & & 9 d d l s h k k f k k k k k k k k K k K K K ] ] ] ] ] { { ..{ ....&.&.&.&.&.&.tXMXX.2.<.,.>.=.2.:.$.o ",
"#XK ] h k h s s s 9 6 : & 8 t s s s s h f k f f f k f k f k f K K K K K ] ] ] ] | ] ..| | &...........&.fXbX[ 5.#...4.l.4.#.$.+ ",
".X] ] ~ +.[ h s 8 d 6 & + 8 t 8 s s h k s f k f f k f k k k k k k K K K K K ] ] ] ] ] | ..{ ......&.| &.hXxX] <.:.M.aXaX2.#.w.o ",
"#X] { +.E.y.[ d s d 9 5 & 9 9 d s s u k k k s k k f k k k K k k k k k L ] k K ] ] ] { ] ......&.....&.&.lXmXX.>.#.sXNXBX&.{ { o ",
"#X{ { l 6.[ s 6 e d 8 5 & 9 8 8 d s s s s s f k f k k f k f k k k K k k K K ] ] ] ] ] ] ] ] | { ..&.....(.xX=...4.V.BXlX{ { } & ",
"#X] { h h s 7 5 8 d 6 + & 8 8 8 s h u h s h s s f h s k k k f k k k k K k k k ] ] ] ] ] ] | | ..{ ......}.xX5.{ #.@.N.8.] ] [ @ ",
"$X] { h u 8 8 u s g 9 & & 9 9 7 s s s h s k s k k f f k f k k k f k k f k K K ] ] K ] ] ] { | { { ......~.lX>.{ #.{ ] ] =.@.} @ ",
"#X{ ..h k k f f g g 9 5 & 6 9 6 u p s h s s s s s s f s k f f k k f k K k k k k K ] K ] ] ] ] ] | | { | _.hXX.{ ,.#.X.5.<.<.$.@ ",
"#X{ ..[ k ! l k g d 6 + 5 9 9 8 e u s h s s s h f k s k f k k f k f f k k k k K k ] k ] ] ] ] ] | | ..{ }.hX=.{ :.@.|  .X.{ P @ ",
"OX] ..l k k K l l g 9 & & 6 9 8 7 u u h s s f s s s s s s f h f f k k k k k f k k k ] K k ] ] ] ] ] ..| ~.tX*.&.....>.] #.#.[ @ ",
"|.] ..[ O.X.K l l g 9 5 : 9 9 u 9 u u s s s s s s s s k k k k k k k K f f k f k k k k ] ] ] ] ] ] ] | | R.wX| :.@.,.3XR.5.#.} @ ",
"$X| :.O.R.0.} f e s e 5 + 9 9 9 u u u s s s s f s f s s k f f f f k k k f k k f k k k ] K k K ] ] ] ] | ^.wX| :.@.Z.MXcX..{ l o ",
"+XI } [ i.+.8 7 u j j 6 5 u d u 8 s s 8 e e h s f s f s k k f K K ! K k k ]  .W k ] ! ! ! X...] ] ....] G.G.=...1.).sXR.k K P @ ",
"+X[ ] k e 8 & 6 d g g 5 * e e s 6 8 e 8 e f e r f f f e K J f f k J f f k k f k K k K k k K K K K ] K { l.^.X.K { @.7.K f K P O ",
"OX[ ] k 5 e * e J f f * g L } I L L L L L P L L P %.I P } } P { %.%.@.{ w.} { $.5.%.#.$.5.%.{ <.7.7.d.d.d.W.P J U P P l L K } O ",
"OX{ @.{ l [ k h l k g e [ O.6.O.} o.o.o.[ o.o.[ o.O.X.} X.5.6.5.5.5.5.5.0.8.8.q.9.8.8.5.9.9.9.l.N.B.B.T.f.!.L P @.U { k [ ] o.> ",
"$XU @.U ( +./ ~ Q h Q h y p Q E i i i h i i h i i i W Q i W / W W ^ / / ^ ) =.^ W ^ / ^ W ^ =.! ^ / -.*.] 6.k k X.K X. . . .( : ",
".XY U P / / Q ~ Q W Q h y y i y y y y y : y i y 7 y i p : i E i y i W W y E ) i y W ^ E y W W h i W ^ W : ^ Q  .{ ] 2.-. .[ ( # ",
".XY U U y.O.s d l l l s 8 d g 9 8 t d d 5 6 9 8 6 u g d 8 s g d u l l l 8 l l s e g L g s h [ l h k [ K k X. .-.{ { C.$.{ P L X ",
".X%.#.>.7Xg.G r r r J r r r L t w 6 w w w w w * * w r w e r r w e r r w r r r r G r r r r r r J J r G J  .k s } P d.kX!.P J H X ",
"|.;.;.;.f.%.r w r J J r f r r r e e e e w w w w w w w w e w e r e r e e r r r G r r r G G G G H G G G G ] ~ ~ K { <.y.z.K f r O ",
"<X( ) _ h 7 6 6 d ( ~ Q d j j j j j d u w 9 9 9 6 9 9 t d d d d d g d d g g g g g g g t g g g g g d t g l z z j K X.+.) p Q j > ",
"1XM ( _ o o : > 0 a 0 a n c 0 0 n > > c > > # > > # # 0 c 0 > c 0 0 c 0 n 0 c 0 x 0 0 0 c n x n n x n n c b b c x z a a a _ _ 4 ",
"D v M ' V V B Z Z Z Z Z S ' S S S S S A C C C C A A A A S S S S S A S A B A A S A A Z Z B B B B B B B B N N D D b b V V ` ' M F "
};
